SplineFontDB: 3.0
FontName: aghtex_mathrm_xlight
FullName: aghtex_mathrm_xlight
FamilyName: aghtex_mathrm
Weight: Light
Copyright: Copyright (C) 2012-2013, Koichi Murase, 1997, 2009, American Mathematical Society <http://www.ams.org>, with Reserved Font Name CMR9, CMSY9, MSBM10.
Version: 1.0.36/2013-11-04
ItalicAngle: 0
UnderlinePosition: -136
UnderlineWidth: 20
Ascent: 819
Descent: 205
LayerCount: 2
Layer: 0 1 "+gMyXYgAA"  1
Layer: 1 1 "+Uk2XYgAA"  0
NeedsXUIDChange: 1
UniqueID: 4702302
FSType: 0
OS2Version: 1
OS2_WeightWidthSlopeOnly: 0
OS2_UseTypoMetrics: 0
CreationTime: 878738956
ModificationTime: 1383770479
PfmFamily: 17
TTFWeight: 200
TTFWidth: 5
LineGap: 92
VLineGap: 0
OS2TypoAscent: 0
OS2TypoAOffset: 1
OS2TypoDescent: 0
OS2TypoDOffset: 1
OS2TypoLinegap: 92
OS2WinAscent: 819
OS2WinAOffset: 1
OS2WinDescent: 205
OS2WinDOffset: 1
HheadAscent: 0
HheadAOffset: 1
HheadDescent: 0
HheadDOffset: 1
OS2Vendor: 'PfEd'
MarkAttachClasses: 1
DEI: 91125
ShortTable: maxp 16
  0
  0
  0
  0
  0
  0
  0
  2
  1
  2
  22
  0
  256
  0
  0
  0
EndShort
TtTable: prep
PUSHW_1
 511
SCANCTRL
PUSHB_1
 1
SCANTYPE
SVTCA[y-axis]
MPPEM
PUSHB_1
 8
LT
IF
PUSHB_2
 1
 1
INSTCTRL
EIF
PUSHB_2
 70
 6
CALL
IF
POP
PUSHB_1
 16
EIF
MPPEM
PUSHB_1
 20
GT
IF
POP
PUSHB_1
 128
EIF
SCVTCI
PUSHB_1
 6
CALL
NOT
IF
SVTCA[y-axis]
PUSHB_1
 6
DUP
RCVT
PUSHB_1
 3
CALL
WCVTP
PUSHB_1
 7
DUP
RCVT
PUSHB_3
 6
 58
 2
CALL
PUSHB_1
 3
CALL
WCVTP
PUSHB_1
 8
DUP
RCVT
PUSHB_3
 6
 34
 2
CALL
PUSHB_1
 3
CALL
WCVTP
SVTCA[x-axis]
PUSHB_1
 9
DUP
RCVT
PUSHB_1
 3
CALL
WCVTP
PUSHB_1
 10
DUP
RCVT
PUSHB_3
 9
 58
 2
CALL
PUSHB_2
 3
 70
SROUND
CALL
WCVTP
PUSHB_1
 11
DUP
RCVT
PUSHB_3
 9
 24
 2
CALL
PUSHB_2
 3
 70
SROUND
CALL
WCVTP
EIF
PUSHB_1
 20
CALL
EndTTInstrs
TtTable: fpgm
PUSHB_1
 0
FDEF
PUSHB_1
 0
SZP0
MPPEM
PUSHB_1
 71
LT
IF
PUSHB_1
 74
SROUND
EIF
PUSHB_1
 0
SWAP
MIAP[rnd]
RTG
PUSHB_1
 6
CALL
IF
RTDG
EIF
MPPEM
PUSHB_1
 71
LT
IF
RDTG
EIF
DUP
MDRP[rp0,rnd,grey]
PUSHB_1
 1
SZP0
MDAP[no-rnd]
RTG
ENDF
PUSHB_1
 1
FDEF
DUP

StartChar: blackdiamond
Encoding: 9830 9830 1
Width: 799
VWidth: 1000
Flags: W
LayerCount: 2
Fore
SplineSet
742 282 m 0,0,1
 742 275 742 275 739 271 c 128,-1,2
 736 267 736 267 719 251 c 0,3,4
 540 88 540 88 420 -149 c 0,5,6
 414 -163 414 -163 400 -163 c 0,7,8
 390 -163 390 -163 386 -158 c 128,-1,9
 382 -153 382 -153 371 -133 c 0,10,11
 257 91 257 91 77 255 c 0,12,13
 63 268 63 268 60 271.5 c 128,-1,14
 57 275 57 275 57 282 c 128,-1,15
 57 289 57 289 60 293 c 128,-1,16
 63 297 63 297 80 313 c 0,17,18
 259 476 259 476 379 713 c 0,19,20
 387 727 387 727 400 727 c 0,21,22
 409 727 409 727 413.5 721.5 c 128,-1,23
 418 716 418 716 428 697 c 0,24,25
 539 479 539 479 722 309 c 0,26,27
 742 291 742 291 742 282 c 0,0,1
EndSplineSet
Validated: 3073
EndChar

StartChar: angle
Encoding: 8736 8736 2
Width: 759
Flags: W
HStem: 0 44<130 699.981> 691 20G<673.5 683>
LayerCount: 2
Fore
SplineSet
79 0 m 1,0,1
 58 4 58 4 58 23 c 0,2,3
 58 29 58 29 65 38 c 2,4,-1
 664 705 l 1,5,6
 668 711 668 711 679 711 c 0,7,8
 687 711 687 711 693.5 704 c 128,-1,9
 700 697 700 697 700 689 c 0,10,11
 700 680 700 680 694 674 c 2,12,-1
 130 44 l 1,13,-1
 681 44 l 1,14,15
 700 40 700 40 700 23 c 0,16,17
 700 4 700 4 681 0 c 1,18,-1
 79 0 l 1,0,1
EndSplineSet
Validated: 19457
EndChar

StartChar: proportional
Encoding: 8733 8733 3
Width: 799
VWidth: 1000
Flags: W
HStem: -11 45<642.26 741> -11 32<165.894 298.805> 397 45<155.888 298.816> 410 32<642.195 739.517>
VStem: 57 25<135.798 290.716>
LayerCount: 2
Fore
SplineSet
741 36 m 1,0,-1
 741 -7 l 1,1,2
 723 -11 723 -11 704 -11 c 0,3,4
 660 -11 660 -11 622 4.5 c 128,-1,5
 584 20 584 20 552.5 51 c 128,-1,6
 521 82 521 82 505 102.5 c 128,-1,7
 489 123 489 123 466 158 c 1,8,9
 374 -11 374 -11 235 -11 c 0,10,11
 154 -11 154 -11 105.5 57.5 c 128,-1,12
 57 126 57 126 57 215 c 0,13,14
 57 307 57 307 107 374.5 c 128,-1,15
 157 442 157 442 237 442 c 0,16,17
 281 442 281 442 319 426.5 c 128,-1,18
 357 411 357 411 388.5 380 c 128,-1,19
 420 349 420 349 436 328.5 c 128,-1,20
 452 308 452 308 475 273 c 1,21,22
 567 442 567 442 706 442 c 0,23,24
 733 442 733 442 738 438 c 1,25,26
 741 437 741 437 741 407 c 1,27,28
 727 410 727 410 713 410 c 0,29,30
 671 410 671 410 632.5 390.5 c 128,-1,31
 594 371 594 371 568 339.5 c 128,-1,32
 542 308 542 308 526 283.5 c 128,-1,33
 510 259 510 259 500 235 c 1,34,35
 578 117 578 117 619 75.5 c 128,-1,36
 660 34 660 34 717 34 c 0,37,38
 734 34 734 34 741 36 c 1,0,-1
441 196 m 1,39,40
 399 259 399 259 379.5 286.5 c 128,-1,41
 360 314 360 314 331.5 345 c 128,-1,42
 303 376 303 376 279 386.5 c 128,-1,43
 255 397 255 397 224 397 c 0,44,45
 160 397 160 397 121 342 c 128,-1,46
 82 287 82 287 82 215 c 0,47,48
 82 140 82 140 121 80.5 c 128,-1,49
 160 21 160 21 228 21 c 0,50,51
 270 21 270 21 308.5 40.5 c 128,-1,52
 347 60 347 60 373 91.5 c 128,-1,53
 399 123 399 123 415 147.5 c 128,-1,54
 431 172 431 172 441 196 c 1,39,40
EndSplineSet
Validated: 19457
EndChar

StartChar: anticlockwise
Encoding: 8634 8634 4
Width: 818
Flags: W
HStem: -96 33<307.454 510.47> 543 30<243.893 274.843> 574 33<392.019 431.748>
VStem: 58 33<154.108 356.222> 522 35<418 470.487> 726 33<154.108 356.333>
LayerCount: 2
Fore
SplineSet
409 -96 m 128,-1,1
 264 -96 264 -96 161 7 c 128,-1,2
 58 110 58 110 58 256 c 0,3,4
 58 356 58 356 111.5 442 c 128,-1,5
 165 528 165 528 255 571 c 0,6,7
 259 573 259 573 263 573 c 0,8,9
 270 573 270 573 275 568.5 c 128,-1,10
 280 564 280 564 280 557 c 0,11,12
 280 548 280 548 271 543 c 0,13,14
 189 504 189 504 140 425.5 c 128,-1,15
 91 347 91 347 91 256 c 0,16,17
 91 125 91 125 184.5 31 c 128,-1,18
 278 -63 278 -63 409 -63 c 128,-1,19
 540 -63 540 -63 633 31 c 128,-1,20
 726 125 726 125 726 256 c 0,21,22
 726 358 726 358 664.5 443 c 128,-1,23
 603 528 603 528 506 559 c 1,24,-1
 501 542 l 1,25,26
 545 481 545 481 557 408 c 1,27,-1
 522 418 l 1,28,29
 506 511 506 511 432 573 c 1,30,31
 424 574 424 574 408 574 c 0,32,33
 401 574 401 574 396.5 579.5 c 128,-1,34
 392 585 392 585 392 591 c 0,35,36
 392 607 392 607 411 607 c 0,37,38
 444 607 444 607 474 601 c 1,39,40
 548 621 548 621 597 677 c 1,41,-1
 632 668 l 1,42,43
 579 613 579 613 523 588 c 1,44,45
 628 552 628 552 693.5 459.5 c 128,-1,46
 759 367 759 367 759 256 c 0,47,48
 759 110 759 110 656.5 7 c 128,-1,0
 554 -96 554 -96 409 -96 c 128,-1,1
EndSplineSet
Validated: 19457
EndChar

StartChar: harpoonupright
Encoding: 8638 8638 5
Width: 438
Flags: W
HStem: -199 21G<214 223.5> 691 20G<197 245>
VStem: 197 44<-192.296 614> 197 22<690.92 711>
LayerCount: 2
Fore
SplineSet
197 -177 m 2,0,-1
 197 711 l 1,1,-1
 219 711 l 1,2,3
 271 601 271 601 389 553 c 1,4,-1
 389 517 l 1,5,6
 303 543 303 543 241 614 c 1,7,-1
 241 -177 l 2,8,9
 241 -186 241 -186 234.5 -192.5 c 128,-1,10
 228 -199 228 -199 219 -199 c 0,11,12
 209 -199 209 -199 203 -192.5 c 128,-1,13
 197 -186 197 -186 197 -177 c 2,0,-1
EndSplineSet
Validated: 19457
EndChar

StartChar: curlyright
Encoding: 8620 8620 6
Width: 1051
Flags: W
HStem: 233 45<140.291 354 398 903> 547 45<124.983 302.648>
VStem: 37 44<334.609 503.505> 354 44<-44.9951 233 278 482.272>
LayerCount: 2
Fore
SplineSet
354 -25 m 1,0,-1
 354 233 l 1,1,2
 310 233 l 2,3,4
 274 233 274 233 251.5 234 c 128,-1,5
 229 235 229 235 197 238.5 c 128,-1,6
 165 242 165 242 145 249 c 128,-1,7
 125 256 125 256 102.5 269 c 128,-1,8
 80 282 80 282 67 301 c 128,-1,9
 54 320 54 320 45.5 348.5 c 128,-1,10
 37 377 37 377 37 413 c 0,11,12
 37 592 37 592 217 592 c 0,13,14
 255 592 255 592 284 581 c 128,-1,15
 313 570 313 570 332 555 c 128,-1,16
 351 540 351 540 364 511.5 c 128,-1,17
 377 483 377 483 383.5 461 c 128,-1,18
 390 439 390 439 393.5 400.5 c 128,-1,19
 397 362 397 362 397.5 340.5 c 128,-1,20
 398 319 398 319 398 278 c 1,21,-1
 903 278 l 1,22,23
 836 339 836 339 800 426 c 1,24,-1
 836 426 l 1,25,26
 883 309 883 309 993 256 c 1,27,28
 883 201 883 201 836 85 c 1,29,-1
 800 85 l 1,30,31
 836 172 836 172 903 233 c 1,32,-1
 398 233 l 1,33,-1
 398 -25 l 1,34,35
 393 -45 393 -45 376 -45 c 0,36,37
 358 -45 358 -45 354 -25 c 1,0,-1
81 413 m 0,38,39
 81 374 81 374 95.5 347 c 128,-1,40
 110 320 110 320 128.5 307 c 128,-1,41
 147 294 147 294 183 287 c 128,-1,42
 219 280 219 280 242 279 c 128,-1,43
 265 278 265 278 310 278 c 2,44,-1
 354 278 l 1,45,46
 352 405 352 405 344 446 c 0,47,48
 334 501 334 501 303.5 524 c 128,-1,49
 273 547 273 547 217 547 c 0,50,51
 145 547 145 547 113 515.5 c 128,-1,52
 81 484 81 484 81 413 c 0,38,39
EndSplineSet
Validated: 19457
EndChar

StartChar: eqgreater
Encoding: 8925 8925 7
Width: 799
VWidth: 1000
Flags: W
HStem: -154 43<92.7035 104> 404 45<92.1885 106> 609 43<86.0085 711.991>
LayerCount: 2
Fore
SplineSet
692 171 m 2,0,1
 712 161 712 161 712 148 c 0,2,3
 712 134 712 134 693 125 c 2,4,-1
 126 -147 l 2,5,6
 113 -154 113 -154 107 -154 c 0,7,8
 99 -154 99 -154 92.5 -148 c 128,-1,9
 86 -142 86 -142 86 -132 c 0,10,11
 86 -120 86 -120 104 -111 c 2,12,-1
 641 148 l 1,13,-1
 106 404 l 2,14,15
 86 414 86 414 86 428 c 0,16,17
 86 436 86 436 92 442.5 c 128,-1,18
 98 449 98 449 108 449 c 0,19,20
 113 449 113 449 124 443 c 2,21,-1
 692 171 l 2,0,1
677 652 m 2,22,23
 712 652 712 652 712 631 c 0,24,25
 712 609 712 609 677 609 c 2,26,-1
 121 609 l 2,27,28
 86 609 86 609 86 631 c 0,29,30
 86 652 86 652 121 652 c 2,31,-1
 677 652 l 2,22,23
EndSplineSet
Validated: 19457
EndChar

StartChar: geq
Encoding: 8805 8805 8
Width: 799
VWidth: 1000
Flags: W
HStem: -154 43<86.0085 711.991> 49 45<92.1885 106> 609 43<92.7035 104>
LayerCount: 2
Fore
SplineSet
692 327 m 2,0,-1
 124 55 l 2,1,2
 113 49 113 49 108 49 c 0,3,4
 98 49 98 49 92 55.5 c 128,-1,5
 86 62 86 62 86 70 c 0,6,7
 86 84 86 84 106 94 c 2,8,-1
 641 350 l 1,9,-1
 104 609 l 2,10,11
 86 618 86 618 86 630 c 0,12,13
 86 640 86 640 92.5 646 c 128,-1,14
 99 652 99 652 107 652 c 0,15,16
 113 652 113 652 126 645 c 2,17,-1
 693 373 l 2,18,19
 712 364 712 364 712 350 c 0,20,21
 712 337 712 337 692 327 c 2,0,-1
677 -154 m 2,22,-1
 121 -154 l 2,23,24
 86 -154 86 -154 86 -133 c 0,25,26
 86 -111 86 -111 121 -111 c 2,27,-1
 677 -111 l 2,28,29
 712 -111 712 -111 712 -133 c 0,30,31
 712 -154 712 -154 677 -154 c 2,22,-1
EndSplineSet
Validated: 19457
EndChar

StartChar: rightarrow
Encoding: 8594 8594 9
Width: 1027
VWidth: 1000
Flags: W
HStem: 229 43<57.0085 880>
VStem: 771 31<387.846 429.987>
LayerCount: 2
Fore
SplineSet
880 229 m 1,0,-1
 92 229 l 2,1,2
 57 229 57 229 57 251 c 0,3,4
 57 272 57 272 92 272 c 2,5,-1
 880 272 l 1,6,7
 844 298 844 298 817.5 333 c 128,-1,8
 791 368 791 368 781 389 c 128,-1,9
 771 410 771 410 771 417 c 0,10,11
 771 430 771 430 786 430 c 0,12,13
 798 430 798 430 802 419 c 1,14,15
 815 391 815 391 826.5 371 c 128,-1,16
 838 351 838 351 872.5 318.5 c 128,-1,17
 907 286 907 286 955 265 c 0,18,19
 970 259 970 259 970 250 c 0,20,21
 970 242 970 242 961 238 c 0,22,23
 853 193 853 193 807 93 c 0,24,25
 806 92 806 92 805 89 c 0,26,27
 802 82 802 82 800.5 79.5 c 128,-1,28
 799 77 799 77 796.5 74.5 c 128,-1,29
 794 72 794 72 792 71.5 c 128,-1,30
 790 71 790 71 786 71 c 0,31,32
 771 71 771 71 771 84 c 0,33,34
 771 91 771 91 781 112 c 128,-1,35
 791 133 791 133 817.5 168 c 128,-1,36
 844 203 844 203 880 229 c 1,0,-1
EndSplineSet
Validated: 19457
EndChar

StartChar: check
Encoding: 10003 10003 10
Width: 876
Flags: W
HStem: 699 20G<749 783.5>
LayerCount: 2
Fore
SplineSet
247 -27 m 2,0,-1
 89 230 l 2,1,2
 88 230 88 230 88 232 c 0,3,4
 88 249 88 249 118 266.5 c 128,-1,5
 148 284 148 284 169 287 c 1,6,-1
 174 287 l 1,7,8
 175 286 175 286 177 285 c 128,-1,9
 179 284 179 284 180 283 c 2,10,-1
 283 116 l 1,11,12
 347 306 347 306 474 465 c 0,13,14
 528 534 528 534 625.5 623 c 128,-1,15
 723 712 723 712 775 719 c 1,16,-1
 780 719 l 1,17,18
 787 716 787 716 787 711 c 0,19,20
 787 703 787 703 775 691 c 0,21,22
 761 678 761 678 734 658 c 128,-1,23
 707 638 707 638 699 632 c 0,24,25
 675 613 675 613 631 569 c 0,26,27
 544 482 544 482 483 383 c 1,28,29
 379 218 379 218 339 23 c 0,30,31
 334 3 334 3 307.5 -12.5 c 128,-1,32
 281 -28 281 -28 258 -31 c 1,33,-1
 253 -31 l 1,34,35
 248 -29 248 -29 247 -27 c 2,0,-1
EndSplineSet
Validated: 19457
EndChar

StartChar: downfall
Encoding: 8910 8910 11
Width: 806
Flags: W
HStem: 548 44<88.0049 186.716 619.794 717.995>
VStem: 381 44<-22.9951 211.484>
LayerCount: 2
Fore
SplineSet
381 -3 m 1,0,1
 381 52 381 52 377.5 102.5 c 128,-1,2
 374 153 374 153 364.5 217.5 c 128,-1,3
 355 282 355 282 335.5 335 c 128,-1,4
 316 388 316 388 287 435.5 c 128,-1,5
 258 483 258 483 212 512.5 c 128,-1,6
 166 542 166 542 108 548 c 1,7,8
 88 552 88 552 88 570 c 0,9,10
 88 579 88 579 95.5 585.5 c 128,-1,11
 103 592 103 592 112 592 c 0,12,13
 164 587 164 587 208 564.5 c 128,-1,14
 252 542 252 542 283 510 c 128,-1,15
 314 478 314 478 338 433.5 c 128,-1,16
 362 389 362 389 377 345 c 128,-1,17
 392 301 392 301 403 250 c 1,18,19
 416 314 416 314 437.5 368.5 c 128,-1,20
 459 423 459 423 492.5 473 c 128,-1,21
 526 523 526 523 577.5 554.5 c 128,-1,22
 629 586 629 586 694 592 c 0,23,24
 703 592 703 592 710.5 585.5 c 128,-1,25
 718 579 718 579 718 570 c 0,26,27
 718 552 718 552 698 548 c 1,28,29
 640 542 640 542 594 512.5 c 128,-1,30
 548 483 548 483 519 435.5 c 128,-1,31
 490 388 490 388 470.5 335 c 128,-1,32
 451 282 451 282 441.5 217.5 c 128,-1,33
 432 153 432 153 428.5 102.5 c 128,-1,34
 425 52 425 52 425 -3 c 1,35,36
 421 -23 421 -23 403 -23 c 128,-1,37
 385 -23 385 -23 381 -3 c 1,0,1
EndSplineSet
Validated: 19457
EndChar

StartChar: dotplus
Encoding: 8724 8724 12
Width: 818
Flags: W
HStem: 233 45<58.0051 387 431 758.995> 691 111<371.017 453.684>
VStem: 354 111<707.502 789.814> 387 44<-102.98 233 278 613.98>
LayerCount: 2
Fore
SplineSet
387 -83 m 1,0,-1
 387 233 l 1,1,-1
 79 233 l 1,2,3
 58 237 58 237 58 256 c 0,4,5
 58 274 58 274 79 278 c 1,6,-1
 387 278 l 1,7,-1
 387 594 l 1,8,9
 391 614 391 614 410 614 c 0,10,11
 427 614 427 614 431 594 c 1,12,-1
 431 278 l 1,13,-1
 739 278 l 1,14,15
 759 274 759 274 759 256 c 0,16,17
 759 237 759 237 739 233 c 1,18,-1
 431 233 l 1,19,-1
 431 -83 l 1,20,21
 427 -103 427 -103 410 -103 c 0,22,23
 391 -103 391 -103 387 -83 c 1,0,-1
410 691 m 0,24,25
 387 691 387 691 370.5 707 c 128,-1,26
 354 723 354 723 354 746 c 0,27,28
 354 768 354 768 371 785 c 128,-1,29
 388 802 388 802 410 802 c 128,-1,30
 432 802 432 802 448.5 785.5 c 128,-1,31
 465 769 465 769 465 746 c 0,32,33
 465 724 465 724 448.5 707.5 c 128,-1,34
 432 691 432 691 410 691 c 0,24,25
EndSplineSet
Validated: 19457
EndChar

StartChar: harpoonrightleft
Encoding: 8652 8652 13
Width: 1051
Flags: W
HStem: 130 44<155 986.812> 152 22<58 78.25> 338 44<64.704 897> 338 21<976.197 993>
LayerCount: 2
Fore
SplineSet
216 -19 m 1,0,1
 169 98 169 98 58 152 c 1,2,-1
 58 174 l 1,3,-1
 972 174 l 2,4,5
 981 174 981 174 987 167.5 c 128,-1,6
 993 161 993 161 993 152 c 128,-1,7
 993 143 993 143 987 136.5 c 128,-1,8
 981 130 981 130 972 130 c 2,9,-1
 155 130 l 1,10,11
 226 68 226 68 252 -19 c 1,12,-1
 216 -19 l 1,0,1
58 359 m 128,-1,14
 58 368 58 368 64.5 375 c 128,-1,15
 71 382 71 382 81 382 c 2,16,-1
 897 382 l 1,17,18
 826 442 826 442 800 530 c 1,19,-1
 836 530 l 1,20,21
 883 412 883 412 993 359 c 1,22,-1
 993 338 l 1,23,-1
 81 338 l 2,24,25
 71 338 71 338 64.5 344 c 128,-1,13
 58 350 58 350 58 359 c 128,-1,14
EndSplineSet
Validated: 19457
EndChar

StartChar: harpoonupleft
Encoding: 8639 8639 14
Width: 438
Flags: W
HStem: -199 21G<215 224.5> 691 20G<193 242>
VStem: 198 44<-192.296 614> 220 22<690.92 711>
LayerCount: 2
Fore
SplineSet
198 -177 m 2,0,-1
 198 614 l 1,1,2
 136 543 136 543 49 517 c 1,3,-1
 49 553 l 1,4,5
 166 601 166 601 220 711 c 1,6,-1
 242 711 l 1,7,-1
 242 -177 l 2,8,9
 242 -186 242 -186 235.5 -192.5 c 128,-1,10
 229 -199 229 -199 220 -199 c 0,11,12
 210 -199 210 -199 204 -192.5 c 128,-1,13
 198 -186 198 -186 198 -177 c 2,0,-1
EndSplineSet
Validated: 19457
EndChar

StartChar: followsorequal
Encoding: -1 8829 15
Width: 799
VWidth: 1000
Flags: MW
HStem: -246 60<502 612.5 502 624.5> -63 60<186 296> 429 43<599.5 693 599.5 693>
VStem: 57 30<-220 -212 -212 -180 -220 -163> 711 30<-69 -37 -37 -29>
LayerCount: 2
Fore
SplineSet
72 -246 m 128,-1,1
 60 -246 60 -246 57 -220 c 1,2,-1
 57 -212 l 2,3,4
 57 -132 57 -132 104.5 -67.5 c 128,-1,5
 152 -3 152 -3 228 -3 c 0,6,7
 267 -3 267 -3 304.5 -22 c 128,-1,8
 342 -41 342 -41 372 -67.5 c 128,-1,9
 402 -94 402 -94 431.5 -121 c 128,-1,10
 461 -148 461 -148 497 -167 c 128,-1,11
 533 -186 533 -186 570 -186 c 0,12,13
 632 -186 632 -186 671.5 -139 c 128,-1,14
 711 -92 711 -92 711 -29 c 1,15,16
 714 -3 714 -3 726 -3 c 128,-1,17
 738 -3 738 -3 741 -29 c 1,18,-1
 741 -37 l 2,19,20
 741 -117 741 -117 694 -181.5 c 128,-1,21
 647 -246 647 -246 570 -246 c 0,22,23
 531 -246 531 -246 493.5 -227 c 128,-1,24
 456 -208 456 -208 426 -181 c 128,-1,25
 396 -154 396 -154 366.5 -127.5 c 128,-1,26
 337 -101 337 -101 301 -82 c 128,-1,27
 265 -63 265 -63 228 -63 c 0,28,29
 167 -63 167 -63 127 -110.5 c 128,-1,30
 87 -158 87 -158 87 -220 c 1,31,0
 84 -246 84 -246 72 -246 c 128,-1,1
108 149 m 0,32,33
 86 149 86 149 86 173 c 1,34,35
 108 391 108 391 417 451 c 1,36,37
 108 509 108 509 86 729 c 0,38,39
 86 738 86 738 92 745 c 128,-1,40
 98 752 98 752 108 752 c 0,41,42
 125 752 125 752 129 733 c 1,43,44
 134 682 134 682 159 641 c 128,-1,45
 184 600 184 600 218.5 573.5 c 128,-1,46
 253 547 253 547 303.5 527 c 128,-1,47
 354 507 354 507 400 497 c 128,-1,48
 446 487 446 487 504.5 481 c 128,-1,49
 563 475 563 475 603.5 473.5 c 128,-1,50
 644 472 644 472 693 472 c 1,51,52
 712 468 712 468 712 451 c 0,53,54
 712 433 712 433 693 429 c 1,55,56
 644 429 644 429 603.5 427.5 c 128,-1,57
 563 426 563 426 504 420 c 128,-1,58
 445 414 445 414 399 404 c 128,-1,59
 353 394 353 394 303 374 c 128,-1,60
 253 354 253 354 218.5 327.5 c 128,-1,61
 184 301 184 301 159 260.5 c 128,-1,62
 134 220 134 220 129 169 c 1,63,64
 125 149 125 149 108 149 c 0,32,33
EndSplineSet
Validated: 1
EndChar

StartChar: squareimage
Encoding: 8847 8847 16
Width: 818
Flags: W
HStem: -53 44<132 729.98> 520 44<132 729.98>
VStem: 88 44<-9 520>
LayerCount: 2
Fore
SplineSet
88 -34 m 1,0,-1
 88 545 l 2,1,2
 88 560 88 560 109 564 c 1,3,-1
 710 564 l 1,4,5
 730 560 730 560 730 543 c 0,6,7
 730 524 730 524 710 520 c 1,8,-1
 132 520 l 1,9,-1
 132 -9 l 1,10,-1
 710 -9 l 1,11,12
 730 -13 730 -13 730 -32 c 0,13,14
 730 -49 730 -49 710 -53 c 1,15,-1
 109 -53 l 2,16,17
 92 -53 92 -53 88 -34 c 1,0,-1
EndSplineSet
Validated: 19457
EndChar

StartChar: triangle
Encoding: 9651 9651 17
Width: 743
Flags: W
HStem: -23 46<144 599>
LayerCount: 2
Fore
SplineSet
108 -23 m 1,0,1
 88 -18 88 -18 88 0 c 0,2,3
 88 6 88 6 89 8 c 2,4,-1
 351 578 l 2,5,6
 358 592 358 592 372 592 c 0,7,8
 385 592 385 592 392 578 c 2,9,-1
 654 8 l 2,10,11
 655 6 655 6 655 0 c 0,12,13
 655 -18 655 -18 636 -23 c 1,14,-1
 108 -23 l 1,0,1
144 23 m 1,15,-1
 599 23 l 1,16,-1
 372 517 l 1,17,-1
 144 23 l 1,15,-1
EndSplineSet
Validated: 19457
EndChar

StartChar: nand
Encoding: 8892 8892 18
Width: 643
Flags: W
HStem: 0 21G<76.5 87.5 554.5 566> 689 44<58.0205 583.98>
VStem: 58 41<0.171875 11> 542 42<0.0427246 14>
LayerCount: 2
Fore
SplineSet
58 23 m 0,0,1
 58 28 58 28 61 34 c 2,2,-1
 303 515 l 2,3,4
 308 525 308 525 322 525 c 0,5,6
 335 525 335 525 342 512 c 2,7,-1
 583 31 l 2,8,9
 584 28 584 28 584 23 c 0,10,11
 584 14 584 14 577 7 c 128,-1,12
 570 0 570 0 562 0 c 0,13,14
 547 0 547 0 542 14 c 1,15,-1
 322 455 l 1,16,-1
 99 11 l 2,17,18
 94 0 94 0 81 0 c 0,19,20
 72 0 72 0 65 7 c 128,-1,21
 58 14 58 14 58 23 c 0,0,1
79 689 m 1,22,23
 58 693 58 693 58 712 c 0,24,25
 58 729 58 729 79 733 c 1,26,-1
 564 733 l 1,27,28
 584 729 584 729 584 712 c 0,29,30
 584 693 584 693 564 689 c 1,31,-1
 79 689 l 1,22,23
EndSplineSet
Validated: 19457
EndChar

StartChar: multiopenright
Encoding: 8908 8908 19
Width: 818
Flags: W
HStem: 691 20G<731.5 740.5>
LayerCount: 2
Fore
SplineSet
81 -23 m 0,0,1
 72 -23 72 -23 65 -16 c 128,-1,2
 58 -9 58 -9 58 -1 c 0,3,4
 58 6 58 6 65 15 c 1,5,-1
 721 705 l 2,6,7
 727 711 727 711 736 711 c 128,-1,8
 745 711 745 711 752 704 c 128,-1,9
 759 697 759 697 759 689 c 0,10,11
 759 680 759 680 753 674 c 2,12,-1
 439 344 l 1,13,-1
 753 15 l 2,14,15
 759 8 759 8 759 -1 c 0,16,17
 759 -9 759 -9 752 -16 c 128,-1,18
 745 -23 745 -23 736 -23 c 0,19,20
 728 -23 728 -23 721 -16 c 2,21,-1
 409 312 l 1,22,-1
 96 -16 l 2,23,24
 89 -23 89 -23 81 -23 c 0,0,1
EndSplineSet
Validated: 19457
EndChar

StartChar: revasymptequal
Encoding: 8909 8909 20
Width: 818
Flags: W
HStem: 26 44<58.0205 758.98> 255 61<156.955 316.614> 423 61<500.386 660.781>
VStem: 58 31<394.781 483.975> 728 31<255.026 345.058>
LayerCount: 2
Fore
SplineSet
79 26 m 1,0,1
 58 30 58 30 58 47 c 128,-1,2
 58 64 58 64 79 70 c 1,3,-1
 739 70 l 1,4,5
 759 64 759 64 759 47 c 128,-1,6
 759 30 759 30 739 26 c 1,7,-1
 79 26 l 1,0,1
233 255 m 0,8,9
 158 255 158 255 108 314 c 128,-1,10
 58 373 58 373 58 450 c 2,11,-1
 58 458 l 1,12,13
 61 484 61 484 74 484 c 0,14,15
 86 484 86 484 89 458 c 1,16,17
 89 400 89 400 132 358 c 128,-1,18
 175 316 175 316 233 316 c 0,19,20
 270 316 270 316 307 333.5 c 128,-1,21
 344 351 344 351 375.5 375.5 c 128,-1,22
 407 400 407 400 438 424.5 c 128,-1,23
 469 449 469 449 507 466.5 c 128,-1,24
 545 484 545 484 584 484 c 0,25,26
 659 484 659 484 709 425.5 c 128,-1,27
 759 367 759 367 759 290 c 2,28,-1
 759 282 l 1,29,30
 756 255 756 255 743 255 c 0,31,32
 731 255 731 255 728 282 c 1,33,34
 728 340 728 340 685 381.5 c 128,-1,35
 642 423 642 423 584 423 c 0,36,37
 547 423 547 423 510 405.5 c 128,-1,38
 473 388 473 388 441.5 363.5 c 128,-1,39
 410 339 410 339 379 314.5 c 128,-1,40
 348 290 348 290 310 272.5 c 128,-1,41
 272 255 272 255 233 255 c 0,8,9
EndSplineSet
Validated: 19457
EndChar

StartChar: forces
Encoding: 8873 8873 21
Width: 759
Flags: W
HStem: 0 21G<71.5 89.5 279.5 297.5> 334 44<310 699.995> 691 20G<71.5 89.5 279.5 297.5>
VStem: 58 44<0.0195312 710.98> 266 44<0.0195312 334 378 710.98>
LayerCount: 2
Fore
SplineSet
58 20 m 1,0,-1
 58 691 l 1,1,2
 62 711 62 711 81 711 c 0,3,4
 98 711 98 711 102 691 c 1,5,-1
 102 20 l 1,6,7
 98 0 98 0 81 0 c 0,8,9
 62 0 62 0 58 20 c 1,0,-1
266 20 m 1,10,-1
 266 691 l 1,11,12
 270 711 270 711 289 711 c 0,13,14
 306 711 306 711 310 691 c 1,15,-1
 310 378 l 1,16,-1
 681 378 l 1,17,18
 700 374 700 374 700 356 c 128,-1,19
 700 338 700 338 681 334 c 1,20,-1
 310 334 l 1,21,-1
 310 20 l 1,22,23
 306 0 306 0 289 0 c 0,24,25
 270 0 270 0 266 20 c 1,10,-1
EndSplineSet
Validated: 19457
EndChar

StartChar: arrowtailright
Encoding: 8611 8611 22
Width: 1169
Flags: W
HStem: 233 45<201.172 1020>
LayerCount: 2
Fore
SplineSet
76 85 m 1,0,1
 112 174 112 174 179 233 c 1,2,-1
 179 278 l 1,3,4
 112 337 112 337 76 426 c 1,5,-1
 112 426 l 1,6,7
 149 333 149 333 230 278 c 1,8,-1
 1020 278 l 1,9,10
 951 341 951 341 916 426 c 1,11,-1
 952 426 l 1,12,13
 999 310 999 310 1110 256 c 1,14,15
 999 200 999 200 952 85 c 1,16,-1
 916 85 l 1,17,18
 951 170 951 170 1020 233 c 1,19,-1
 230 233 l 1,20,21
 149 178 149 178 112 85 c 1,22,-1
 76 85 l 1,0,1
EndSplineSet
Validated: 19457
EndChar

StartChar: leqq
Encoding: 8806 8806 23
Width: 818
Flags: W
HStem: -197 44<88.0051 728.995> 11 44<88.0051 728.995> 175 41<719 728.841> 751 42<716 728.96>
LayerCount: 2
Fore
SplineSet
109 -197 m 1,0,1
 88 -193 88 -193 88 -175 c 128,-1,2
 88 -157 88 -157 109 -153 c 1,3,-1
 710 -153 l 1,4,5
 729 -157 729 -157 729 -175 c 128,-1,6
 729 -193 729 -193 710 -197 c 1,7,-1
 109 -197 l 1,0,1
109 11 m 1,8,9
 88 15 88 15 88 33 c 128,-1,10
 88 51 88 51 109 55 c 1,11,-1
 710 55 l 1,12,13
 729 51 729 51 729 33 c 128,-1,14
 729 15 729 15 710 11 c 1,15,-1
 109 11 l 1,8,9
99 465 m 2,16,17
 88 470 88 470 88 484 c 128,-1,18
 88 498 88 498 102 505 c 2,19,-1
 699 792 l 2,20,21
 701 793 701 793 708 793 c 0,22,23
 716 793 716 793 722.5 786 c 128,-1,24
 729 779 729 779 729 771 c 0,25,26
 729 757 729 757 716 751 c 2,27,-1
 161 484 l 1,28,-1
 719 216 l 2,29,30
 729 211 729 211 729 198 c 0,31,32
 729 189 729 189 722.5 182 c 128,-1,33
 716 175 716 175 708 175 c 0,34,35
 701 175 701 175 699 177 c 2,36,-1
 99 465 l 2,16,17
EndSplineSet
Validated: 19457
EndChar

StartChar: triangleright
Encoding: 8882 8882 24
Width: 818
Flags: W
VStem: 88 44<4 507>
LayerCount: 2
Fore
SplineSet
88 -34 m 1,0,-1
 88 545 l 1,1,2
 92 564 92 564 111 564 c 0,3,4
 116 564 116 564 119 563 c 2,5,-1
 716 276 l 2,6,7
 730 269 730 269 730 256 c 0,8,9
 730 242 730 242 719 237 c 2,10,-1
 119 -52 l 2,11,12
 116 -53 116 -53 111 -53 c 0,13,14
 92 -53 92 -53 88 -34 c 1,0,-1
132 4 m 1,15,-1
 656 256 l 1,16,-1
 132 507 l 1,17,-1
 132 4 l 1,15,-1
EndSplineSet
Validated: 19457
EndChar

StartChar: triangleinv
Encoding: 9661 9661 25
Width: 743
Flags: W
HStem: 548 44<144 599>
LayerCount: 2
Fore
SplineSet
351 -8 m 2,0,-1
 89 561 l 2,1,2
 88 563 88 563 88 569 c 0,3,4
 88 587 88 587 108 592 c 1,5,-1
 636 592 l 1,6,7
 655 587 655 587 655 569 c 0,8,9
 655 563 655 563 654 561 c 2,10,-1
 392 -8 l 2,11,12
 384 -23 384 -23 372 -23 c 0,13,14
 358 -23 358 -23 351 -8 c 2,0,-1
372 52 m 1,15,-1
 599 548 l 1,16,-1
 144 548 l 1,17,-1
 372 52 l 1,15,-1
EndSplineSet
Validated: 19457
EndChar

StartChar: measuredangle
Encoding: 8737 8737 26
Width: 759
Flags: W
HStem: 0 44<129 414 461 699.981>
VStem: 414 45<44 143.438>
LayerCount: 2
Fore
SplineSet
79 0 m 1,0,1
 58 4 58 4 58 23 c 0,2,3
 58 29 58 29 65 38 c 2,4,-1
 664 727 l 2,5,6
 668 733 668 733 679 733 c 0,7,8
 687 733 687 733 693.5 726.5 c 128,-1,9
 700 720 700 720 700 711 c 0,10,11
 700 701 700 701 694 695 c 2,12,-1
 350 299 l 1,13,14
 392 249 392 249 425.5 175 c 128,-1,15
 459 101 459 101 459 44 c 1,16,-1
 681 44 l 1,17,18
 700 40 700 40 700 23 c 0,19,20
 700 4 700 4 681 0 c 1,21,-1
 461 0 l 1,22,23
 461 -9 461 -9 454 -16 c 128,-1,24
 447 -23 447 -23 438 -23 c 0,25,26
 421 -23 421 -23 416 0 c 1,27,-1
 79 0 l 1,0,1
129 44 m 1,28,-1
 414 44 l 1,29,30
 402 169 402 169 321 265 c 1,31,-1
 129 44 l 1,28,-1
EndSplineSet
Validated: 19457
EndChar

StartChar: superseteq
Encoding: 8839 8839 27
Width: 799
VWidth: 1000
Flags: W
HStem: -154 43<86.0085 689.992> 49 43<86.0085 508.247> 609 43<86.0085 507.711>
VStem: 669 43<249.403 451.52>
LayerCount: 2
Fore
SplineSet
397 609 m 2,0,-1
 121 609 l 2,1,2
 86 609 86 609 86 631 c 0,3,4
 86 652 86 652 121 652 c 2,5,-1
 401 652 l 2,6,7
 526 652 526 652 619 565 c 128,-1,8
 712 478 712 478 712 350 c 0,9,10
 712 224 712 224 619.5 136.5 c 128,-1,11
 527 49 527 49 401 49 c 2,12,-1
 121 49 l 2,13,14
 86 49 86 49 86 71 c 0,15,16
 86 92 86 92 121 92 c 2,17,-1
 397 92 l 2,18,19
 511 92 511 92 590 167.5 c 128,-1,20
 669 243 669 243 669 351 c 0,21,22
 669 457 669 457 590.5 533 c 128,-1,23
 512 609 512 609 397 609 c 2,0,-1
656 -154 m 2,24,-1
 121 -154 l 2,25,26
 86 -154 86 -154 86 -132 c 0,27,28
 86 -111 86 -111 121 -111 c 2,29,-1
 656 -111 l 2,30,31
 690 -111 690 -111 690 -133 c 0,32,33
 690 -154 690 -154 656 -154 c 2,24,-1
EndSplineSet
Validated: 19457
EndChar

StartChar: therefore
Encoding: 8756 8756 28
Width: 701
Flags: W
HStem: -80 115<48.0175 127.467 572.017 652.467> 374 114<310.017 390.467>
VStem: 31 114<-62.9825 17.467> 293 115<391.017 470.467> 555 115<-62.9825 17.467>
LayerCount: 2
Fore
SplineSet
31 -23 m 128,-1,1
 31 1 31 1 47.5 18 c 128,-1,2
 64 35 64 35 88 35 c 0,3,4
 111 35 111 35 128 17.5 c 128,-1,5
 145 0 145 0 145 -23 c 0,6,7
 145 -47 145 -47 128 -63.5 c 128,-1,8
 111 -80 111 -80 88 -80 c 0,9,10
 64 -80 64 -80 47.5 -63.5 c 128,-1,0
 31 -47 31 -47 31 -23 c 128,-1,1
555 -23 m 128,-1,12
 555 1 555 1 571.5 18 c 128,-1,13
 588 35 588 35 612 35 c 0,14,15
 635 35 635 35 652.5 17.5 c 128,-1,16
 670 0 670 0 670 -23 c 0,17,18
 670 -47 670 -47 653 -63.5 c 128,-1,19
 636 -80 636 -80 612 -80 c 128,-1,20
 588 -80 588 -80 571.5 -63.5 c 128,-1,11
 555 -47 555 -47 555 -23 c 128,-1,12
293 431 m 0,21,22
 293 454 293 454 309.5 471 c 128,-1,23
 326 488 326 488 350 488 c 0,24,25
 373 488 373 488 390.5 471 c 128,-1,26
 408 454 408 454 408 431 c 0,27,28
 408 407 408 407 391 390.5 c 128,-1,29
 374 374 374 374 350 374 c 128,-1,30
 326 374 326 374 309.5 390.5 c 128,-1,31
 293 407 293 407 293 431 c 0,21,22
EndSplineSet
Validated: 19457
EndChar

StartChar: rightanglese
Encoding: 9496 9496 29
Width: 525
Flags: W
HStem: -23 45<58.0051 423>
VStem: 423 44<22 385.98>
LayerCount: 2
Fore
SplineSet
79 -23 m 1,0,1
 58 -19 58 -19 58 -1 c 0,2,3
 58 18 58 18 79 22 c 1,4,-1
 423 22 l 1,5,-1
 423 366 l 1,6,7
 427 386 427 386 444 386 c 0,8,9
 463 386 463 386 467 366 c 1,10,-1
 467 -3 l 2,11,12
 467 -10 467 -10 460.5 -15.5 c 128,-1,13
 454 -21 454 -21 446 -23 c 1,14,-1
 79 -23 l 1,0,1
EndSplineSet
Validated: 19457
EndChar

StartChar: squareplus
Encoding: 8862 8862 30
Width: 818
Flags: W
HStem: 0 44<102 387 431 715> 340 44<102 387 431 715> 679 44<102 387 431 715>
VStem: 58 44<44 340 384 679> 387 44<44 340 384 679> 715 44<44 340 384 679>
LayerCount: 2
Fore
SplineSet
58 20 m 2,0,-1
 58 703 l 1,1,2
 60 711 60 711 65.5 717 c 128,-1,3
 71 723 71 723 79 723 c 2,4,-1
 739 723 l 1,5,6
 746 721 746 721 752.5 715.5 c 128,-1,7
 759 710 759 710 759 703 c 2,8,-1
 759 20 l 1,9,10
 755 0 755 0 739 0 c 2,11,-1
 79 0 l 1,12,13
 58 4 58 4 58 20 c 2,0,-1
102 44 m 1,14,-1
 387 44 l 1,15,-1
 387 340 l 1,16,-1
 102 340 l 1,17,-1
 102 44 l 1,14,-1
431 44 m 1,18,-1
 715 44 l 1,19,-1
 715 340 l 1,20,-1
 431 340 l 1,21,-1
 431 44 l 1,18,-1
102 384 m 1,22,-1
 387 384 l 1,23,-1
 387 679 l 1,24,-1
 102 679 l 1,25,-1
 102 384 l 1,22,-1
431 384 m 1,26,-1
 715 384 l 1,27,-1
 715 679 l 1,28,-1
 431 679 l 1,29,-1
 431 384 l 1,26,-1
EndSplineSet
Validated: 19457
EndChar

StartChar: satisfies
Encoding: 8872 8872 31
Width: 643
Flags: W
HStem: 0 21G<71.5 89.5> 230 44<102 583.98> 438 44<102 583.98> 691 20G<71.5 89.5>
VStem: 58 44<0.0195312 230 274 438 482 710.98>
LayerCount: 2
Fore
SplineSet
58 20 m 1,0,-1
 58 691 l 1,1,2
 62 711 62 711 81 711 c 0,3,4
 98 711 98 711 102 691 c 1,5,-1
 102 482 l 1,6,-1
 564 482 l 1,7,8
 584 478 584 478 584 461 c 0,9,10
 584 442 584 442 564 438 c 1,11,-1
 102 438 l 1,12,-1
 102 274 l 1,13,-1
 564 274 l 1,14,15
 584 270 584 270 584 253 c 0,16,17
 584 234 584 234 564 230 c 1,18,-1
 102 230 l 1,19,-1
 102 20 l 1,20,21
 98 0 98 0 81 0 c 0,22,23
 62 0 62 0 58 20 c 1,0,-1
EndSplineSet
Validated: 19457
EndChar

StartChar: arrowparrleftright
Encoding: 8646 8646 32
Width: 1051
Flags: W
HStem: -1 21G<800 859.5> 147 44<64.704 903> 489 45<148 986.812>
LayerCount: 2
Fore
SplineSet
81 147 m 2,0,1
 71 147 71 147 64.5 154 c 128,-1,2
 58 161 58 161 58 170 c 128,-1,3
 58 179 58 179 64.5 185 c 128,-1,4
 71 191 71 191 81 191 c 2,5,-1
 903 191 l 1,6,7
 836 252 836 252 800 340 c 1,8,-1
 836 340 l 1,9,10
 883 223 883 223 993 170 c 1,11,12
 883 117 883 117 836 -1 c 1,13,-1
 800 -1 l 1,14,15
 836 87 836 87 903 147 c 1,16,-1
 81 147 l 2,0,1
216 340 m 1,17,18
 169 457 169 457 58 511 c 1,19,20
 169 565 169 565 216 682 c 1,21,-1
 252 682 l 1,22,23
 217 595 217 595 148 534 c 1,24,-1
 972 534 l 2,25,26
 981 534 981 534 987 527 c 128,-1,27
 993 520 993 520 993 511 c 128,-1,28
 993 502 993 502 987 495.5 c 128,-1,29
 981 489 981 489 972 489 c 2,30,-1
 148 489 l 1,31,32
 217 426 217 426 252 340 c 1,33,-1
 216 340 l 1,17,18
EndSplineSet
Validated: 19457
EndChar

StartChar: because
Encoding: 8757 8757 33
Width: 701
Flags: W
HStem: -80 115<310.017 390.467> 374 114<48.0175 127.467 572.017 652.467>
VStem: 31 114<391.017 470.467> 293 115<-62.9825 17.467> 555 115<391.017 470.467>
LayerCount: 2
Fore
SplineSet
293 -23 m 128,-1,1
 293 1 293 1 309.5 18 c 128,-1,2
 326 35 326 35 350 35 c 0,3,4
 373 35 373 35 390.5 17.5 c 128,-1,5
 408 0 408 0 408 -23 c 0,6,7
 408 -47 408 -47 391 -63.5 c 128,-1,8
 374 -80 374 -80 350 -80 c 128,-1,9
 326 -80 326 -80 309.5 -63.5 c 128,-1,0
 293 -47 293 -47 293 -23 c 128,-1,1
31 431 m 0,10,11
 31 454 31 454 47.5 471 c 128,-1,12
 64 488 64 488 88 488 c 0,13,14
 111 488 111 488 128 471 c 128,-1,15
 145 454 145 454 145 431 c 0,16,17
 145 407 145 407 128 390.5 c 128,-1,18
 111 374 111 374 88 374 c 0,19,20
 64 374 64 374 47.5 390.5 c 128,-1,21
 31 407 31 407 31 431 c 0,10,11
555 431 m 0,22,23
 555 454 555 454 571.5 471 c 128,-1,24
 588 488 588 488 612 488 c 0,25,26
 635 488 635 488 652.5 471 c 128,-1,27
 670 454 670 454 670 431 c 0,28,29
 670 407 670 407 653 390.5 c 128,-1,30
 636 374 636 374 612 374 c 128,-1,31
 588 374 588 374 571.5 390.5 c 128,-1,32
 555 407 555 407 555 431 c 0,22,23
EndSplineSet
Validated: 19457
EndChar

StartChar: lessorgreater
Encoding: 8822 8822 34
Width: 818
Flags: W
HStem: -276 42<44.0032 57> 236 42<44.0397 57> 698 20G<749 756.5>
LayerCount: 2
Fore
SplineSet
44 -255 m 0,0,1
 44 -239 44 -239 57 -234 c 2,2,-1
 688 1 l 1,3,-1
 57 236 l 2,4,5
 44 241 44 241 44 256 c 0,6,7
 44 264 44 264 50.5 271 c 128,-1,8
 57 278 57 278 66 278 c 0,9,10
 68 278 68 278 70.5 277 c 128,-1,11
 73 276 73 276 74 276 c 2,12,-1
 760 22 l 1,13,14
 773 16 773 16 773 1 c 128,-1,15
 773 -14 773 -14 760 -20 c 1,16,-1
 73 -275 l 2,17,18
 71 -276 71 -276 66 -276 c 0,19,20
 57 -276 57 -276 50.5 -269.5 c 128,-1,21
 44 -263 44 -263 44 -255 c 0,0,1
57 421 m 2,22,23
 44 426 44 426 44 441 c 128,-1,24
 44 456 44 456 57 462 c 1,25,-1
 744 717 l 2,26,27
 746 718 746 718 752 718 c 0,28,29
 761 718 761 718 767 711.5 c 128,-1,30
 773 705 773 705 773 696 c 0,31,32
 773 681 773 681 760 676 c 2,33,-1
 129 441 l 1,34,-1
 760 207 l 1,35,36
 773 200 773 200 773 186 c 0,37,38
 773 177 773 177 767 170.5 c 128,-1,39
 761 164 761 164 752 164 c 0,40,41
 747 164 747 164 743 166 c 2,42,-1
 57 421 l 2,22,23
EndSplineSet
Validated: 19457
EndChar

StartChar: trianglerightequal
Encoding: 8885 8885 35
Width: 818
Flags: W
HStem: -158 44<88.0051 729.995> 649 20G<101.5 113.5>
VStem: 88 44<108 610>
LayerCount: 2
Fore
SplineSet
109 -158 m 1,0,1
 88 -154 88 -154 88 -136 c 128,-1,2
 88 -118 88 -118 109 -114 c 1,3,-1
 710 -114 l 1,4,5
 730 -118 730 -118 730 -136 c 128,-1,6
 730 -154 730 -154 710 -158 c 1,7,-1
 109 -158 l 1,0,1
88 71 m 1,8,-1
 88 649 l 1,9,10
 92 669 92 669 111 669 c 0,11,12
 116 669 116 669 119 668 c 2,13,-1
 716 381 l 2,14,15
 730 374 730 374 730 360 c 128,-1,16
 730 346 730 346 719 341 c 2,17,-1
 119 52 l 2,18,19
 116 51 116 51 111 51 c 0,20,21
 92 51 92 51 88 71 c 1,8,-1
132 108 m 1,22,-1
 656 359 l 1,23,-1
 132 610 l 1,24,-1
 132 108 l 1,22,-1
EndSplineSet
Validated: 19457
EndChar

StartChar: lessequalgreater
Encoding: 8922 8922 36
Width: 796
Flags: W
HStem: 232 44<88.0205 707.979>
LayerCount: 2
Fore
SplineSet
88 -193 m 0,0,1
 88 -178 88 -178 102 -173 c 1,2,-1
 625 -38 l 1,3,-1
 102 97 l 2,4,5
 88 100 88 100 88 117 c 0,6,7
 88 125 88 125 95 132 c 128,-1,8
 102 139 102 139 111 139 c 0,9,10
 116 139 116 139 119 138 c 2,11,-1
 693 -18 l 1,12,13
 708 -24 708 -24 708 -38 c 0,14,15
 708 -55 708 -55 693 -59 c 2,16,-1
 117 -214 l 2,17,18
 115 -215 115 -215 111 -215 c 0,19,20
 102 -215 102 -215 95 -208 c 128,-1,21
 88 -201 88 -201 88 -193 c 0,0,1
109 232 m 1,22,23
 88 236 88 236 88 255 c 0,24,25
 88 272 88 272 109 276 c 1,26,-1
 687 276 l 1,27,28
 708 272 708 272 708 255 c 0,29,30
 708 236 708 236 687 232 c 1,31,-1
 109 232 l 1,22,23
102 527 m 1,32,33
 88 532 88 532 88 547 c 0,34,35
 88 565 88 565 102 568 c 2,36,-1
 679 723 l 2,37,38
 681 724 681 724 685 724 c 0,39,40
 694 724 694 724 701 717 c 128,-1,41
 708 710 708 710 708 702 c 0,42,43
 708 688 708 688 693 682 c 1,44,-1
 171 547 l 1,45,-1
 693 413 l 2,46,47
 708 410 708 410 708 393 c 0,48,49
 708 384 708 384 701 377 c 128,-1,50
 694 370 694 370 685 370 c 0,51,52
 683 370 683 370 677 372 c 2,53,-1
 102 527 l 1,32,33
EndSplineSet
Validated: 19457
EndChar

StartChar: geomequivalent
Encoding: 8782 8782 37
Width: 818
Flags: W
HStem: -2 44<344.882 472.867> 130 44<58.0051 261.248 555.77 758.995> 338 44<58.0205 261.715 555.306 758.98> 469 44<344.882 472.867>
LayerCount: 2
Fore
SplineSet
79 130 m 1,0,1
 58 134 58 134 58 152 c 0,2,3
 58 168 58 168 79 174 c 1,4,-1
 280 174 l 2,5,6
 295 174 295 174 299 154 c 1,7,8
 299 109 299 109 331.5 75.5 c 128,-1,9
 364 42 364 42 409 42 c 128,-1,10
 454 42 454 42 486 75.5 c 128,-1,11
 518 109 518 109 518 154 c 0,12,13
 518 167 518 167 538 174 c 1,14,-1
 739 174 l 1,15,16
 759 168 759 168 759 152 c 0,17,18
 759 134 759 134 739 130 c 1,19,-1
 560 130 l 1,20,21
 552 74 552 74 509 36 c 128,-1,22
 466 -2 466 -2 409 -2 c 128,-1,23
 352 -2 352 -2 308.5 36 c 128,-1,24
 265 74 265 74 257 130 c 1,25,-1
 79 130 l 1,0,1
79 338 m 1,26,27
 58 342 58 342 58 359 c 128,-1,28
 58 376 58 376 79 382 c 1,29,-1
 257 382 l 1,30,31
 265 438 265 438 308.5 475.5 c 128,-1,32
 352 513 352 513 409 513 c 128,-1,33
 466 513 466 513 509 475.5 c 128,-1,34
 552 438 552 438 560 382 c 1,35,-1
 739 382 l 1,36,37
 759 376 759 376 759 359 c 128,-1,38
 759 342 759 342 739 338 c 1,39,-1
 538 338 l 2,40,41
 522 338 522 338 518 357 c 1,42,43
 518 402 518 402 486 435.5 c 128,-1,44
 454 469 454 469 409 469 c 128,-1,45
 364 469 364 469 331.5 435.5 c 128,-1,46
 299 402 299 402 299 357 c 0,47,48
 299 342 299 342 280 338 c 1,49,-1
 79 338 l 1,26,27
EndSplineSet
Validated: 19457
EndChar

StartChar: complement
Encoding: 8705 8705 38
Width: 525
Flags: W
HStem: -23 89<171.453 355.109> 779 88<172.058 353.55>
VStem: 58 88<91.179 732> 379 88<113 281.75 563.25 753.93>
LayerCount: 2
Fore
SplineSet
58 124 m 2,0,-1
 58 721 l 2,1,2
 58 758 58 758 77 787 c 128,-1,3
 96 816 96 816 126.5 833 c 128,-1,4
 157 850 157 850 191.5 858.5 c 128,-1,5
 226 867 226 867 260 867 c 2,6,-1
 265 867 l 2,7,8
 299 867 299 867 333.5 858.5 c 128,-1,9
 368 850 368 850 398.5 833 c 128,-1,10
 429 816 429 816 448 787 c 128,-1,11
 467 758 467 758 467 721 c 2,12,-1
 467 599 l 1,13,14
 462 562 462 562 425 557 c 1,15,-1
 420 557 l 1,16,17
 384 562 384 562 379 599 c 1,18,-1
 379 716 l 2,19,20
 379 739 379 739 357 754.5 c 128,-1,21
 335 770 335 770 311 774.5 c 128,-1,22
 287 779 287 779 263 779 c 0,23,24
 188 779 188 779 156 743 c 0,25,26
 151 738 151 738 148 732 c 1,27,-1
 146 724 l 1,28,-1
 146 716 l 1,29,-1
 146 129 l 2,30,31
 146 106 146 106 168 90.5 c 128,-1,32
 190 75 190 75 214.5 70.5 c 128,-1,33
 239 66 239 66 263 66 c 0,34,35
 339 66 339 66 370 101 c 0,36,37
 372 103 372 103 377 113 c 1,38,-1
 379 121 l 1,39,-1
 379 129 l 1,40,-1
 379 246 l 1,41,42
 384 283 384 283 420 288 c 1,43,-1
 425 288 l 1,44,45
 462 283 462 283 467 246 c 1,46,-1
 467 124 l 2,47,48
 467 76 467 76 434 41 c 128,-1,49
 401 6 401 6 356.5 -8.5 c 128,-1,50
 312 -23 312 -23 265 -23 c 2,51,-1
 260 -23 l 2,52,53
 213 -23 213 -23 168.5 -8.5 c 128,-1,54
 124 6 124 6 91 41 c 128,-1,55
 58 76 58 76 58 124 c 2,0,-1
EndSplineSet
Validated: 19457
EndChar

StartChar: square
Encoding: 9633 9633 39
Width: 818
Flags: W
HStem: 0 44<102 715> 679 44<102 715>
VStem: 58 44<44 679> 715 44<44 679>
LayerCount: 2
Fore
SplineSet
58 20 m 1,0,-1
 58 703 l 2,1,2
 58 710 58 710 64.5 715.5 c 128,-1,3
 71 721 71 721 79 723 c 1,4,-1
 739 723 l 2,5,6
 746 723 746 723 751.5 716.5 c 128,-1,7
 757 710 757 710 759 703 c 1,8,-1
 759 20 l 2,9,10
 759 4 759 4 739 0 c 1,11,-1
 79 0 l 2,12,13
 62 0 62 0 58 20 c 1,0,-1
102 44 m 1,14,-1
 715 44 l 1,15,-1
 715 679 l 1,16,-1
 102 679 l 1,17,-1
 102 44 l 1,14,-1
EndSplineSet
Validated: 19457
EndChar

StartChar: dblarrowheadleft
Encoding: 8606 8606 40
Width: 1051
Flags: W
HStem: 233 45<148 318.898 342 986.812>
LayerCount: 2
Fore
SplineSet
216 85 m 1,0,1
 169 200 169 200 58 256 c 1,2,3
 169 310 169 310 216 426 c 1,4,-1
 252 426 l 1,5,6
 217 341 217 341 148 278 c 1,7,-1
 290 278 l 1,8,9
 371 332 371 332 410 426 c 1,10,-1
 445 426 l 1,11,12
 409 339 409 339 342 278 c 1,13,-1
 972 278 l 2,14,15
 981 278 981 278 987 271.5 c 128,-1,16
 993 265 993 265 993 256 c 0,17,18
 993 246 993 246 987 239.5 c 128,-1,19
 981 233 981 233 972 233 c 2,20,-1
 342 233 l 1,21,22
 409 172 409 172 445 85 c 1,23,-1
 410 85 l 1,24,25
 371 179 371 179 290 233 c 1,26,-1
 148 233 l 1,27,28
 217 170 217 170 252 85 c 1,29,-1
 216 85 l 1,0,1
EndSplineSet
Validated: 19457
EndChar

StartChar: northwestarrow
Encoding: 8598 8598 41
Width: 1027
VWidth: 1000
Flags: W
HStem: 640 30<139.197 275.334>
VStem: 55 43.5<429.462 515.254> 81 30<476.435 611.803>
LayerCount: 2
Fore
SplineSet
927 -206 m 2,0,-1
 107 613 l 1,1,2
 111 587 111 587 111 565 c 0,3,4
 111 524 111 524 98.5 476 c 128,-1,5
 86 428 86 428 72 428 c 0,6,7
 66 428 66 428 60.5 433.5 c 128,-1,8
 55 439 55 439 55 445 c 0,9,10
 55 449 55 449 62 465 c 0,11,12
 81 512 81 512 81 566 c 0,13,14
 81 619 81 619 62 667 c 0,15,16
 57 680 57 680 57 681 c 0,17,18
 57 694 57 694 70 694 c 0,19,20
 71 694 71 694 84 689 c 0,21,22
 132 670 132 670 185 670 c 0,23,24
 240 670 240 670 292 691 c 0,25,26
 302 696 302 696 306 696 c 0,27,28
 312 696 312 696 317.5 690.5 c 128,-1,29
 323 685 323 685 323 679 c 0,30,31
 323 665 323 665 275 652.5 c 128,-1,32
 227 640 227 640 186 640 c 0,33,34
 164 640 164 640 138 644 c 1,35,-1
 957 -176 l 2,36,37
 970 -189 970 -189 970 -197 c 0,38,39
 970 -219 970 -219 948 -219 c 0,40,41
 940 -219 940 -219 927 -206 c 2,0,-1
EndSplineSet
Validated: 19457
EndChar

StartChar: defines
Encoding: 8796 8796 42
Width: 818
Flags: W
HStem: 130 44<58.0051 759.995> 338 44<58.0205 759.98> 504 44<243 575>
LayerCount: 2
Fore
SplineSet
79 130 m 1,0,1
 58 134 58 134 58 152 c 0,2,3
 58 168 58 168 79 174 c 1,4,-1
 740 174 l 1,5,6
 760 168 760 168 760 152 c 0,7,8
 760 134 760 134 740 130 c 1,9,-1
 79 130 l 1,0,1
79 338 m 1,10,11
 58 342 58 342 58 359 c 128,-1,12
 58 376 58 376 79 382 c 1,13,-1
 740 382 l 1,14,15
 760 376 760 376 760 359 c 128,-1,16
 760 342 760 342 740 338 c 1,17,-1
 79 338 l 1,10,11
203 504 m 1,18,19
 182 508 182 508 182 525 c 0,20,21
 182 532 182 532 185 537 c 2,22,-1
 390 892 l 1,23,24
 397 902 397 902 410 902 c 0,25,26
 421 902 421 902 428 892 c 1,27,-1
 633 537 l 2,28,29
 636 532 636 532 636 525 c 0,30,31
 636 508 636 508 615 504 c 1,32,-1
 203 504 l 1,18,19
243 548 m 1,33,-1
 575 548 l 1,34,-1
 410 837 l 1,35,-1
 243 548 l 1,33,-1
EndSplineSet
Validated: 19457
EndChar

StartChar: subsetdbl
Encoding: 8912 8912 43
Width: 818
Flags: W
HStem: -53 44<300.045 728.981> 111 44<335.037 728.995> 356 44<335.037 728.981> 520 44<300.045 728.981>
VStem: 88 44<151.42 359.863> 252 44<194.083 317.334>
LayerCount: 2
Fore
SplineSet
88 256 m 0,0,1
 88 384 88 384 182.5 474 c 128,-1,2
 277 564 277 564 407 564 c 2,3,-1
 710 564 l 1,4,5
 729 560 729 560 729 543 c 0,6,7
 729 524 729 524 710 520 c 1,8,-1
 411 520 l 2,9,10
 298 520 298 520 215 444 c 128,-1,11
 132 368 132 368 132 256 c 0,12,13
 132 143 132 143 215 67 c 128,-1,14
 298 -9 298 -9 411 -9 c 2,15,-1
 710 -9 l 1,16,17
 729 -13 729 -13 729 -32 c 0,18,19
 729 -49 729 -49 710 -53 c 1,20,-1
 407 -53 l 2,21,22
 277 -53 277 -53 182.5 37 c 128,-1,23
 88 127 88 127 88 256 c 0,0,1
397 110 m 2,24,25
 337 110 337 110 294.5 153 c 128,-1,26
 252 196 252 196 252 256 c 0,27,28
 252 315 252 315 294.5 358 c 128,-1,29
 337 401 337 401 397 401 c 2,30,-1
 404 401 l 2,31,32
 409 401 409 401 411 400 c 1,33,-1
 710 400 l 1,34,35
 729 396 729 396 729 379 c 0,36,37
 729 360 729 360 710 356 c 1,38,-1
 407 356 l 1,39,40
 406 357 406 357 402 357 c 2,41,-1
 397 357 l 2,42,43
 356 357 356 357 326 327 c 128,-1,44
 296 297 296 297 296 256 c 128,-1,45
 296 215 296 215 326 184.5 c 128,-1,46
 356 154 356 154 397 154 c 2,47,-1
 402 154 l 1,48,-1
 404 154 l 2,49,50
 406 154 406 154 407 155 c 2,51,-1
 710 155 l 1,52,53
 729 151 729 151 729 133 c 128,-1,54
 729 115 729 115 710 111 c 1,55,-1
 411 111 l 2,56,57
 410 111 410 111 407.5 110.5 c 128,-1,58
 405 110 405 110 404 110 c 2,59,-1
 397 110 l 2,24,25
EndSplineSet
Validated: 19457
EndChar

StartChar: ggreater
Encoding: 8811 8811 44
Width: 1027
VWidth: 1000
Flags: W
LayerCount: 2
Fore
SplineSet
637 227 m 2,0,-1
 85 -79 l 1,1,2
 57 -79 57 -79 57 -58 c 0,3,4
 57 -52 57 -52 59 -48 c 128,-1,5
 61 -44 61 -44 64.5 -42 c 128,-1,6
 68 -40 68 -40 77 -35 c 2,7,-1
 591 251 l 1,8,-1
 75 537 l 2,9,10
 57 546 57 546 57 559 c 0,11,12
 57 568 57 568 64 574 c 128,-1,13
 71 580 71 580 78 580 c 0,14,15
 86 580 86 580 96 574 c 2,16,-1
 640 273 l 2,17,18
 657 264 657 264 657 251 c 128,-1,19
 657 238 657 238 637 227 c 2,0,-1
950 227 m 2,20,-1
 398 -79 l 1,21,22
 370 -79 370 -79 370 -58 c 0,23,24
 370 -52 370 -52 372 -48 c 128,-1,25
 374 -44 374 -44 377.5 -42 c 128,-1,26
 381 -40 381 -40 390 -35 c 2,27,-1
 904 251 l 1,28,-1
 388 537 l 2,29,30
 370 546 370 546 370 559 c 0,31,32
 370 568 370 568 377 574 c 128,-1,33
 384 580 384 580 391 580 c 0,34,35
 399 580 399 580 409 574 c 2,36,-1
 953 273 l 2,37,38
 970 264 970 264 970 251 c 128,-1,39
 970 238 970 238 950 227 c 2,20,-1
EndSplineSet
Validated: 3073
EndChar

StartChar: circlering
Encoding: 8858 8858 45
Width: 818
Flags: W
HStem: -96 33<307.454 510.47> 111 44<347.408 470.334> 357 44<347.408 470.334> 574 33<307.454 510.47>
VStem: 58 33<154.108 357.546> 263 44<194.666 317.334> 510 44<194.666 317.334> 726 33<154.108 357.546>
LayerCount: 2
Fore
SplineSet
409 -96 m 128,-1,1
 264 -96 264 -96 161 7 c 128,-1,2
 58 110 58 110 58 256 c 0,3,4
 58 401 58 401 161 504 c 128,-1,5
 264 607 264 607 409 607 c 128,-1,6
 554 607 554 607 656.5 504 c 128,-1,7
 759 401 759 401 759 256 c 0,8,9
 759 110 759 110 656.5 7 c 128,-1,0
 554 -96 554 -96 409 -96 c 128,-1,1
409 -63 m 128,-1,11
 540 -63 540 -63 633 31 c 128,-1,12
 726 125 726 125 726 256 c 128,-1,13
 726 387 726 387 633 480.5 c 128,-1,14
 540 574 540 574 409 574 c 128,-1,15
 278 574 278 574 184.5 480.5 c 128,-1,16
 91 387 91 387 91 256 c 128,-1,17
 91 125 91 125 184.5 31 c 128,-1,10
 278 -63 278 -63 409 -63 c 128,-1,11
263 256 m 128,-1,19
 263 315 263 315 306.5 358 c 128,-1,20
 350 401 350 401 409 401 c 128,-1,21
 468 401 468 401 511 358 c 128,-1,22
 554 315 554 315 554 256 c 128,-1,23
 554 197 554 197 511 154 c 128,-1,24
 468 111 468 111 409 111 c 128,-1,25
 350 111 350 111 306.5 154 c 128,-1,18
 263 197 263 197 263 256 c 128,-1,19
307 256 m 128,-1,27
 307 215 307 215 337.5 185 c 128,-1,28
 368 155 368 155 409 155 c 128,-1,29
 450 155 450 155 480 185 c 128,-1,30
 510 215 510 215 510 256 c 128,-1,31
 510 297 510 297 480 327 c 128,-1,32
 450 357 450 357 409 357 c 128,-1,33
 368 357 368 357 337.5 327 c 128,-1,26
 307 297 307 297 307 256 c 128,-1,27
EndSplineSet
Validated: 19457
EndChar

StartChar: squaresmallsolid
Encoding: 9642 9642 46
Width: 291
Flags: W
HStem: 0 197<58.1282 231.872>
VStem: 58 174<0.12793 196.937>
LayerCount: 2
Fore
SplineSet
58 20 m 1,0,-1
 58 177 l 2,1,2
 58 184 58 184 64.5 189.5 c 128,-1,3
 71 195 71 195 79 197 c 1,4,-1
 213 197 l 2,5,6
 228 197 228 197 232 177 c 1,7,-1
 232 20 l 2,8,9
 232 4 232 4 213 0 c 1,10,-1
 79 0 l 2,11,12
 62 0 62 0 58 20 c 1,0,-1
EndSplineSet
Validated: 19457
EndChar

StartChar: Rightarrow
Encoding: 8658 8658 47
Width: 1027
VWidth: 1000
Flags: W
HStem: 127 43<57.009 692> 331 43<57.009 692>
LayerCount: 2
Fore
SplineSet
721 331 m 2,0,-1
 90 331 l 2,1,2
 57 331 57 331 57 352 c 0,3,4
 57 374 57 374 94 374 c 2,5,-1
 692 374 l 1,6,7
 666 400 666 400 642 434.5 c 128,-1,8
 618 469 618 469 606 491 c 128,-1,9
 594 513 594 513 594 518 c 0,10,11
 594 531 594 531 615 531 c 0,12,13
 626 531 626 531 629.5 528.5 c 128,-1,14
 633 526 633 526 641 513 c 0,15,16
 745 321 745 321 959 263 c 1,17,18
 970 258 970 258 970 250 c 0,19,20
 970 246 970 246 967.5 243 c 128,-1,21
 965 240 965 240 962.5 239 c 128,-1,22
 960 238 960 238 959 238 c 0,23,24
 835 205 835 205 752 131 c 1,25,26
 684 69 684 69 641 -11 c 0,27,28
 633 -25 633 -25 629.5 -27.5 c 128,-1,29
 626 -30 626 -30 615 -30 c 0,30,31
 594 -30 594 -30 594 -17 c 0,32,33
 594 -12 594 -12 606 10 c 128,-1,34
 618 32 618 32 642 66.5 c 128,-1,35
 666 101 666 101 692 127 c 1,36,-1
 94 127 l 2,37,38
 57 127 57 127 57 149 c 0,39,40
 57 170 57 170 90 170 c 2,41,-1
 721 170 l 2,42,43
 739 170 739 170 748 178 c 1,44,45
 811 225 811 225 873 251 c 1,46,47
 809 276 809 276 748 324 c 0,48,49
 739 331 739 331 721 331 c 2,0,-1
EndSplineSet
Validated: 19457
EndChar

StartChar: squiggleright
Encoding: 8669 8669 48
Width: 1051
Flags: W
HStem: 233 45<674 903>
LayerCount: 2
Fore
SplineSet
81 233 m 0,0,1
 72 233 72 233 65 240 c 128,-1,2
 58 247 58 247 58 256 c 0,3,4
 58 264 58 264 65 271 c 2,5,-1
 163 356 l 2,6,7
 169 362 169 362 178 362 c 0,8,9
 186 362 186 362 194 356 c 2,10,-1
 373 200 l 1,11,-1
 552 356 l 2,12,13
 560 362 560 362 567 362 c 0,14,15
 577 362 577 362 583 356 c 2,16,-1
 674 278 l 1,17,-1
 903 278 l 1,18,19
 836 339 836 339 800 426 c 1,20,-1
 836 426 l 1,21,22
 883 309 883 309 993 256 c 1,23,24
 883 201 883 201 836 85 c 1,25,-1
 800 85 l 1,26,27
 836 172 836 172 903 233 c 1,28,-1
 664 233 l 2,29,30
 657 233 657 233 648 242 c 1,31,-1
 567 311 l 1,32,-1
 388 155 l 2,33,34
 381 148 381 148 373 148 c 0,35,36
 364 148 364 148 357 155 c 2,37,-1
 178 311 l 1,38,-1
 96 240 l 2,39,40
 87 233 87 233 81 233 c 0,0,1
EndSplineSet
Validated: 19457
EndChar

StartChar: lessorsimilar
Encoding: 8818 8818 49
Width: 818
Flags: W
HStem: -247 62<502.196 660.315> -69 62<157.34 314.804> 148 41<719 728.841> 724 42<716 728.96>
VStem: 58 31<-246.974 -153.203> 728 31<-101.277 -7.02637>
LayerCount: 2
Fore
SplineSet
74 -247 m 0,0,1
 61 -247 61 -247 58 -220 c 1,2,-1
 58 -212 l 2,3,4
 58 -132 58 -132 107 -69.5 c 128,-1,5
 156 -7 156 -7 233 -7 c 0,6,7
 272 -7 272 -7 310 -25.5 c 128,-1,8
 348 -44 348 -44 379 -70 c 128,-1,9
 410 -96 410 -96 441 -122 c 128,-1,10
 472 -148 472 -148 509 -166.5 c 128,-1,11
 546 -185 546 -185 584 -185 c 0,12,13
 645 -185 645 -185 686.5 -140 c 128,-1,14
 728 -95 728 -95 728 -34 c 1,15,16
 731 -7 731 -7 743 -7 c 0,17,18
 756 -7 756 -7 759 -34 c 1,19,-1
 759 -42 l 2,20,21
 759 -121 759 -121 710.5 -184 c 128,-1,22
 662 -247 662 -247 584 -247 c 0,23,24
 545 -247 545 -247 507 -228.5 c 128,-1,25
 469 -210 469 -210 438 -184 c 128,-1,26
 407 -158 407 -158 376 -132 c 128,-1,27
 345 -106 345 -106 308 -87.5 c 128,-1,28
 271 -69 271 -69 233 -69 c 0,29,30
 173 -69 173 -69 131 -114 c 128,-1,31
 89 -159 89 -159 89 -220 c 1,32,33
 86 -247 86 -247 74 -247 c 0,0,1
99 438 m 2,34,35
 88 443 88 443 88 458 c 0,36,37
 88 471 88 471 102 478 c 2,38,-1
 699 765 l 2,39,40
 701 766 701 766 708 766 c 0,41,42
 716 766 716 766 722.5 759 c 128,-1,43
 729 752 729 752 729 744 c 0,44,45
 729 730 729 730 716 724 c 2,46,-1
 161 458 l 1,47,-1
 719 189 l 2,48,49
 729 184 729 184 729 171 c 0,50,51
 729 162 729 162 722.5 155 c 128,-1,52
 716 148 716 148 708 148 c 0,53,54
 702 148 702 148 699 151 c 1,55,-1
 99 438 l 2,34,35
EndSplineSet
Validated: 19457
EndChar

StartChar: equaldotleftright
Encoding: 8786 8786 50
Width: 818
Flags: W
HStem: -114 115<697.017 782.542> 130 44<58.0051 758.995> 338 44<58.0205 758.98> 510 115<41.0175 120.467>
VStem: 24 114<527.017 607.467> 680 115<-96.467 -16.5327>
LayerCount: 2
Fore
SplineSet
680 -56 m 0,0,1
 680 -33 680 -33 696.5 -16 c 128,-1,2
 713 1 713 1 737 1 c 0,3,4
 760 1 760 1 777.5 -16 c 128,-1,5
 795 -33 795 -33 795 -56 c 0,6,7
 795 -80 795 -80 777.5 -97 c 128,-1,8
 760 -114 760 -114 737 -114 c 0,9,10
 713 -114 713 -114 696.5 -97 c 128,-1,11
 680 -80 680 -80 680 -56 c 0,0,1
79 130 m 1,12,13
 58 134 58 134 58 152 c 0,14,15
 58 168 58 168 79 174 c 1,16,-1
 739 174 l 1,17,18
 759 168 759 168 759 152 c 0,19,20
 759 134 759 134 739 130 c 1,21,-1
 79 130 l 1,12,13
79 338 m 1,22,23
 58 342 58 342 58 359 c 128,-1,24
 58 376 58 376 79 382 c 1,25,-1
 739 382 l 1,26,27
 759 376 759 376 759 359 c 128,-1,28
 759 342 759 342 739 338 c 1,29,-1
 79 338 l 1,22,23
24 567 m 128,-1,31
 24 591 24 591 40.5 608 c 128,-1,32
 57 625 57 625 81 625 c 0,33,34
 104 625 104 625 121 607.5 c 128,-1,35
 138 590 138 590 138 567 c 0,36,37
 138 543 138 543 121 526.5 c 128,-1,38
 104 510 104 510 81 510 c 0,39,40
 57 510 57 510 40.5 526.5 c 128,-1,30
 24 543 24 543 24 567 c 128,-1,31
EndSplineSet
Validated: 19457
EndChar

StartChar: triangledownsld
Encoding: 9660 9660 51
Width: 743
Flags: W
LayerCount: 2
Fore
SplineSet
351 -8 m 2,0,-1
 89 561 l 2,1,2
 88 563 88 563 88 569 c 0,3,4
 88 587 88 587 108 592 c 1,5,-1
 636 592 l 1,6,7
 655 587 655 587 655 569 c 0,8,9
 655 563 655 563 654 561 c 2,10,-1
 392 -8 l 2,11,12
 384 -23 384 -23 372 -23 c 0,13,14
 358 -23 358 -23 351 -8 c 2,0,-1
EndSplineSet
Validated: 3073
EndChar

StartChar: Yen
Encoding: 165 165 52
Width: 788
Flags: W
HStem: 0 36<246 341.773 447.306 544> 215 33<65.7427 350 439 723.257> 423 33<65.7427 238 365 487 551 723.257> 664 35<13 108.033 229.685 297 555 592.468 695.98 775>
VStem: 350 89<46.1685 215 248 280>
LayerCount: 2
Fore
SplineSet
78 215 m 2,0,1
 74 215 74 215 69.5 219.5 c 128,-1,2
 65 224 65 224 65 228 c 2,3,-1
 65 234 l 2,4,5
 65 238 65 238 69.5 243 c 128,-1,6
 74 248 74 248 78 248 c 2,7,-1
 350 248 l 1,8,-1
 350 280 l 1,9,-1
 259 423 l 1,10,-1
 78 423 l 2,11,12
 74 423 74 423 69.5 427.5 c 128,-1,13
 65 432 65 432 65 436 c 2,14,-1
 65 442 l 2,15,16
 65 446 65 446 69.5 451 c 128,-1,17
 74 456 74 456 78 456 c 2,18,-1
 238 456 l 1,19,-1
 126 630 l 1,20,21
 114 646 114 646 93 654 c 128,-1,22
 72 662 72 662 56.5 663 c 128,-1,23
 41 664 41 664 13 664 c 1,24,-1
 13 699 l 1,25,26
 34 699 34 699 77.5 697.5 c 128,-1,27
 121 696 121 696 143 696 c 0,28,29
 168 696 168 696 220 697.5 c 128,-1,30
 272 699 272 699 297 699 c 1,31,-1
 297 664 l 1,32,33
 228 664 228 664 228 640 c 0,34,35
 228 634 228 634 231 630 c 2,36,-1
 343 456 l 1,37,-1
 509 456 l 1,38,-1
 602 601 l 2,39,40
 610 614 610 614 610 626 c 0,41,42
 610 646 610 646 593 655 c 128,-1,43
 576 664 576 664 555 664 c 1,44,-1
 555 699 l 1,45,46
 575 699 575 699 615.5 697.5 c 128,-1,47
 656 696 656 696 677 696 c 0,48,49
 694 696 694 696 726.5 697.5 c 128,-1,50
 759 699 759 699 775 699 c 1,51,-1
 775 664 l 1,52,53
 686 664 686 664 645 601 c 2,54,-1
 551 456 l 1,55,-1
 711 456 l 2,56,57
 715 456 715 456 719.5 451 c 128,-1,58
 724 446 724 446 724 442 c 2,59,-1
 724 436 l 2,60,61
 724 432 724 432 719.5 427.5 c 128,-1,62
 715 423 715 423 711 423 c 2,63,-1
 530 423 l 1,64,-1
 439 280 l 1,65,-1
 439 248 l 1,66,-1
 711 248 l 2,67,68
 715 248 715 248 719.5 243 c 128,-1,69
 724 238 724 238 724 234 c 2,70,-1
 724 228 l 2,71,72
 724 224 724 224 719.5 219.5 c 128,-1,73
 715 215 715 215 711 215 c 2,74,-1
 439 215 l 1,75,-1
 439 70 l 2,76,77
 439 36 439 36 544 36 c 1,78,-1
 544 0 l 1,79,80
 519 0 519 0 469 1.5 c 128,-1,81
 419 3 419 3 394 3 c 0,82,83
 370 3 370 3 320.5 1.5 c 128,-1,84
 271 0 271 0 246 0 c 1,85,-1
 246 36 l 1,86,87
 350 36 350 36 350 70 c 2,88,-1
 350 215 l 1,89,-1
 78 215 l 2,0,1
426 326 m 1,90,-1
 487 423 l 1,91,-1
 365 423 l 1,92,-1
 426 326 l 1,90,-1
EndSplineSet
Validated: 19457
EndChar

StartChar: uniondbl
Encoding: 8914 8914 53
Width: 701
Flags: W
HStem: -23 45<223.312 475.675> 141 44<291.039 408.961>
VStem: 58 44<123.049 613.981> 222 44<209.25 613.981> 434 44<209.25 613.981> 598 44<123.058 613.981>
LayerCount: 2
Fore
SplineSet
58 196 m 2,0,-1
 58 595 l 1,1,2
 62 614 62 614 81 614 c 0,3,4
 98 614 98 614 102 595 c 1,5,-1
 102 200 l 2,6,7
 102 140 102 140 143 98 c 128,-1,8
 184 56 184 56 238 39 c 128,-1,9
 292 22 292 22 350 22 c 0,10,11
 407 22 407 22 461 39 c 128,-1,12
 515 56 515 56 556.5 98 c 128,-1,13
 598 140 598 140 598 199 c 2,14,-1
 598 595 l 1,15,16
 602 614 602 614 621 614 c 0,17,18
 638 614 638 614 642 595 c 1,19,-1
 642 195 l 2,20,21
 642 141 642 141 614.5 98 c 128,-1,22
 587 55 587 55 543 29.5 c 128,-1,23
 499 4 499 4 449.5 -9.5 c 128,-1,24
 400 -23 400 -23 350 -23 c 0,25,26
 282 -23 282 -23 217.5 -1 c 128,-1,27
 153 21 153 21 105.5 73 c 128,-1,28
 58 125 58 125 58 196 c 2,0,-1
222 254 m 2,29,-1
 222 595 l 1,30,31
 226 614 226 614 245 614 c 0,32,33
 262 614 262 614 266 595 c 1,34,-1
 266 258 l 2,35,36
 266 226 266 226 291.5 205.5 c 128,-1,37
 317 185 317 185 350 185 c 128,-1,38
 383 185 383 185 408.5 205.5 c 128,-1,39
 434 226 434 226 434 258 c 2,40,-1
 434 595 l 1,41,42
 438 614 438 614 457 614 c 0,43,44
 474 614 474 614 478 595 c 1,45,-1
 478 254 l 2,46,47
 478 205 478 205 438.5 173 c 128,-1,48
 399 141 399 141 350 141 c 128,-1,49
 301 141 301 141 261.5 173 c 128,-1,50
 222 205 222 205 222 254 c 2,29,-1
EndSplineSet
Validated: 19457
EndChar

StartChar: rightanglene
Encoding: 9488 9488 54
Width: 525
Flags: W
HStem: 667 44<58.0051 423>
VStem: 423 44<302.021 667>
LayerCount: 2
Fore
SplineSet
423 323 m 1,0,-1
 423 667 l 1,1,-1
 79 667 l 1,2,3
 58 671 58 671 58 689 c 128,-1,4
 58 707 58 707 79 711 c 1,5,-1
 446 711 l 2,6,7
 454 711 454 711 459.5 705 c 128,-1,8
 465 699 465 699 467 691 c 1,9,-1
 467 323 l 1,10,11
 463 302 463 302 444 302 c 0,12,13
 427 302 427 302 423 323 c 1,0,-1
EndSplineSet
Validated: 19457
EndChar

StartChar: ominus
Encoding: 8854 8854 55
Width: 799
VWidth: 1000
Flags: W
HStem: -92 28<307.242 490.482> 237 28<85 713> 565 28<306.966 491.034>
VStem: 57 28<157.769 237 265 343.152> 713 28<157.848 237 265 343.231>
LayerCount: 2
Fore
SplineSet
741 250 m 0,0,1
 741 109 741 109 640.5 8.5 c 128,-1,2
 540 -92 540 -92 399 -92 c 128,-1,3
 258 -92 258 -92 157.5 8 c 128,-1,4
 57 108 57 108 57 251 c 0,5,6
 57 392 57 392 157.5 492.5 c 128,-1,7
 258 593 258 593 399 593 c 128,-1,8
 540 593 540 593 640.5 493 c 128,-1,9
 741 393 741 393 741 250 c 0,0,1
85 265 m 1,10,-1
 713 265 l 1,11,12
 706 393 706 393 614.5 479 c 128,-1,13
 523 565 523 565 399 565 c 128,-1,14
 275 565 275 565 183.5 479 c 128,-1,15
 92 393 92 393 85 265 c 1,10,-1
713 237 m 1,16,-1
 85 237 l 1,17,18
 92 106 92 106 184 21 c 128,-1,19
 276 -64 276 -64 399 -64 c 0,20,21
 521 -64 521 -64 613.5 21 c 128,-1,22
 706 106 706 106 713 237 c 1,16,-1
EndSplineSet
Validated: 19457
EndChar

StartChar: clockwise
Encoding: 8635 8635 56
Width: 818
Flags: W
HStem: -96 33<307.454 510.47> 543 30<538.035 573.107> 574 33<385.252 424.983>
VStem: 58 33<154.108 356.333> 260 35<418 470.487> 726 33<154.108 356.222>
LayerCount: 2
Fore
SplineSet
409 -96 m 128,-1,1
 264 -96 264 -96 161 7 c 128,-1,2
 58 110 58 110 58 256 c 0,3,4
 58 367 58 367 123.5 459.5 c 128,-1,5
 189 552 189 552 294 588 c 1,6,7
 238 613 238 613 185 668 c 1,8,-1
 220 677 l 1,9,10
 268 622 268 622 343 601 c 1,11,12
 373 607 373 607 408 607 c 0,13,14
 425 607 425 607 425 591 c 0,15,16
 425 585 425 585 421 579.5 c 128,-1,17
 417 574 417 574 411 574 c 0,18,19
 393 574 393 574 385 573 c 1,20,21
 311 511 311 511 295 418 c 1,22,-1
 260 408 l 1,23,24
 272 481 272 481 316 542 c 1,25,-1
 311 559 l 1,26,27
 214 528 214 528 152.5 443 c 128,-1,28
 91 358 91 358 91 256 c 0,29,30
 91 125 91 125 184.5 31 c 128,-1,31
 278 -63 278 -63 409 -63 c 128,-1,32
 540 -63 540 -63 633 31 c 128,-1,33
 726 125 726 125 726 256 c 0,34,35
 726 347 726 347 677 425.5 c 128,-1,36
 628 504 628 504 546 543 c 1,37,38
 538 548 538 548 538 557 c 0,39,40
 538 573 538 573 554 573 c 0,41,42
 556 573 556 573 562 571 c 0,43,44
 652 528 652 528 705.5 442 c 128,-1,45
 759 356 759 356 759 256 c 0,46,47
 759 110 759 110 656.5 7 c 128,-1,0
 554 -96 554 -96 409 -96 c 128,-1,1
EndSplineSet
Validated: 19457
EndChar

StartChar: dblarrowdwn
Encoding: 8650 8650 57
Width: 876
Flags: W
HStem: -199 21G<259 267 609.5 617.5> -32 33<75.0032 118.215 758.785 801.997> 691 20G<259 267 609 617.5>
VStem: 242 43<-110 710.987> 592 44<-110 710.977>
LayerCount: 2
Fore
SplineSet
83 -32 m 0,0,1
 75 -30 75 -30 75 -22 c 2,2,-1
 75 -10 l 2,3,4
 75 1 75 1 88 1 c 2,5,6
 92 1 l 1,7,8
 184 -35 184 -35 242 -110 c 1,9,-1
 242 691 l 2,10,11
 242 699 242 699 248.5 705 c 128,-1,12
 255 711 255 711 263 711 c 128,-1,13
 271 711 271 711 278 705 c 128,-1,14
 285 699 285 699 285 691 c 2,15,-1
 285 -110 l 1,16,17
 341 -36 341 -36 434 1 c 1,18,-1
 442 1 l 1,19,20
 535 -35 535 -35 592 -110 c 1,21,-1
 592 691 l 2,22,23
 592 699 592 699 598.5 705 c 128,-1,24
 605 711 605 711 613 711 c 0,25,26
 622 711 622 711 629 705 c 128,-1,27
 636 699 636 699 636 691 c 2,28,-1
 636 -110 l 1,29,30
 693 -35 693 -35 785 1 c 1,31,-1
 790 1 l 2,32,33
 802 1 802 1 802 -10 c 2,34,-1
 802 -22 l 2,35,36
 802 -30 802 -30 794 -32 c 0,37,38
 676 -76 676 -76 626 -190 c 0,39,40
 622 -199 622 -199 613 -199 c 0,41,42
 606 -199 606 -199 602 -190 c 0,43,44
 552 -78 552 -78 438 -34 c 1,45,46
 323 -78 323 -78 275 -190 c 0,47,48
 271 -199 271 -199 263 -199 c 128,-1,49
 255 -199 255 -199 251 -190 c 0,50,51
 201 -76 201 -76 83 -32 c 0,0,1
EndSplineSet
Validated: 19457
EndChar

StartChar: curlyleft
Encoding: 8619 8619 58
Width: 1051
Flags: W
HStem: 233 45<148 654 698 908.833> 547 45<750.121 927.27>
VStem: 654 44<-44.9951 233 278 482.821> 971 45<331.442 503.505>
LayerCount: 2
Fore
SplineSet
216 85 m 1,0,1
 169 200 169 200 58 256 c 1,2,3
 169 310 169 310 216 426 c 1,4,-1
 252 426 l 1,5,6
 217 341 217 341 148 278 c 1,7,-1
 654 278 l 1,8,9
 654 313 654 313 654.5 332.5 c 128,-1,10
 655 352 655 352 657 385.5 c 128,-1,11
 659 419 659 419 664 439.5 c 128,-1,12
 669 460 669 460 677 487 c 128,-1,13
 685 514 685 514 698.5 530 c 128,-1,14
 712 546 712 546 730.5 562 c 128,-1,15
 749 578 749 578 775.5 585 c 128,-1,16
 802 592 802 592 835 592 c 0,17,18
 1016 592 1016 592 1016 413 c 0,19,20
 1016 363 1016 363 999.5 328 c 128,-1,21
 983 293 983 293 960 274.5 c 128,-1,22
 937 256 937 256 895.5 246.5 c 128,-1,23
 854 237 854 237 823.5 235 c 128,-1,24
 793 233 793 233 742 233 c 2,25,-1
 698 233 l 1,26,-1
 698 -25 l 1,27,28
 693 -45 693 -45 676 -45 c 0,29,30
 658 -45 658 -45 654 -25 c 1,31,-1
 654 233 l 1,32,-1
 148 233 l 1,33,34
 217 170 217 170 252 85 c 1,35,-1
 216 85 l 1,0,1
698 278 m 1,36,-1
 741 278 l 2,37,38
 773 278 773 278 789.5 278.5 c 128,-1,39
 806 279 806 279 834.5 281.5 c 128,-1,40
 863 284 863 284 878.5 288.5 c 128,-1,41
 894 293 894 293 914.5 303 c 128,-1,42
 935 313 935 313 945.5 327 c 128,-1,43
 956 341 956 341 963.5 363 c 128,-1,44
 971 385 971 385 971 413 c 0,45,46
 971 484 971 484 939 515.5 c 128,-1,47
 907 547 907 547 835 547 c 0,48,49
 779 547 779 547 749 524 c 128,-1,50
 719 501 719 501 708 447 c 0,51,52
 698 396 698 396 698 278 c 1,36,-1
EndSplineSet
Validated: 19457
EndChar

StartChar: geqq
Encoding: 8807 8807 59
Width: 818
Flags: W
HStem: -197 44<88.0051 728.995> 11 44<88.0051 728.995> 175 43<88.0615 102> 752 41<88.0837 99>
LayerCount: 2
Fore
SplineSet
109 -197 m 1,0,1
 88 -193 88 -193 88 -175 c 128,-1,2
 88 -157 88 -157 109 -153 c 1,3,-1
 710 -153 l 1,4,5
 729 -157 729 -157 729 -175 c 128,-1,6
 729 -193 729 -193 710 -197 c 1,7,-1
 109 -197 l 1,0,1
109 11 m 1,8,9
 88 15 88 15 88 33 c 128,-1,10
 88 51 88 51 109 55 c 1,11,-1
 710 55 l 1,12,13
 729 51 729 51 729 33 c 128,-1,14
 729 15 729 15 710 11 c 1,15,-1
 109 11 l 1,8,9
88 198 m 0,16,17
 88 211 88 211 102 218 c 2,18,-1
 656 484 l 1,19,-1
 99 752 l 2,20,21
 88 757 88 757 88 771 c 0,22,23
 88 779 88 779 95 786 c 128,-1,24
 102 793 102 793 111 793 c 0,25,26
 116 793 116 793 119 792 c 2,27,-1
 719 503 l 2,28,29
 729 498 729 498 729 484 c 128,-1,30
 729 470 729 470 716 464 c 2,31,-1
 119 177 l 2,32,33
 116 175 116 175 111 175 c 0,34,35
 102 175 102 175 95 182 c 128,-1,36
 88 189 88 189 88 198 c 0,16,17
EndSplineSet
Validated: 19457
EndChar

StartChar: arrowtripleleft
Encoding: 8666 8666 60
Width: 1051
Flags: W
HStem: 26 44<386 992.995> 233 45<185 986.812> 441 44<386 992.981>
CounterMasks: 1 e0
LayerCount: 2
Fore
SplineSet
404 -123 m 1,0,1
 361 -2 361 -2 277.5 96 c 128,-1,2
 194 194 194 194 81 256 c 1,3,4
 193 317 193 317 277 415 c 128,-1,5
 361 513 361 513 404 634 c 1,6,-1
 458 634 l 1,7,8
 431 557 431 557 386 485 c 1,9,-1
 974 485 l 1,10,11
 993 481 993 481 993 464 c 0,12,13
 993 445 993 445 974 441 c 1,14,-1
 355 441 l 1,15,16
 285 347 285 347 185 278 c 1,17,-1
 972 278 l 2,18,19
 981 278 981 278 987 271.5 c 128,-1,20
 993 265 993 265 993 256 c 0,21,22
 993 246 993 246 987 239.5 c 128,-1,23
 981 233 981 233 972 233 c 2,24,-1
 185 233 l 1,25,26
 285 164 285 164 355 70 c 1,27,-1
 974 70 l 1,28,29
 993 66 993 66 993 48 c 128,-1,30
 993 30 993 30 974 26 c 1,31,-1
 386 26 l 1,32,33
 431 -46 431 -46 458 -123 c 1,34,-1
 404 -123 l 1,0,1
EndSplineSet
Validated: 19457
EndChar

StartChar: uprise
Encoding: 8911 8911 61
Width: 806
Flags: W
HStem: -23 45<88.0073 188.25 618.023 717.993>
VStem: 381 44<357.97 591.995>
LayerCount: 2
Fore
SplineSet
88 -1 m 0,0,1
 88 18 88 18 108 22 c 1,2,3
 166 28 166 28 212 57.5 c 128,-1,4
 258 87 258 87 287 134.5 c 128,-1,5
 316 182 316 182 335.5 235 c 128,-1,6
 355 288 355 288 364.5 352 c 128,-1,7
 374 416 374 416 377.5 466.5 c 128,-1,8
 381 517 381 517 381 572 c 1,9,10
 385 592 385 592 403 592 c 128,-1,11
 421 592 421 592 425 572 c 1,12,13
 425 517 425 517 428.5 466.5 c 128,-1,14
 432 416 432 416 441.5 352 c 128,-1,15
 451 288 451 288 470.5 235 c 128,-1,16
 490 182 490 182 519 134.5 c 128,-1,17
 548 87 548 87 594 57.5 c 128,-1,18
 640 28 640 28 698 22 c 1,19,20
 718 18 718 18 718 -1 c 0,21,22
 718 -10 718 -10 710.5 -16.5 c 128,-1,23
 703 -23 703 -23 694 -23 c 0,24,25
 629 -17 629 -17 577.5 14.5 c 128,-1,26
 526 46 526 46 492.5 96 c 128,-1,27
 459 146 459 146 437.5 200.5 c 128,-1,28
 416 255 416 255 403 319 c 1,29,30
 392 268 392 268 377 224 c 128,-1,31
 362 180 362 180 338 135.5 c 128,-1,32
 314 91 314 91 283 59 c 128,-1,33
 252 27 252 27 208 4.5 c 128,-1,34
 164 -18 164 -18 112 -23 c 0,35,36
 103 -23 103 -23 95.5 -16.5 c 128,-1,37
 88 -10 88 -10 88 -1 c 0,0,1
EndSplineSet
Validated: 19457
EndChar

StartChar: circleS
Encoding: 9416 9416 62
Width: 937
Flags: W
HStem: -181 44<333.412 604.588> -14 31<407.621 544.599> 524 29<392.693 513.311> 698 44<333.412 604.588>
VStem: 7 44<145.412 416.464> 287 56<367.005 478.506> 287 32<96.8242 177.982> 595 56<65.7227 189.05> 596 33<360.021 436.658> 887 44<145.412 416.464>
LayerCount: 2
Fore
SplineSet
7 281 m 128,-1,1
 7 406 7 406 69 512 c 128,-1,2
 131 618 131 618 237.5 680 c 128,-1,3
 344 742 344 742 469 742 c 128,-1,4
 594 742 594 742 700.5 680 c 128,-1,5
 807 618 807 618 869 512 c 128,-1,6
 931 406 931 406 931 281 c 128,-1,7
 931 156 931 156 869 49.5 c 128,-1,8
 807 -57 807 -57 700.5 -119 c 128,-1,9
 594 -181 594 -181 469 -181 c 128,-1,10
 344 -181 344 -181 237.5 -119 c 128,-1,11
 131 -57 131 -57 69 49.5 c 128,-1,0
 7 156 7 156 7 281 c 128,-1,1
51 281 m 128,-1,13
 51 109 51 109 174 -14 c 128,-1,14
 297 -137 297 -137 469 -137 c 128,-1,15
 641 -137 641 -137 764 -14 c 128,-1,16
 887 109 887 109 887 281 c 128,-1,17
 887 453 887 453 764 575.5 c 128,-1,18
 641 698 641 698 469 698 c 128,-1,19
 297 698 297 698 174 575.5 c 128,-1,12
 51 453 51 453 51 281 c 128,-1,13
287 -5 m 2,20,-1
 287 169 l 2,21,22
 287 172 287 172 290.5 175 c 128,-1,23
 294 178 294 178 297 178 c 2,24,-1
 309 178 l 2,25,26
 312 178 312 178 315.5 175 c 128,-1,27
 319 172 319 172 319 169 c 0,28,29
 319 95 319 95 367.5 56 c 128,-1,30
 416 17 416 17 492 17 c 0,31,32
 535 17 535 17 565 49 c 128,-1,33
 595 81 595 81 595 124 c 0,34,35
 595 161 595 161 572 190.5 c 128,-1,36
 549 220 549 220 514 228 c 2,37,-1
 407 253 l 2,38,39
 356 265 356 265 321.5 306.5 c 128,-1,40
 287 348 287 348 287 400 c 0,41,42
 287 464 287 464 334.5 508.5 c 128,-1,43
 382 553 382 553 446 553 c 0,44,45
 524 553 524 553 573 504 c 1,46,-1
 606 549 l 2,47,48
 609 553 609 553 616 553 c 0,49,50
 629 553 629 553 629 544 c 2,51,-1
 629 370 l 2,52,53
 629 367 629 367 625 363.5 c 128,-1,54
 621 360 621 360 618 360 c 2,55,-1
 606 360 l 2,56,57
 603 360 603 360 599.5 363.5 c 128,-1,58
 596 367 596 367 596 370 c 0,59,60
 596 398 596 398 582 431.5 c 128,-1,61
 568 465 568 465 548 486 c 1,62,63
 509 524 509 524 446 524 c 0,64,65
 405 524 405 524 374 496 c 128,-1,66
 343 468 343 468 343 427 c 0,67,68
 343 393 343 393 365.5 367 c 128,-1,69
 388 341 388 341 422 333 c 2,70,-1
 528 307 l 1,71,72
 582 295 582 295 616.5 249.5 c 128,-1,73
 651 204 651 204 651 148 c 0,74,75
 651 82 651 82 604.5 34 c 128,-1,76
 558 -14 558 -14 492 -14 c 0,77,78
 398 -14 398 -14 342 35 c 1,79,-1
 309 -10 l 2,80,81
 306 -14 306 -14 299 -14 c 0,82,83
 287 -14 287 -14 287 -5 c 2,20,-1
EndSplineSet
Validated: 19457
EndChar

StartChar: harpoonleftright
Encoding: 8651 8651 63
Width: 1051
Flags: W
HStem: 130 44<64.704 897> 152 22<972.929 993> 338 44<155 986.812> 338 21<58 74.9531>
LayerCount: 2
Fore
SplineSet
81 130 m 2,0,1
 71 130 71 130 64.5 136.5 c 128,-1,2
 58 143 58 143 58 152 c 128,-1,3
 58 161 58 161 64.5 167.5 c 128,-1,4
 71 174 71 174 81 174 c 2,5,-1
 993 174 l 1,6,-1
 993 152 l 1,7,8
 883 99 883 99 836 -19 c 1,9,-1
 800 -19 l 1,10,11
 826 68 826 68 897 130 c 1,12,-1
 81 130 l 2,0,1
58 338 m 1,13,-1
 58 359 l 1,14,15
 169 413 169 413 216 530 c 1,16,-1
 252 530 l 1,17,18
 226 442 226 442 155 382 c 1,19,-1
 972 382 l 2,20,21
 981 382 981 382 987 375 c 128,-1,22
 993 368 993 368 993 359 c 128,-1,23
 993 350 993 350 987 344 c 128,-1,24
 981 338 981 338 972 338 c 2,25,-1
 58 338 l 1,13,-1
EndSplineSet
Validated: 19457
EndChar

StartChar: harpoondownright
Encoding: 8642 8642 64
Width: 438
Flags: W
HStem: -199 21G<197 245> -25 20G<346 389> 691 20G<214 223.5>
VStem: 197 44<-102 704.296> 197 22<-199 -178.92>
LayerCount: 2
Fore
SplineSet
197 -199 m 1,0,-1
 197 689 l 2,1,2
 197 698 197 698 203 704.5 c 128,-1,3
 209 711 209 711 219 711 c 0,4,5
 228 711 228 711 234.5 704.5 c 128,-1,6
 241 698 241 698 241 689 c 2,7,-1
 241 -102 l 1,8,9
 303 -31 303 -31 389 -5 c 1,10,-1
 389 -41 l 1,11,12
 271 -89 271 -89 219 -199 c 1,13,-1
 197 -199 l 1,0,-1
EndSplineSet
Validated: 19457
EndChar

StartChar: greaterorless
Encoding: 8823 8823 65
Width: 818
Flags: W
HStem: -278 44<716 728.971> 164 43<88.0137 102> 234 42<716 728.997> 676 42<88.0427 102>
LayerCount: 2
Fore
SplineSet
102 -20 m 2,0,1
 88 -15 88 -15 88 0 c 0,2,3
 88 14 88 14 102 20 c 2,4,-1
 699 275 l 2,5,6
 701 276 701 276 708 276 c 0,7,8
 716 276 716 276 722.5 269.5 c 128,-1,9
 729 263 729 263 729 255 c 0,10,11
 729 239 729 239 716 234 c 2,12,-1
 166 0 l 1,13,-1
 716 -234 l 2,14,15
 729 -240 729 -240 729 -255 c 0,16,17
 729 -264 729 -264 722.5 -271 c 128,-1,18
 716 -278 716 -278 708 -278 c 0,19,20
 702 -278 702 -278 699 -275 c 1,21,-1
 102 -20 l 2,0,1
88 186 m 0,22,23
 88 201 88 201 102 207 c 2,24,-1
 651 441 l 1,25,-1
 102 676 l 2,26,27
 88 681 88 681 88 696 c 0,28,29
 88 704 88 704 95 711 c 128,-1,30
 102 718 102 718 111 718 c 0,31,32
 116 718 116 718 119 717 c 2,33,-1
 716 462 l 2,34,35
 729 456 729 456 729 441 c 128,-1,36
 729 426 729 426 716 421 c 2,37,-1
 119 166 l 2,38,39
 116 164 116 164 111 164 c 0,40,41
 102 164 102 164 95 170.5 c 128,-1,42
 88 177 88 177 88 186 c 0,22,23
EndSplineSet
Validated: 19457
EndChar

StartChar: leftarrow
Encoding: 8592 8592 66
Width: 1027
VWidth: 1000
Flags: W
HStem: 229 43<147 969.991>
VStem: 225 31<71.0127 111.573>
LayerCount: 2
Fore
SplineSet
935 229 m 2,0,-1
 147 229 l 1,1,2
 183 203 183 203 209.5 168 c 128,-1,3
 236 133 236 133 246 112 c 128,-1,4
 256 91 256 91 256 84 c 0,5,6
 256 71 256 71 241 71 c 0,7,8
 229 71 229 71 225 82 c 0,9,10
 174 192 174 192 80 233 c 0,11,12
 64 239 64 239 60.5 242 c 128,-1,13
 57 245 57 245 57 251 c 0,14,15
 57 259 57 259 76 267 c 0,16,17
 174 309 174 309 220 408 c 0,18,19
 221 409 221 409 222 412 c 0,20,21
 225 419 225 419 226.5 421.5 c 128,-1,22
 228 424 228 424 230.5 426.5 c 128,-1,23
 233 429 233 429 235 429.5 c 128,-1,24
 237 430 237 430 241 430 c 0,25,26
 256 430 256 430 256 417 c 0,27,28
 256 410 256 410 246 389 c 128,-1,29
 236 368 236 368 209.5 333 c 128,-1,30
 183 298 183 298 147 272 c 1,31,-1
 935 272 l 2,32,33
 970 272 970 272 970 250 c 0,34,35
 970 229 970 229 935 229 c 2,0,-1
EndSplineSet
Validated: 19457
EndChar

StartChar: xor
Encoding: 8891 8891 67
Width: 643
Flags: W
HStem: 0 44<58.0205 583.98>
VStem: 58 41<723 732.841> 543 41<723 732.922>
LayerCount: 2
Fore
SplineSet
79 0 m 1,0,1
 58 4 58 4 58 23 c 0,2,3
 58 40 58 40 79 44 c 1,4,-1
 564 44 l 1,5,6
 584 40 584 40 584 23 c 0,7,8
 584 4 584 4 564 0 c 1,9,-1
 79 0 l 1,0,1
303 219 m 2,10,-1
 60 703 l 2,11,12
 58 705 58 705 58 712 c 0,13,14
 58 720 58 720 65 726.5 c 128,-1,15
 72 733 72 733 81 733 c 0,16,17
 94 733 94 733 99 723 c 2,18,-1
 322 280 l 1,19,-1
 543 723 l 2,20,21
 548 733 548 733 562 733 c 0,22,23
 570 733 570 733 577 726.5 c 128,-1,24
 584 720 584 720 584 712 c 0,25,26
 584 705 584 705 583 703 c 2,27,-1
 341 219 l 2,28,29
 335 208 335 208 322 208 c 0,30,31
 308 208 308 208 303 219 c 2,10,-1
EndSplineSet
Validated: 19457
EndChar

StartChar: multiopenleft
Encoding: 8907 8907 68
Width: 818
Flags: W
HStem: 691 20G<76.5 85.5>
LayerCount: 2
Fore
SplineSet
81 -23 m 0,0,1
 72 -23 72 -23 65 -16 c 128,-1,2
 58 -9 58 -9 58 -1 c 0,3,4
 58 6 58 6 65 15 c 1,5,-1
 378 344 l 1,6,-1
 65 674 l 2,7,8
 58 681 58 681 58 689 c 128,-1,9
 58 697 58 697 65 704 c 128,-1,10
 72 711 72 711 81 711 c 128,-1,11
 90 711 90 711 96 705 c 2,12,-1
 753 15 l 2,13,14
 759 8 759 8 759 -1 c 0,15,16
 759 -9 759 -9 752 -16 c 128,-1,17
 745 -23 745 -23 736 -23 c 0,18,19
 728 -23 728 -23 721 -16 c 2,20,-1
 409 312 l 1,21,-1
 96 -16 l 2,22,23
 89 -23 89 -23 81 -23 c 0,0,1
EndSplineSet
Validated: 19457
EndChar

StartChar: revsimilar
Encoding: 8765 8765 69
Width: 818
Flags: W
HStem: 131 62<158.156 312.65> 319 62<504.35 658.844>
VStem: 58 31<281.933 380.974> 728 31<131.026 230.067>
LayerCount: 2
Fore
SplineSet
233 131 m 0,0,1
 154 131 154 131 106 197.5 c 128,-1,2
 58 264 58 264 58 346 c 2,3,-1
 58 354 l 1,4,5
 61 381 61 381 74 381 c 0,6,7
 86 381 86 381 89 354 c 1,8,9
 89 290 89 290 129.5 241.5 c 128,-1,10
 170 193 170 193 233 193 c 0,11,12
 271 193 271 193 308 212.5 c 128,-1,13
 345 232 345 232 375.5 259.5 c 128,-1,14
 406 287 406 287 436.5 314.5 c 128,-1,15
 467 342 467 342 505.5 361.5 c 128,-1,16
 544 381 544 381 584 381 c 0,17,18
 663 381 663 381 711 314.5 c 128,-1,19
 759 248 759 248 759 166 c 2,20,-1
 759 158 l 1,21,22
 756 131 756 131 743 131 c 0,23,24
 731 131 731 131 728 158 c 1,25,26
 728 222 728 222 687.5 270.5 c 128,-1,27
 647 319 647 319 584 319 c 0,28,29
 546 319 546 319 509 299.5 c 128,-1,30
 472 280 472 280 441.5 252.5 c 128,-1,31
 411 225 411 225 380.5 197.5 c 128,-1,32
 350 170 350 170 311.5 150.5 c 128,-1,33
 273 131 273 131 233 131 c 0,0,1
EndSplineSet
Validated: 19457
EndChar

StartChar: squareminus
Encoding: 8863 8863 70
Width: 818
Flags: W
HStem: 0 44<102 715> 340 44<102 715> 679 44<102 715>
VStem: 58 44<44 340 384 679> 715 44<44 340 384 679>
LayerCount: 2
Fore
SplineSet
58 20 m 1,0,-1
 58 703 l 2,1,2
 58 710 58 710 64.5 715.5 c 128,-1,3
 71 721 71 721 79 723 c 1,4,-1
 739 723 l 2,5,6
 746 723 746 723 751.5 716.5 c 128,-1,7
 757 710 757 710 759 703 c 1,8,-1
 759 20 l 2,9,10
 759 4 759 4 739 0 c 1,11,-1
 79 0 l 2,12,13
 62 0 62 0 58 20 c 1,0,-1
102 44 m 1,14,-1
 715 44 l 1,15,-1
 715 340 l 1,16,-1
 102 340 l 1,17,-1
 102 44 l 1,14,-1
102 384 m 1,18,-1
 715 384 l 1,19,-1
 715 679 l 1,20,-1
 102 679 l 1,21,-1
 102 384 l 1,18,-1
EndSplineSet
Validated: 19457
EndChar

StartChar: harpoondownleft
Encoding: 8643 8643 71
Width: 438
Flags: W
HStem: -199 21G<193 242> -25 20G<49 92.5> 691 20G<215 224.5>
VStem: 198 44<-102 704.296> 220 22<-199 -178.92>
LayerCount: 2
Fore
SplineSet
49 -41 m 1,0,-1
 49 -5 l 1,1,2
 136 -31 136 -31 198 -102 c 1,3,-1
 198 689 l 2,4,5
 198 698 198 698 204 704.5 c 128,-1,6
 210 711 210 711 220 711 c 0,7,8
 229 711 229 711 235.5 704.5 c 128,-1,9
 242 698 242 698 242 689 c 2,10,-1
 242 -199 l 1,11,-1
 220 -199 l 1,12,13
 166 -89 166 -89 49 -41 c 1,0,-1
EndSplineSet
Validated: 19457
EndChar

StartChar: greaterorsimilar
Encoding: 8819 8819 72
Width: 818
Flags: W
HStem: -252 62<504.35 658.844> -65 62<158.809 312.65> 153 43<88.0137 102> 729 41<88.0154 99>
VStem: 58 31<-251.974 -153.016> 728 31<-101.984 -3.02637>
LayerCount: 2
Fore
SplineSet
74 -252 m 0,0,1
 61 -252 61 -252 58 -225 c 1,2,-1
 58 -217 l 2,3,4
 58 -135 58 -135 106.5 -69 c 128,-1,5
 155 -3 155 -3 233 -3 c 0,6,7
 273 -3 273 -3 311.5 -22.5 c 128,-1,8
 350 -42 350 -42 380.5 -69 c 128,-1,9
 411 -96 411 -96 441.5 -123.5 c 128,-1,10
 472 -151 472 -151 509 -170.5 c 128,-1,11
 546 -190 546 -190 584 -190 c 0,12,13
 647 -190 647 -190 687.5 -142 c 128,-1,14
 728 -94 728 -94 728 -30 c 1,15,16
 731 -3 731 -3 743 -3 c 0,17,18
 756 -3 756 -3 759 -30 c 1,19,-1
 759 -38 l 2,20,21
 759 -120 759 -120 711 -186 c 128,-1,22
 663 -252 663 -252 584 -252 c 0,23,24
 544 -252 544 -252 505.5 -232.5 c 128,-1,25
 467 -213 467 -213 436.5 -185.5 c 128,-1,26
 406 -158 406 -158 375.5 -131 c 128,-1,27
 345 -104 345 -104 308 -84.5 c 128,-1,28
 271 -65 271 -65 233 -65 c 0,29,30
 171 -65 171 -65 130 -113 c 128,-1,31
 89 -161 89 -161 89 -225 c 1,32,33
 86 -252 86 -252 74 -252 c 0,0,1
88 175 m 0,34,35
 88 189 88 189 102 196 c 2,36,-1
 656 462 l 1,37,-1
 99 729 l 2,38,39
 88 734 88 734 88 749 c 0,40,41
 88 757 88 757 95 763.5 c 128,-1,42
 102 770 102 770 111 770 c 0,43,44
 116 770 116 770 119 769 c 2,45,-1
 719 480 l 2,46,47
 729 475 729 475 729 462 c 0,48,49
 729 447 729 447 716 441 c 2,50,-1
 119 155 l 2,51,52
 116 153 116 153 111 153 c 0,53,54
 102 153 102 153 95 159.5 c 128,-1,55
 88 166 88 166 88 175 c 0,34,35
EndSplineSet
Validated: 19457
EndChar

StartChar: squareoriginal
Encoding: 8848 8848 73
Width: 818
Flags: W
HStem: -53 44<67.0186 708> 520 44<67.0186 708>
VStem: 708 44<-9 520>
LayerCount: 2
Fore
SplineSet
86 -53 m 1,0,1
 67 -50 67 -50 67 -32 c 0,2,3
 67 -12 67 -12 86 -9 c 1,4,-1
 708 -9 l 1,5,-1
 708 520 l 1,6,-1
 86 520 l 1,7,8
 67 523 67 523 67 543 c 0,9,10
 67 561 67 561 86 564 c 1,11,-1
 731 564 l 2,12,13
 746 564 746 564 752 545 c 1,14,-1
 752 -34 l 2,15,16
 752 -48 752 -48 731 -53 c 1,17,-1
 86 -53 l 1,0,1
EndSplineSet
Validated: 19457
EndChar

StartChar: trianglesolid
Encoding: 9650 9650 74
Width: 743
Flags: W
LayerCount: 2
Fore
SplineSet
108 -23 m 1,0,1
 88 -18 88 -18 88 0 c 0,2,3
 88 6 88 6 89 8 c 2,4,-1
 351 578 l 2,5,6
 358 592 358 592 372 592 c 0,7,8
 385 592 385 592 392 578 c 2,9,-1
 654 8 l 2,10,11
 655 6 655 6 655 0 c 0,12,13
 655 -18 655 -18 636 -23 c 1,14,-1
 108 -23 l 1,0,1
EndSplineSet
Validated: 3073
EndChar

StartChar: subseteq
Encoding: 8838 8838 75
Width: 799
VWidth: 1000
Flags: W
HStem: -154 43<108.008 711.991> 49 43<290.289 711.991> 609 43<289.753 711.991>
VStem: 86 43<249.48 451.597>
LayerCount: 2
Fore
SplineSet
677 609 m 2,0,-1
 401 609 l 2,1,2
 287 609 287 609 208 533.5 c 128,-1,3
 129 458 129 458 129 350 c 0,4,5
 129 244 129 244 207.5 168 c 128,-1,6
 286 92 286 92 401 92 c 2,7,-1
 677 92 l 2,8,9
 712 92 712 92 712 70 c 0,10,11
 712 49 712 49 677 49 c 2,12,-1
 397 49 l 2,13,14
 272 49 272 49 179 136 c 128,-1,15
 86 223 86 223 86 351 c 0,16,17
 86 477 86 477 178.5 564.5 c 128,-1,18
 271 652 271 652 397 652 c 2,19,-1
 677 652 l 2,20,21
 712 652 712 652 712 630 c 0,22,23
 712 609 712 609 677 609 c 2,0,-1
142 -111 m 2,24,-1
 677 -111 l 2,25,26
 712 -111 712 -111 712 -133 c 0,27,28
 712 -154 712 -154 677 -154 c 2,29,-1
 142 -154 l 2,30,31
 108 -154 108 -154 108 -132 c 0,32,33
 108 -111 108 -111 142 -111 c 2,24,-1
EndSplineSet
Validated: 19457
EndChar

StartChar: rightanglesw
Encoding: 9492 9492 76
Width: 525
Flags: W
HStem: -23 45<102 466.995>
VStem: 58 44<22 385.98>
LayerCount: 2
Fore
SplineSet
79 -23 m 2,0,1
 71 -23 71 -23 65.5 -17 c 128,-1,2
 60 -11 60 -11 58 -3 c 1,3,-1
 58 366 l 1,4,5
 62 386 62 386 81 386 c 0,6,7
 98 386 98 386 102 366 c 1,8,-1
 102 22 l 1,9,-1
 446 22 l 1,10,11
 467 18 467 18 467 -1 c 0,12,13
 467 -19 467 -19 446 -23 c 1,14,-1
 79 -23 l 2,0,1
EndSplineSet
Validated: 19457
EndChar

StartChar: squaredot
Encoding: 8865 8865 77
Width: 818
Flags: W
HStem: 0 44<102 715> 305 115<369.533 449.467> 679 44<102 715>
VStem: 58 44<44 679> 352 115<322.017 407.542> 715 44<44 679>
LayerCount: 2
Fore
SplineSet
58 20 m 1,0,-1
 58 703 l 2,1,2
 58 710 58 710 64.5 715.5 c 128,-1,3
 71 721 71 721 79 723 c 1,4,-1
 739 723 l 2,5,6
 746 723 746 723 751.5 716.5 c 128,-1,7
 757 710 757 710 759 703 c 1,8,-1
 759 20 l 2,9,10
 759 4 759 4 739 0 c 1,11,-1
 79 0 l 2,12,13
 62 0 62 0 58 20 c 1,0,-1
102 44 m 1,14,-1
 715 44 l 1,15,-1
 715 679 l 1,16,-1
 102 679 l 1,17,-1
 102 44 l 1,14,-1
352 362 m 0,18,19
 352 385 352 385 369 402.5 c 128,-1,20
 386 420 386 420 410 420 c 0,21,22
 433 420 433 420 450 402.5 c 128,-1,23
 467 385 467 385 467 362 c 0,24,25
 467 338 467 338 450 321.5 c 128,-1,26
 433 305 433 305 410 305 c 0,27,28
 386 305 386 305 369 321.5 c 128,-1,29
 352 338 352 338 352 362 c 0,18,19
EndSplineSet
Validated: 19457
EndChar

StartChar: forcesbar
Encoding: 8874 8874 78
Width: 934
Flags: W
HStem: 0 21G<71.5 89.5 266 284 460.5 479> 334 44<492 876.995> 691 20G<71.5 89.5 266 284 460.5 479>
VStem: 58 44<0.0195312 710.98> 253 44<0.00488281 710.995> 447 45<0.00488281 334 378 710.995>
LayerCount: 2
Fore
SplineSet
58 20 m 1,0,-1
 58 691 l 1,1,2
 62 711 62 711 81 711 c 0,3,4
 98 711 98 711 102 691 c 1,5,-1
 102 20 l 1,6,7
 98 0 98 0 81 0 c 0,8,9
 62 0 62 0 58 20 c 1,0,-1
253 20 m 1,10,-1
 253 691 l 1,11,12
 257 711 257 711 275 711 c 128,-1,13
 293 711 293 711 297 691 c 1,14,-1
 297 20 l 1,15,16
 293 0 293 0 275 0 c 128,-1,17
 257 0 257 0 253 20 c 1,10,-1
447 20 m 1,18,-1
 447 691 l 1,19,20
 451 711 451 711 470 711 c 0,21,22
 488 711 488 711 492 691 c 1,23,-1
 492 378 l 1,24,-1
 857 378 l 1,25,26
 877 374 877 374 877 356 c 128,-1,27
 877 338 877 338 857 334 c 1,28,-1
 492 334 l 1,29,-1
 492 20 l 1,30,31
 488 0 488 0 470 0 c 0,32,33
 451 0 451 0 447 20 c 1,18,-1
EndSplineSet
Validated: 19457
EndChar

StartChar: arrowtailleft
Encoding: 8610 8610 79
Width: 1169
Flags: W
HStem: 233 45<148 967.168>
LayerCount: 2
Fore
SplineSet
216 85 m 1,0,1
 169 200 169 200 58 256 c 1,2,3
 169 310 169 310 216 426 c 1,4,-1
 252 426 l 1,5,6
 217 341 217 341 148 278 c 1,7,-1
 938 278 l 1,8,9
 1020 334 1020 334 1057 426 c 1,10,-1
 1093 426 l 1,11,12
 1057 339 1057 339 989 278 c 1,13,-1
 989 233 l 1,14,15
 1057 172 1057 172 1093 85 c 1,16,-1
 1057 85 l 1,17,18
 1020 177 1020 177 938 233 c 1,19,-1
 148 233 l 1,20,21
 217 170 217 170 252 85 c 1,22,-1
 216 85 l 1,0,1
EndSplineSet
Validated: 19457
EndChar

StartChar: multimap
Encoding: 8888 8888 80
Width: 1169
Flags: W
HStem: 87 44<872.294 1010.97> 233 45<58.0051 778.246> 380 44<872.294 1010.97>
VStem: 774 43<187.614 233 278 323.386> 1066 44<186.163 324.967>
CounterMasks: 1 e0
LayerCount: 2
Fore
SplineSet
79 233 m 1,0,1
 58 237 58 237 58 256 c 0,2,3
 58 274 58 274 79 278 c 1,4,-1
 774 278 l 1,5,6
 783 340 783 340 831 382 c 128,-1,7
 879 424 879 424 942 424 c 0,8,9
 1010 424 1010 424 1060 374 c 128,-1,10
 1110 324 1110 324 1110 256 c 0,11,12
 1110 187 1110 187 1060 137 c 128,-1,13
 1010 87 1010 87 942 87 c 0,14,15
 879 87 879 87 831 129 c 128,-1,16
 783 171 783 171 774 233 c 1,17,-1
 79 233 l 1,0,1
942 131 m 0,18,19
 992 131 992 131 1029 168 c 128,-1,20
 1066 205 1066 205 1066 256 c 0,21,22
 1066 306 1066 306 1029 343 c 128,-1,23
 992 380 992 380 942 380 c 0,24,25
 891 380 891 380 854 343 c 128,-1,26
 817 306 817 306 817 256 c 0,27,28
 817 205 817 205 854 168 c 128,-1,29
 891 131 891 131 942 131 c 0,18,19
EndSplineSet
Validated: 19457
EndChar

StartChar: leq
Encoding: 8804 8804 81
Width: 799
VWidth: 1000
Flags: W
HStem: -154 43<86.0085 711.991> 49 43<694 705.812> 607 45<692 705.297>
LayerCount: 2
Fore
SplineSet
692 607 m 2,0,-1
 157 351 l 1,1,-1
 694 92 l 2,2,3
 712 84 712 84 712 70 c 0,4,5
 712 62 712 62 706 55.5 c 128,-1,6
 700 49 700 49 690 49 c 0,7,8
 685 49 685 49 672 56 c 2,9,-1
 104 329 l 2,10,11
 86 338 86 338 86 350 c 0,12,13
 86 364 86 364 106 374 c 2,14,-1
 674 646 l 2,15,16
 685 652 685 652 691 652 c 0,17,18
 699 652 699 652 705.5 646 c 128,-1,19
 712 640 712 640 712 630 c 0,20,21
 712 617 712 617 692 607 c 2,0,-1
677 -154 m 2,22,-1
 121 -154 l 2,23,24
 86 -154 86 -154 86 -133 c 0,25,26
 86 -111 86 -111 121 -111 c 2,27,-1
 677 -111 l 2,28,29
 712 -111 712 -111 712 -133 c 0,30,31
 712 -154 712 -154 677 -154 c 2,22,-1
EndSplineSet
Validated: 19457
EndChar

StartChar: triangleleft
Encoding: 8883 8883 82
Width: 818
Flags: W
VStem: 685 44<4 507>
LayerCount: 2
Fore
SplineSet
102 236 m 1,0,1
 89 241 89 241 89 256 c 0,2,3
 89 270 89 270 99 274 c 2,4,-1
 699 563 l 2,5,6
 701 564 701 564 708 564 c 0,7,8
 725 564 725 564 729 545 c 1,9,-1
 729 -34 l 1,10,11
 725 -53 725 -53 708 -53 c 0,12,13
 701 -53 701 -53 699 -52 c 2,14,-1
 102 236 l 1,0,1
162 256 m 1,15,-1
 685 4 l 1,16,-1
 685 507 l 1,17,-1
 162 256 l 1,15,-1
EndSplineSet
Validated: 19457
EndChar

StartChar: ringinequal
Encoding: 8790 8790 83
Width: 818
Flags: W
HStem: 130 44<58.0051 326 340.329 477.927 492 758.995> 338 44<58.0205 326 340.859 477.413 492 758.98>
VStem: 292 25<211.268 299.947> 500 25<209.805 301.726>
LayerCount: 2
Fore
SplineSet
79 130 m 1,0,1
 58 134 58 134 58 152 c 0,2,3
 58 168 58 168 79 174 c 1,4,-1
 326 174 l 1,5,6
 292 208 292 208 292 256 c 0,7,8
 292 302 292 302 326 338 c 1,9,-1
 79 338 l 1,10,11
 58 342 58 342 58 359 c 128,-1,12
 58 376 58 376 79 382 c 1,13,-1
 739 382 l 1,14,15
 759 376 759 376 759 359 c 128,-1,16
 759 342 759 342 739 338 c 1,17,-1
 492 338 l 1,18,19
 525 304 525 304 525 256 c 0,20,21
 525 207 525 207 492 174 c 1,22,-1
 739 174 l 1,23,24
 759 168 759 168 759 152 c 0,25,26
 759 134 759 134 739 130 c 1,27,-1
 79 130 l 1,0,1
369 174 m 1,28,-1
 449 174 l 1,29,30
 472 184 472 184 486 207 c 128,-1,31
 500 230 500 230 500 256 c 128,-1,32
 500 282 500 282 486 304.5 c 128,-1,33
 472 327 472 327 449 338 c 1,34,-1
 369 338 l 1,35,36
 346 327 346 327 331.5 304 c 128,-1,37
 317 281 317 281 317 256 c 0,38,39
 317 230 317 230 331.5 207.5 c 128,-1,40
 346 185 346 185 369 174 c 1,28,-1
EndSplineSet
Validated: 19457
EndChar

StartChar: sphericalangle
Encoding: 8738 8738 84
Width: 759
Flags: W
HStem: -54 42<687 699.997> 524 41<690 699.99>
VStem: 555 44<112.863 398.432>
LayerCount: 2
Fore
SplineSet
73 236 m 1,0,1
 58 242 58 242 58 256 c 0,2,3
 58 269 58 269 70 274 c 2,4,-1
 671 564 l 2,5,6
 673 565 673 565 679 565 c 0,7,8
 687 565 687 565 693.5 559 c 128,-1,9
 700 553 700 553 700 544 c 0,10,11
 700 529 700 529 690 524 c 2,12,-1
 557 461 l 1,13,14
 599 364 599 364 599 256 c 128,-1,15
 599 148 599 148 557 50 c 1,16,-1
 687 -12 l 2,17,18
 700 -19 700 -19 700 -33 c 0,19,20
 700 -41 700 -41 693.5 -47.5 c 128,-1,21
 687 -54 687 -54 679 -54 c 0,22,23
 673 -54 673 -54 671 -53 c 2,24,-1
 73 236 l 1,0,1
131 256 m 1,25,-1
 517 70 l 1,26,27
 555 155 555 155 555 256 c 0,28,29
 555 356 555 356 517 441 c 1,30,-1
 131 256 l 1,25,-1
EndSplineSet
Validated: 19457
EndChar

StartChar: sim
Encoding: 8764 8764 85
Width: 799
VWidth: 1000
Flags: W
HStem: 128 80<486.934 643.963> 292 80<154.037 311.066>
VStem: 57 29.5<128.208 209.942> 707 34<277.555 371.997>
LayerCount: 2
Fore
SplineSet
74 128 m 0,0,1
 57 128 57 128 57 162 c 2,2,-1
 57 175 l 2,3,4
 57 252 57 252 105 312 c 128,-1,5
 153 372 153 372 228 372 c 0,6,7
 266 372 266 372 303 355 c 128,-1,8
 340 338 340 338 370.5 314 c 128,-1,9
 401 290 401 290 431.5 266 c 128,-1,10
 462 242 462 242 498 225 c 128,-1,11
 534 208 534 208 570 208 c 0,12,13
 624 208 624 208 665.5 246.5 c 128,-1,14
 707 285 707 285 707 339 c 0,15,16
 707 348 707 348 711.5 360 c 128,-1,17
 716 372 716 372 724 372 c 0,18,19
 733 372 733 372 737 360.5 c 128,-1,20
 741 349 741 349 741 339 c 2,21,-1
 741 326 l 2,22,23
 741 248 741 248 693 188 c 128,-1,24
 645 128 645 128 570 128 c 0,25,26
 532 128 532 128 495 145 c 128,-1,27
 458 162 458 162 427.5 186 c 128,-1,28
 397 210 397 210 366.5 234 c 128,-1,29
 336 258 336 258 300 275 c 128,-1,30
 264 292 264 292 228 292 c 0,31,32
 174 292 174 292 132.5 253.5 c 128,-1,33
 91 215 91 215 91 162 c 0,34,35
 91 152 91 152 86.5 140 c 128,-1,36
 82 128 82 128 74 128 c 0,0,1
EndSplineSet
Validated: 19457
EndChar

StartChar: squaremultiply
Encoding: 8864 8864 86
Width: 818
Flags: W
HStem: 0 44<132 685> 679 44<132 685>
VStem: 58 44<77 646> 715 44<77 646>
LayerCount: 2
Fore
SplineSet
58 20 m 1,0,-1
 58 703 l 2,1,2
 58 710 58 710 64.5 715.5 c 128,-1,3
 71 721 71 721 79 723 c 1,4,-1
 739 723 l 2,5,6
 746 723 746 723 751.5 716.5 c 128,-1,7
 757 710 757 710 759 703 c 1,8,-1
 759 20 l 2,9,10
 759 4 759 4 739 0 c 1,11,-1
 79 0 l 2,12,13
 62 0 62 0 58 20 c 1,0,-1
132 44 m 1,14,-1
 685 44 l 1,15,-1
 409 330 l 1,16,-1
 132 44 l 1,14,-1
102 77 m 1,17,-1
 378 361 l 1,18,-1
 102 646 l 1,19,-1
 102 77 l 1,17,-1
715 77 m 1,20,-1
 715 646 l 1,21,-1
 439 361 l 1,22,-1
 715 77 l 1,20,-1
409 393 m 1,23,-1
 685 679 l 1,24,-1
 132 679 l 1,25,-1
 409 393 l 1,23,-1
EndSplineSet
Validated: 19457
EndChar

StartChar: dblarrowheadright
Encoding: 8608 8608 87
Width: 1051
Flags: W
HStem: 233 45<64.704 710 733.102 903>
LayerCount: 2
Fore
SplineSet
81 233 m 2,0,1
 71 233 71 233 64.5 239.5 c 128,-1,2
 58 246 58 246 58 256 c 0,3,4
 58 265 58 265 64.5 271.5 c 128,-1,5
 71 278 71 278 81 278 c 2,6,-1
 710 278 l 1,7,8
 641 341 641 341 606 426 c 1,9,-1
 642 426 l 1,10,11
 681 333 681 333 762 278 c 1,12,-1
 903 278 l 1,13,14
 836 339 836 339 800 426 c 1,15,-1
 836 426 l 1,16,17
 883 309 883 309 993 256 c 1,18,19
 883 201 883 201 836 85 c 1,20,-1
 800 85 l 1,21,22
 836 172 836 172 903 233 c 1,23,-1
 762 233 l 1,24,25
 681 178 681 178 642 85 c 1,26,-1
 606 85 l 1,27,28
 641 170 641 170 710 233 c 1,29,-1
 81 233 l 2,0,1
EndSplineSet
Validated: 19457
EndChar

StartChar: arrowparrrightleft
Encoding: 8644 8644 88
Width: 1051
Flags: W
HStem: -1 21G<192.5 252> 148 45<148 986.812> 489 45<64.704 903>
LayerCount: 2
Fore
SplineSet
216 -1 m 1,0,1
 169 116 169 116 58 170 c 1,2,3
 169 224 169 224 216 341 c 1,4,-1
 252 341 l 1,5,6
 217 254 217 254 148 193 c 1,7,-1
 972 193 l 2,8,9
 981 193 981 193 987 186 c 128,-1,10
 993 179 993 179 993 170 c 128,-1,11
 993 161 993 161 987 154.5 c 128,-1,12
 981 148 981 148 972 148 c 2,13,-1
 148 148 l 1,14,15
 217 85 217 85 252 -1 c 1,16,-1
 216 -1 l 1,0,1
81 489 m 2,17,18
 71 489 71 489 64.5 496 c 128,-1,19
 58 503 58 503 58 512 c 128,-1,20
 58 521 58 521 64.5 527.5 c 128,-1,21
 71 534 71 534 81 534 c 2,22,-1
 903 534 l 1,23,24
 836 595 836 595 800 682 c 1,25,-1
 836 682 l 1,26,27
 883 565 883 565 993 512 c 1,28,29
 883 459 883 459 836 341 c 1,30,-1
 800 341 l 1,31,32
 836 429 836 429 903 489 c 1,33,-1
 81 489 l 2,17,18
EndSplineSet
Validated: 19457
EndChar

StartChar: equalsdots
Encoding: 8785 8785 89
Width: 818
Flags: W
HStem: -119 125<361.604 451.92> 130 44<58.0051 758.995> 338 44<58.0205 758.98> 505 125<362.147 455.806>
VStem: 346 125<-103.278 -12.5645 520.194 613.853>
LayerCount: 2
Fore
SplineSet
346 -56 m 0,0,1
 346 -31 346 -31 364.5 -12.5 c 128,-1,2
 383 6 383 6 409 6 c 0,3,4
 434 6 434 6 452.5 -12 c 128,-1,5
 471 -30 471 -30 471 -56 c 128,-1,6
 471 -82 471 -82 452.5 -100.5 c 128,-1,7
 434 -119 434 -119 409 -119 c 128,-1,8
 384 -119 384 -119 365 -100.5 c 128,-1,9
 346 -82 346 -82 346 -56 c 0,0,1
79 130 m 1,10,11
 58 134 58 134 58 152 c 0,12,13
 58 168 58 168 79 174 c 1,14,-1
 739 174 l 1,15,16
 759 168 759 168 759 152 c 0,17,18
 759 134 759 134 739 130 c 1,19,-1
 79 130 l 1,10,11
79 338 m 1,20,21
 58 342 58 342 58 359 c 128,-1,22
 58 376 58 376 79 382 c 1,23,-1
 739 382 l 1,24,25
 759 376 759 376 759 359 c 128,-1,26
 759 342 759 342 739 338 c 1,27,-1
 79 338 l 1,20,21
346 567 m 128,-1,29
 346 592 346 592 365 611 c 128,-1,30
 384 630 384 630 409 630 c 128,-1,31
 434 630 434 630 452.5 611.5 c 128,-1,32
 471 593 471 593 471 567 c 0,33,34
 471 542 471 542 452.5 523.5 c 128,-1,35
 434 505 434 505 409 505 c 0,36,37
 383 505 383 505 364.5 523.5 c 128,-1,28
 346 542 346 542 346 567 c 128,-1,29
EndSplineSet
Validated: 19457
EndChar

StartChar: primereverse
Encoding: 8245 8245 90
Width: 285
Flags: W
VStem: 12 242
LayerCount: 2
Fore
SplineSet
204 48 m 2,0,-1
 17 493 l 2,1,2
 12 506 12 506 12 517 c 0,3,4
 12 540 12 540 30.5 556 c 128,-1,5
 49 572 49 572 73 572 c 0,6,7
 115 572 115 572 127 529 c 2,8,-1
 254 67 l 1,9,10
 254 56 254 56 247 53 c 2,11,-1
 217 43 l 1,12,-1
 214 43 l 2,13,14
 207 43 207 43 204 48 c 2,0,-1
EndSplineSet
Validated: 19457
EndChar

StartChar: triangleleftequal
Encoding: 8884 8884 91
Width: 818
Flags: W
HStem: -158 44<89.0049 728.995> 648 20G<704.5 716.5>
VStem: 685 44<108 610>
LayerCount: 2
Fore
SplineSet
109 -158 m 1,0,1
 89 -154 89 -154 89 -136 c 128,-1,2
 89 -118 89 -118 109 -114 c 1,3,-1
 710 -114 l 1,4,5
 729 -118 729 -118 729 -136 c 128,-1,6
 729 -154 729 -154 710 -158 c 1,7,-1
 109 -158 l 1,0,1
102 339 m 1,8,9
 89 344 89 344 89 359 c 128,-1,10
 89 374 89 374 99 378 c 2,11,-1
 699 667 l 2,12,13
 701 668 701 668 708 668 c 0,14,15
 725 668 725 668 729 648 c 1,16,-1
 729 70 l 1,17,18
 725 50 725 50 708 50 c 0,19,20
 701 50 701 50 699 51 c 2,21,-1
 102 339 l 1,8,9
162 359 m 1,22,-1
 685 108 l 1,23,-1
 685 610 l 1,24,-1
 162 359 l 1,22,-1
EndSplineSet
Validated: 19457
EndChar

StartChar: greaterlessequal
Encoding: 8923 8923 92
Width: 796
Flags: W
HStem: 232 44<88.0205 707.979>
LayerCount: 2
Fore
SplineSet
102 -59 m 2,0,1
 88 -56 88 -56 88 -38 c 0,2,3
 88 -23 88 -23 102 -18 c 1,4,-1
 679 138 l 2,5,6
 681 139 681 139 685 139 c 0,7,8
 694 139 694 139 701 132 c 128,-1,9
 708 125 708 125 708 117 c 0,10,11
 708 101 708 101 693 97 c 2,12,-1
 171 -38 l 1,13,-1
 693 -172 l 1,14,15
 708 -180 708 -180 708 -192 c 0,16,17
 708 -201 708 -201 701 -208 c 128,-1,18
 694 -215 694 -215 685 -215 c 0,19,20
 680 -215 680 -215 677 -213 c 1,21,-1
 102 -59 l 2,0,1
109 232 m 1,22,23
 88 236 88 236 88 255 c 0,24,25
 88 272 88 272 109 276 c 1,26,-1
 687 276 l 1,27,28
 708 272 708 272 708 255 c 0,29,30
 708 236 708 236 687 232 c 1,31,-1
 109 232 l 1,22,23
88 393 m 0,32,33
 88 410 88 410 102 413 c 2,34,-1
 625 548 l 1,35,-1
 102 683 l 1,36,37
 88 688 88 688 88 703 c 0,38,39
 88 711 88 711 95 718 c 128,-1,40
 102 725 102 725 111 725 c 0,41,42
 116 725 116 725 119 724 c 2,43,-1
 693 569 l 2,44,45
 708 565 708 565 708 548 c 0,46,47
 708 534 708 534 693 528 c 1,48,-1
 117 372 l 2,49,50
 115 371 115 371 111 371 c 0,51,52
 102 371 102 371 95 378 c 128,-1,53
 88 385 88 385 88 393 c 0,32,33
EndSplineSet
Validated: 19457
EndChar

StartChar: frown
Encoding: 8994 8994 93
Width: 818
Flags: W
HStem: 344 44<296.347 521.489>
VStem: 58 42<124.097 170.602> 717 42<130.188 170.602>
LayerCount: 2
Fore
SplineSet
58 145 m 0,0,1
 58 150 58 150 62 158 c 0,2,3
 113 260 113 260 206.5 324 c 128,-1,4
 300 388 300 388 409 388 c 128,-1,5
 518 388 518 388 611 324 c 128,-1,6
 704 260 704 260 755 158 c 0,7,8
 759 150 759 150 759 145 c 0,9,10
 759 136 759 136 752.5 130 c 128,-1,11
 746 124 746 124 737 124 c 0,12,13
 723 124 723 124 717 135 c 0,14,15
 672 227 672 227 589.5 285.5 c 128,-1,16
 507 344 507 344 409 344 c 128,-1,17
 311 344 311 344 228 285.5 c 128,-1,18
 145 227 145 227 100 135 c 0,19,20
 94 124 94 124 81 124 c 0,21,22
 72 124 72 124 65 130 c 128,-1,23
 58 136 58 136 58 145 c 0,0,1
EndSplineSet
Validated: 19457
EndChar

StartChar: lless
Encoding: 8810 8810 94
Width: 1027
VWidth: 1000
Flags: W
LayerCount: 2
Fore
SplineSet
637 536 m 2,0,-1
 123 250 l 1,1,-1
 639 -36 l 2,2,3
 657 -45 657 -45 657 -58 c 0,4,5
 657 -79 657 -79 636 -79 c 0,6,7
 626 -79 626 -79 617 -73 c 2,8,-1
 74 228 l 2,9,10
 57 237 57 237 57 250 c 128,-1,11
 57 263 57 263 77 274 c 2,12,-1
 618 574 l 2,13,14
 628 580 628 580 636 580 c 0,15,16
 643 580 643 580 650 574 c 128,-1,17
 657 568 657 568 657 559 c 0,18,19
 657 553 657 553 655 549 c 128,-1,20
 653 545 653 545 649.5 543 c 128,-1,21
 646 541 646 541 637 536 c 2,0,-1
950 536 m 2,22,-1
 436 250 l 1,23,-1
 952 -36 l 2,24,25
 970 -45 970 -45 970 -58 c 0,26,27
 970 -79 970 -79 949 -79 c 0,28,29
 939 -79 939 -79 930 -73 c 2,30,-1
 387 228 l 2,31,32
 370 237 370 237 370 250 c 128,-1,33
 370 263 370 263 390 274 c 2,34,-1
 931 574 l 2,35,36
 941 580 941 580 949 580 c 0,37,38
 956 580 956 580 963 574 c 128,-1,39
 970 568 970 568 970 559 c 0,40,41
 970 553 970 553 968 549 c 128,-1,42
 966 545 966 545 962.5 543 c 128,-1,43
 959 541 959 541 950 536 c 2,22,-1
EndSplineSet
Validated: 3073
EndChar

StartChar: intercal
Encoding: 8890 8890 95
Width: 584
Flags: W
HStem: 353 88<64.25 248 336 518.75>
VStem: 248 88<-212.707 353>
LayerCount: 2
Fore
SplineSet
248 -177 m 1,0,-1
 248 353 l 1,1,-1
 100 353 l 1,2,3
 63 358 63 358 58 395 c 1,4,-1
 58 400 l 1,5,6
 63 436 63 436 100 441 c 1,7,-1
 483 441 l 1,8,9
 520 436 520 436 525 400 c 1,10,-1
 525 395 l 1,11,12
 520 358 520 358 483 353 c 1,13,-1
 336 353 l 1,14,-1
 336 -177 l 1,15,16
 331 -215 331 -215 295 -218 c 1,17,-1
 290 -218 l 1,18,19
 253 -215 253 -215 248 -177 c 1,0,-1
EndSplineSet
Validated: 19457
EndChar

StartChar: squaresolid
Encoding: 9632 9632 96
Width: 818
Flags: W
HStem: 0 723<58.1282 758.937>
VStem: 58 701<0.12793 722.937>
LayerCount: 2
Fore
SplineSet
58 20 m 1,0,-1
 58 703 l 2,1,2
 58 710 58 710 64.5 715.5 c 128,-1,3
 71 721 71 721 79 723 c 1,4,-1
 739 723 l 2,5,6
 746 723 746 723 751.5 716.5 c 128,-1,7
 757 710 757 710 759 703 c 1,8,-1
 759 20 l 2,9,10
 759 4 759 4 739 0 c 1,11,-1
 79 0 l 2,12,13
 62 0 62 0 58 20 c 1,0,-1
EndSplineSet
Validated: 19457
EndChar

StartChar: Leftrightarrow
Encoding: 8660 8660 97
Width: 1027
VWidth: 1000
Flags: W
HStem: 127 43<269 758> 331 43<269 758>
VStem: 307 47<-26.9033 32.4688> 673 47<468.531 527.903>
LayerCount: 2
Fore
SplineSet
269 374 m 1,0,-1
 758 374 l 1,1,2
 733 403 733 403 712 437.5 c 128,-1,3
 691 472 691 472 682 492.5 c 128,-1,4
 673 513 673 513 673 518 c 0,5,6
 673 531 673 531 694 531 c 0,7,8
 706 531 706 531 709.5 528 c 128,-1,9
 713 525 713 525 720 510 c 0,10,11
 797 338 797 338 979 264 c 0,12,13
 992 258 992 258 992 250 c 128,-1,14
 992 242 992 242 983 238 c 0,15,16
 882 197 882 197 819 134.5 c 128,-1,17
 756 72 756 72 715 -22 c 0,18,19
 711 -30 711 -30 694 -30 c 0,20,21
 673 -30 673 -30 673 -17 c 0,22,23
 673 -11 673 -11 682 9.5 c 128,-1,24
 691 30 691 30 712 63.5 c 128,-1,25
 733 97 733 97 758 127 c 1,26,-1
 269 127 l 1,27,28
 294 98 294 98 315 63.5 c 128,-1,29
 336 29 336 29 345 8.5 c 128,-1,30
 354 -12 354 -12 354 -17 c 0,31,32
 354 -30 354 -30 333 -30 c 0,33,34
 321 -30 321 -30 317.5 -27 c 128,-1,35
 314 -24 314 -24 307 -9 c 0,36,37
 230 163 230 163 48 237 c 0,38,39
 35 243 35 243 35 251 c 128,-1,40
 35 259 35 259 44 263 c 0,41,42
 145 304 145 304 208 366.5 c 128,-1,43
 271 429 271 429 312 523 c 0,44,45
 316 531 316 531 333 531 c 0,46,47
 354 531 354 531 354 518 c 0,48,49
 354 512 354 512 345 491.5 c 128,-1,50
 336 471 336 471 315 437.5 c 128,-1,51
 294 404 294 404 269 374 c 1,0,-1
228 170 m 1,52,-1
 799 170 l 1,53,54
 846 215 846 215 910 251 c 1,55,56
 850 282 850 282 799 331 c 1,57,-1
 228 331 l 1,58,59
 181 286 181 286 117 250 c 1,60,61
 177 219 177 219 228 170 c 1,52,-1
EndSplineSet
Validated: 19457
EndChar

StartChar: northeastarrow
Encoding: 8599 8599 98
Width: 1027
VWidth: 1000
Flags: W
HStem: 640 30<752.434 887.803> 652.5 43.5<705.462 791.254>
VStem: 916 30<475.666 611.803>
LayerCount: 2
Fore
SplineSet
920 613 m 1,0,-1
 100 -206 l 2,1,2
 87 -219 87 -219 79 -219 c 0,3,4
 57 -219 57 -219 57 -197 c 0,5,6
 57 -189 57 -189 70 -176 c 2,7,-1
 889 644 l 1,8,9
 863 640 863 640 841 640 c 0,10,11
 800 640 800 640 752 652.5 c 128,-1,12
 704 665 704 665 704 679 c 0,13,14
 704 685 704 685 709.5 690.5 c 128,-1,15
 715 696 715 696 721 696 c 0,16,17
 725 696 725 696 741 689 c 0,18,19
 788 670 788 670 842 670 c 0,20,21
 895 670 895 670 943 689 c 0,22,23
 956 694 956 694 957 694 c 0,24,25
 970 694 970 694 970 681 c 0,26,27
 970 680 970 680 965 667 c 0,28,29
 946 619 946 619 946 566 c 0,30,31
 946 511 946 511 967 459 c 0,32,33
 972 449 972 449 972 445 c 0,34,35
 972 439 972 439 966.5 433.5 c 128,-1,36
 961 428 961 428 955 428 c 0,37,38
 941 428 941 428 928.5 476 c 128,-1,39
 916 524 916 524 916 565 c 0,40,41
 916 587 916 587 920 613 c 1,0,-1
EndSplineSet
Validated: 19457
EndChar

StartChar: precedesim
Encoding: 8830 8830 99
Width: 818
Flags: W
HStem: -247 62<502.196 660.315> -69 62<157.34 314.804> 435 44<88.0205 389.918>
VStem: 58 31<-246.974 -153.203> 685 44<155.735 244.9 669.845 758.781> 728 31<-101.277 -7.02637>
LayerCount: 2
Fore
SplineSet
74 -247 m 0,0,1
 61 -247 61 -247 58 -220 c 1,2,-1
 58 -212 l 2,3,4
 58 -132 58 -132 107 -69.5 c 128,-1,5
 156 -7 156 -7 233 -7 c 0,6,7
 272 -7 272 -7 310 -25.5 c 128,-1,8
 348 -44 348 -44 379 -70 c 128,-1,9
 410 -96 410 -96 441 -122 c 128,-1,10
 472 -148 472 -148 509 -166.5 c 128,-1,11
 546 -185 546 -185 584 -185 c 0,12,13
 645 -185 645 -185 686.5 -140 c 128,-1,14
 728 -95 728 -95 728 -34 c 1,15,16
 731 -7 731 -7 743 -7 c 0,17,18
 756 -7 756 -7 759 -34 c 1,19,-1
 759 -42 l 2,20,21
 759 -121 759 -121 710.5 -184 c 128,-1,22
 662 -247 662 -247 584 -247 c 0,23,24
 545 -247 545 -247 507 -228.5 c 128,-1,25
 469 -210 469 -210 438 -184 c 128,-1,26
 407 -158 407 -158 376 -132 c 128,-1,27
 345 -106 345 -106 308 -87.5 c 128,-1,28
 271 -69 271 -69 233 -69 c 0,29,30
 173 -69 173 -69 131 -114 c 128,-1,31
 89 -159 89 -159 89 -220 c 1,32,33
 86 -247 86 -247 74 -247 c 0,0,1
109 435 m 1,34,35
 88 439 88 439 88 458 c 0,36,37
 88 475 88 475 109 479 c 1,38,39
 159 479 159 479 200.5 480.5 c 128,-1,40
 242 482 242 482 301.5 488 c 128,-1,41
 361 494 361 494 408 504.5 c 128,-1,42
 455 515 455 515 506.5 535 c 128,-1,43
 558 555 558 555 593.5 582.5 c 128,-1,44
 629 610 629 610 654.5 652 c 128,-1,45
 680 694 680 694 685 746 c 1,46,47
 689 766 689 766 708 766 c 0,48,49
 717 766 717 766 723 759 c 128,-1,50
 729 752 729 752 729 742 c 0,51,52
 707 518 707 518 390 458 c 1,53,54
 707 396 707 396 729 173 c 0,55,56
 729 163 729 163 723 155.5 c 128,-1,57
 717 148 717 148 708 148 c 0,58,59
 689 148 689 148 685 169 c 1,60,61
 680 221 680 221 654.5 262.5 c 128,-1,62
 629 304 629 304 593.5 331.5 c 128,-1,63
 558 359 558 359 506.5 379 c 128,-1,64
 455 399 455 399 408 409.5 c 128,-1,65
 361 420 361 420 301 426 c 128,-1,66
 241 432 241 432 200 433.5 c 128,-1,67
 159 435 159 435 109 435 c 1,34,35
EndSplineSet
Validated: 19457
EndChar

StartChar: equaldotrightleft
Encoding: 8787 8787 100
Width: 818
Flags: W
HStem: -114 115<41.0175 120.467> 130 44<58.0051 758.995> 338 44<58.0205 758.98> 510 115<697.017 777.467>
VStem: 24 114<-96.467 -16.5327> 680 115<527.017 607.467>
LayerCount: 2
Fore
SplineSet
24 -56 m 0,0,1
 24 -33 24 -33 40.5 -16 c 128,-1,2
 57 1 57 1 81 1 c 0,3,4
 104 1 104 1 121 -16 c 128,-1,5
 138 -33 138 -33 138 -56 c 0,6,7
 138 -80 138 -80 121 -97 c 128,-1,8
 104 -114 104 -114 81 -114 c 0,9,10
 57 -114 57 -114 40.5 -97 c 128,-1,11
 24 -80 24 -80 24 -56 c 0,0,1
79 130 m 1,12,13
 58 134 58 134 58 152 c 0,14,15
 58 168 58 168 79 174 c 1,16,-1
 739 174 l 1,17,18
 759 168 759 168 759 152 c 0,19,20
 759 134 759 134 739 130 c 1,21,-1
 79 130 l 1,12,13
79 338 m 1,22,23
 58 342 58 342 58 359 c 128,-1,24
 58 376 58 376 79 382 c 1,25,-1
 739 382 l 1,26,27
 759 376 759 376 759 359 c 128,-1,28
 759 342 759 342 739 338 c 1,29,-1
 79 338 l 1,22,23
680 567 m 128,-1,31
 680 591 680 591 696.5 608 c 128,-1,32
 713 625 713 625 737 625 c 0,33,34
 760 625 760 625 777.5 607.5 c 128,-1,35
 795 590 795 590 795 567 c 0,36,37
 795 543 795 543 778 526.5 c 128,-1,38
 761 510 761 510 737 510 c 128,-1,39
 713 510 713 510 696.5 526.5 c 128,-1,30
 680 543 680 543 680 567 c 128,-1,31
EndSplineSet
Validated: 19457
EndChar

StartChar: between
Encoding: 8812 8812 101
Width: 525
Flags: W
VStem: 77 53<107.249 404.751> 395 54<107.815 404.185>
LayerCount: 2
Fore
SplineSet
103 -240 m 0,0,1
 103 -230 103 -230 112 -225 c 0,2,3
 181 -187 181 -187 238 -131 c 1,4,5
 162 -52 162 -52 119.5 48.5 c 128,-1,6
 77 149 77 149 77 256 c 128,-1,7
 77 363 77 363 119.5 463.5 c 128,-1,8
 162 564 162 564 238 643 c 1,9,10
 182 697 182 697 112 737 c 0,11,12
 103 742 103 742 103 752 c 0,13,14
 103 758 103 758 108.5 763 c 128,-1,15
 114 768 114 768 121 768 c 1,16,17
 139 765 139 765 188 729 c 128,-1,18
 237 693 237 693 263 669 c 1,19,20
 285 690 285 690 338 729 c 128,-1,21
 391 768 391 768 406 768 c 0,22,23
 422 768 422 768 422 752 c 0,24,25
 422 742 422 742 414 737 c 0,26,27
 344 698 344 698 289 643 c 1,28,29
 364 564 364 564 406.5 463 c 128,-1,30
 449 362 449 362 449 256 c 128,-1,31
 449 150 449 150 406.5 49 c 128,-1,32
 364 -52 364 -52 289 -131 c 1,33,34
 289 -133 289 -133 291 -133 c 1,35,36
 344 -186 344 -186 414 -225 c 0,37,38
 422 -230 422 -230 422 -240 c 0,39,40
 422 -246 422 -246 416.5 -251 c 128,-1,41
 411 -256 411 -256 404 -256 c 1,42,43
 385 -253 385 -253 335.5 -216 c 128,-1,44
 286 -179 286 -179 263 -157 c 1,45,46
 237 -180 237 -180 186 -218 c 128,-1,47
 135 -256 135 -256 120 -256 c 0,48,49
 113 -256 113 -256 108 -251.5 c 128,-1,50
 103 -247 103 -247 103 -240 c 0,0,1
263 -103 m 1,51,52
 395 51 395 51 395 256 c 128,-1,53
 395 461 395 461 263 615 c 1,54,55
 130 462 130 462 130 256 c 128,-1,56
 130 50 130 50 263 -103 c 1,51,52
EndSplineSet
Validated: 19457
EndChar

StartChar: supersetdbl
Encoding: 8913 8913 102
Width: 818
Flags: W
HStem: -53 44<88.0205 517.859> 111 44<88.0051 481.963> 356 44<88.0205 481.963> 520 44<88.0205 517.859>
VStem: 521 44<194.083 317.334> 685 44<149.948 361.328>
LayerCount: 2
Fore
SplineSet
109 -53 m 1,0,1
 88 -49 88 -49 88 -32 c 0,2,3
 88 -13 88 -13 109 -9 c 1,4,-1
 407 -9 l 2,5,6
 520 -9 520 -9 602.5 67 c 128,-1,7
 685 143 685 143 685 256 c 0,8,9
 685 368 685 368 602.5 444 c 128,-1,10
 520 520 520 520 407 520 c 2,11,-1
 109 520 l 1,12,13
 88 524 88 524 88 543 c 0,14,15
 88 560 88 560 109 564 c 1,16,-1
 411 564 l 2,17,18
 541 564 541 564 635 474 c 128,-1,19
 729 384 729 384 729 256 c 0,20,21
 729 127 729 127 635 37 c 128,-1,22
 541 -53 541 -53 411 -53 c 2,23,-1
 109 -53 l 1,0,1
109 111 m 1,24,25
 88 115 88 115 88 133 c 128,-1,26
 88 151 88 151 109 155 c 1,27,-1
 411 155 l 2,28,29
 412 155 412 155 413.5 154.5 c 128,-1,30
 415 154 415 154 416 154 c 2,31,-1
 421 154 l 2,32,33
 461 154 461 154 491 184.5 c 128,-1,34
 521 215 521 215 521 256 c 128,-1,35
 521 297 521 297 491 327 c 128,-1,36
 461 357 461 357 421 357 c 2,37,-1
 416 357 l 2,38,39
 413 357 413 357 411 356 c 1,40,-1
 109 356 l 1,41,42
 88 360 88 360 88 379 c 0,43,44
 88 396 88 396 109 400 c 1,45,-1
 407 400 l 1,46,47
 409 401 409 401 414 401 c 2,48,-1
 420 401 l 2,49,50
 480 401 480 401 522.5 358 c 128,-1,51
 565 315 565 315 565 256 c 0,52,53
 565 196 565 196 522.5 153 c 128,-1,54
 480 110 480 110 420 110 c 2,55,-1
 414 110 l 2,56,57
 412 110 412 110 410 110.5 c 128,-1,58
 408 111 408 111 407 111 c 2,59,-1
 109 111 l 1,24,25
EndSplineSet
Validated: 19457
EndChar

StartChar: rightanglenw
Encoding: 9484 9484 103
Width: 525
Flags: W
HStem: 667 44<102 466.995>
VStem: 58 44<302.021 667>
LayerCount: 2
Fore
SplineSet
58 323 m 1,0,-1
 58 691 l 2,1,2
 58 698 58 698 64.5 703.5 c 128,-1,3
 71 709 71 709 79 711 c 1,4,-1
 446 711 l 1,5,6
 467 707 467 707 467 689 c 128,-1,7
 467 671 467 671 446 667 c 1,8,-1
 102 667 l 1,9,-1
 102 323 l 1,10,11
 98 302 98 302 81 302 c 128,-1,12
 64 302 64 302 58 323 c 1,0,-1
EndSplineSet
Validated: 19457
EndChar

StartChar: circleasterisk
Encoding: 8859 8859 104
Width: 818
Flags: W
HStem: -95 33<306.825 510.546> 129 58<215.818 229 588 601.182> 324 58<215.818 229 588 601.182> 573 33<307.108 510.546>
VStem: 57 33<154.171 357.47> 378 61<43.251 143.414 367.586 474.805> 727 33<153.902 357.47>
CounterMasks: 1 0e
LayerCount: 2
Fore
SplineSet
57 256 m 128,-1,1
 57 401 57 401 160 503.5 c 128,-1,2
 263 606 263 606 409 606 c 0,3,4
 554 606 554 606 657 503.5 c 128,-1,5
 760 401 760 401 760 256 c 0,6,7
 760 110 760 110 657 7.5 c 128,-1,8
 554 -95 554 -95 409 -95 c 0,9,10
 263 -95 263 -95 160 8 c 128,-1,0
 57 111 57 111 57 256 c 128,-1,1
90 256 m 0,11,12
 90 124 90 124 183.5 31 c 128,-1,13
 277 -62 277 -62 409 -62 c 0,14,15
 540 -62 540 -62 633.5 31 c 128,-1,16
 727 124 727 124 727 256 c 0,17,18
 727 387 727 387 633.5 480 c 128,-1,19
 540 573 540 573 409 573 c 128,-1,20
 278 573 278 573 184 480 c 128,-1,21
 90 387 90 387 90 256 c 0,11,12
245 129 m 0,22,23
 233 129 233 129 223.5 139 c 128,-1,24
 214 149 214 149 214 162 c 0,25,26
 214 179 214 179 229 187 c 2,27,-1
 377 256 l 1,28,-1
 229 324 l 1,29,30
 214 332 214 332 214 349 c 0,31,32
 214 362 214 362 223.5 372 c 128,-1,33
 233 382 233 382 245 382 c 0,34,35
 253 382 253 382 260 377 c 2,36,-1
 393 283 l 1,37,-1
 378 445 l 1,38,-1
 378 447 l 2,39,40
 378 459 378 459 387.5 467.5 c 128,-1,41
 397 476 397 476 409 476 c 128,-1,42
 421 476 421 476 430 467.5 c 128,-1,43
 439 459 439 459 439 447 c 2,44,-1
 439 445 l 1,45,-1
 424 283 l 1,46,-1
 557 377 l 2,47,48
 564 382 564 382 572 382 c 0,49,50
 584 382 584 382 593.5 372 c 128,-1,51
 603 362 603 362 603 349 c 0,52,53
 603 332 603 332 588 324 c 1,54,-1
 440 256 l 1,55,-1
 588 187 l 2,56,57
 603 179 603 179 603 162 c 0,58,59
 603 149 603 149 593.5 139 c 128,-1,60
 584 129 584 129 572 129 c 0,61,62
 564 129 564 129 557 134 c 2,63,-1
 424 228 l 1,64,-1
 439 66 l 1,65,-1
 439 63 l 2,66,67
 439 51 439 51 430 43 c 128,-1,68
 421 35 421 35 409 35 c 0,69,70
 396 35 396 35 387 43 c 128,-1,71
 378 51 378 51 378 63 c 2,72,-1
 378 66 l 1,73,-1
 393 228 l 1,74,-1
 260 134 l 2,75,76
 253 129 253 129 245 129 c 0,22,23
EndSplineSet
Validated: 19457
EndChar

StartChar: dblarrowup
Encoding: 8648 8648 105
Width: 876
Flags: W
HStem: -199 21G<259 267 609 617.5> 511 33<75.0032 118.215 758.785 801.997> 691 20G<259 266.5 609.5 617.5>
VStem: 242 43<-198.987 622> 592 44<-198.977 622>
LayerCount: 2
Fore
SplineSet
242 -179 m 2,0,-1
 242 622 l 1,1,2
 184 547 184 547 92 511 c 1,3,4
 88 511 l 2,5,6
 75 511 75 511 75 522 c 2,7,-1
 75 534 l 2,8,9
 75 542 75 542 83 544 c 0,10,11
 201 588 201 588 251 702 c 0,12,13
 255 711 255 711 263 711 c 0,14,15
 270 711 270 711 275 702 c 1,16,17
 323 590 323 590 438 546 c 1,18,19
 552 590 552 590 602 702 c 0,20,21
 606 711 606 711 613 711 c 0,22,23
 622 711 622 711 626 702 c 0,24,25
 676 588 676 588 794 544 c 0,26,27
 802 542 802 542 802 534 c 2,28,-1
 802 522 l 2,29,30
 802 511 802 511 790 511 c 2,31,32
 785 511 l 1,33,34
 693 547 693 547 636 622 c 1,35,-1
 636 -179 l 2,36,37
 636 -187 636 -187 629 -193 c 128,-1,38
 622 -199 622 -199 613 -199 c 0,39,40
 605 -199 605 -199 598.5 -193 c 128,-1,41
 592 -187 592 -187 592 -179 c 2,42,-1
 592 622 l 1,43,44
 535 547 535 547 442 511 c 1,45,-1
 434 511 l 1,46,47
 341 548 341 548 285 622 c 1,48,-1
 285 -179 l 2,49,50
 285 -187 285 -187 278 -193 c 128,-1,51
 271 -199 271 -199 263 -199 c 128,-1,52
 255 -199 255 -199 248.5 -193 c 128,-1,53
 242 -187 242 -187 242 -179 c 2,0,-1
EndSplineSet
Validated: 19457
EndChar

StartChar: squiggleleftright
Encoding: 8621 8621 106
Width: 1461
Flags: W
HStem: 233 45<148 291 1169 1312>
LayerCount: 2
Fore
SplineSet
216 85 m 1,0,1
 169 200 169 200 58 256 c 1,2,3
 169 310 169 310 216 426 c 1,4,-1
 252 426 l 1,5,6
 217 341 217 341 148 278 c 1,7,-1
 291 278 l 1,8,-1
 371 356 l 2,9,10
 377 362 377 362 386 362 c 128,-1,11
 395 362 395 362 401 356 c 2,12,-1
 558 202 l 1,13,-1
 715 356 l 2,14,15
 721 362 721 362 730 362 c 128,-1,16
 739 362 739 362 745 356 c 2,17,-1
 902 202 l 1,18,-1
 1059 356 l 2,19,20
 1065 362 1065 362 1074 362 c 0,21,22
 1084 362 1084 362 1090 356 c 2,23,-1
 1169 278 l 1,24,-1
 1312 278 l 1,25,26
 1243 341 1243 341 1208 426 c 1,27,-1
 1244 426 l 1,28,29
 1291 310 1291 310 1402 256 c 1,30,31
 1291 200 1291 200 1244 85 c 1,32,-1
 1208 85 l 1,33,34
 1243 170 1243 170 1312 233 c 1,35,-1
 1159 233 l 2,36,37
 1151 233 1151 233 1143 243 c 1,38,-1
 1074 309 l 1,39,-1
 918 155 l 2,40,41
 911 148 911 148 902 148 c 0,42,43
 894 148 894 148 887 155 c 2,44,-1
 730 309 l 1,45,-1
 573 155 l 2,46,47
 566 148 566 148 558 148 c 128,-1,48
 550 148 550 148 543 155 c 2,49,-1
 386 309 l 1,50,-1
 317 243 l 1,51,52
 309 233 309 233 302 233 c 2,53,-1
 148 233 l 1,54,55
 217 170 217 170 252 85 c 1,56,-1
 216 85 l 1,0,1
EndSplineSet
Validated: 19457
EndChar

StartChar: followsorcurly
Encoding: 8829 8829 107
Width: 818
Flags: W
HStem: 0 21G<106 119.5> 123 44<520.137 728.995> 287 44<508.1 728.995>
VStem: 88 44<7.73499 96.5859 521.531 609.781> 205 44<-156.781 -66.2695>
LayerCount: 2
Fore
SplineSet
227 -164 m 0,0,1
 217 -164 217 -164 211 -157 c 128,-1,2
 205 -150 205 -150 205 -140 c 1,3,4
 212 -72 212 -72 248 -17 c 128,-1,5
 284 38 284 38 334.5 71.5 c 128,-1,6
 385 105 385 105 451 127 c 128,-1,7
 517 149 517 149 579.5 158 c 128,-1,8
 642 167 642 167 706 167 c 0,9,10
 715 167 715 167 722 160.5 c 128,-1,11
 729 154 729 154 729 145 c 0,12,13
 729 127 729 127 710 123 c 1,14,15
 653 123 653 123 597 116 c 128,-1,16
 541 109 541 109 479.5 90 c 128,-1,17
 418 71 418 71 370.5 42 c 128,-1,18
 323 13 323 13 289 -35 c 128,-1,19
 255 -83 255 -83 249 -144 c 1,20,21
 245 -164 245 -164 227 -164 c 0,0,1
111 0 m 0,22,23
 101 0 101 0 94.5 7.5 c 128,-1,24
 88 15 88 15 88 25 c 0,25,26
 110 247 110 247 428 309 c 1,27,28
 110 369 110 369 88 594 c 0,29,30
 88 603 88 603 94.5 610 c 128,-1,31
 101 617 101 617 111 617 c 0,32,33
 128 617 128 617 132 598 c 1,34,35
 137 546 137 546 162.5 504.5 c 128,-1,36
 188 463 188 463 223.5 435.5 c 128,-1,37
 259 408 259 408 310.5 388 c 128,-1,38
 362 368 362 368 409.5 357 c 128,-1,39
 457 346 457 346 517 340 c 128,-1,40
 577 334 577 334 618.5 333 c 128,-1,41
 660 332 660 332 710 331 c 1,42,43
 729 327 729 327 729 309 c 128,-1,44
 729 291 729 291 710 287 c 1,45,46
 160 287 160 287 132 20 c 1,47,48
 128 0 128 0 111 0 c 0,22,23
EndSplineSet
Validated: 19457
EndChar

StartChar: arrowtripleright
Encoding: 8667 8667 108
Width: 1051
Flags: W
HStem: 26 44<58.0051 666> 233 45<64.704 866> 441 44<58.0205 666>
CounterMasks: 1 e0
LayerCount: 2
Fore
SplineSet
79 26 m 1,0,1
 58 30 58 30 58 48 c 128,-1,2
 58 66 58 66 79 70 c 1,3,-1
 696 70 l 1,4,5
 766 164 766 164 866 233 c 1,6,-1
 81 233 l 2,7,8
 71 233 71 233 64.5 239.5 c 128,-1,9
 58 246 58 246 58 256 c 0,10,11
 58 265 58 265 64.5 271.5 c 128,-1,12
 71 278 71 278 81 278 c 2,13,-1
 866 278 l 1,14,15
 766 347 766 347 696 441 c 1,16,-1
 79 441 l 1,17,18
 58 445 58 445 58 464 c 0,19,20
 58 481 58 481 79 485 c 1,21,-1
 666 485 l 1,22,23
 621 557 621 557 594 634 c 1,24,-1
 647 634 l 1,25,26
 690 513 690 513 774.5 415 c 128,-1,27
 859 317 859 317 972 256 c 1,28,29
 859 194 859 194 774.5 96 c 128,-1,30
 690 -2 690 -2 647 -123 c 1,31,-1
 594 -123 l 1,32,33
 621 -46 621 -46 666 26 c 1,34,-1
 79 26 l 1,0,1
EndSplineSet
Validated: 19457
EndChar

StartChar: intersectiondbl
Encoding: 8915 8915 109
Width: 701
Flags: W
HStem: 407 44<291.039 408.961> 570 44<225.636 475.139>
VStem: 58 44<-22.9805 468.675> 222 44<-22.9805 382.75> 434 44<-22.9805 382.75> 598 44<-22.9805 468.675>
LayerCount: 2
Fore
SplineSet
58 -3 m 1,0,-1
 58 397 l 2,1,2
 58 468 58 468 105.5 519 c 128,-1,3
 153 570 153 570 217.5 592 c 128,-1,4
 282 614 282 614 350 614 c 0,5,6
 419 614 419 614 483 592 c 128,-1,7
 547 570 547 570 594.5 519 c 128,-1,8
 642 468 642 468 642 397 c 2,9,-1
 642 -3 l 1,10,11
 638 -23 638 -23 621 -23 c 0,12,13
 602 -23 602 -23 598 -3 c 1,14,-1
 598 393 l 2,15,16
 598 452 598 452 557 494 c 128,-1,17
 516 536 516 536 462 553 c 128,-1,18
 408 570 408 570 350 570 c 0,19,20
 293 570 293 570 239 553 c 128,-1,21
 185 536 185 536 143.5 494 c 128,-1,22
 102 452 102 452 102 393 c 2,23,-1
 102 -3 l 1,24,25
 98 -23 98 -23 81 -23 c 0,26,27
 62 -23 62 -23 58 -3 c 1,0,-1
222 -3 m 1,28,-1
 222 338 l 2,29,30
 222 387 222 387 261.5 419 c 128,-1,31
 301 451 301 451 350 451 c 128,-1,32
 399 451 399 451 438.5 419 c 128,-1,33
 478 387 478 387 478 338 c 2,34,-1
 478 -3 l 1,35,36
 474 -23 474 -23 457 -23 c 0,37,38
 438 -23 438 -23 434 -3 c 1,39,-1
 434 334 l 2,40,41
 434 366 434 366 408.5 386.5 c 128,-1,42
 383 407 383 407 350 407 c 128,-1,43
 317 407 317 407 291.5 386.5 c 128,-1,44
 266 366 266 366 266 334 c 2,45,-1
 266 -3 l 1,46,47
 262 -23 262 -23 245 -23 c 0,48,49
 226 -23 226 -23 222 -3 c 1,28,-1
EndSplineSet
Validated: 19457
EndChar

StartChar: circleR
Encoding: 174 174 110
Width: 984
Flags: W
HStem: -181 44<356.412 627.464> -14 29<676.878 738.064> 0 32<221 288.326 375.674 442> 255 30<370 519.015> 507 32<221 288.326 376.707 543.775> 698 44<356.412 627.464>
VStem: 30 44<145.412 416.464> 294 76<48.2515 255 285 490.749> 593 92<332.316 459.932> 754 32<29.562 89.6094> 909 44<145.412 416.464>
LayerCount: 2
Fore
SplineSet
30 281 m 128,-1,1
 30 406 30 406 92 512 c 128,-1,2
 154 618 154 618 260.5 680 c 128,-1,3
 367 742 367 742 492 742 c 128,-1,4
 617 742 617 742 723 680 c 128,-1,5
 829 618 829 618 891 512 c 128,-1,6
 953 406 953 406 953 281 c 128,-1,7
 953 156 953 156 891 49.5 c 128,-1,8
 829 -57 829 -57 723 -119 c 128,-1,9
 617 -181 617 -181 492 -181 c 128,-1,10
 367 -181 367 -181 260.5 -119 c 128,-1,11
 154 -57 154 -57 92 49.5 c 128,-1,0
 30 156 30 156 30 281 c 128,-1,1
74 281 m 128,-1,13
 74 109 74 109 197 -14 c 128,-1,14
 320 -137 320 -137 492 -137 c 128,-1,15
 664 -137 664 -137 786.5 -14 c 128,-1,16
 909 109 909 109 909 281 c 128,-1,17
 909 453 909 453 786.5 575.5 c 128,-1,18
 664 698 664 698 492 698 c 128,-1,19
 320 698 320 698 197 575.5 c 128,-1,12
 74 453 74 453 74 281 c 128,-1,13
221 0 m 1,20,-1
 221 32 l 1,21,22
 239 32 239 32 248.5 32.5 c 128,-1,23
 258 33 258 33 270.5 36.5 c 128,-1,24
 283 40 283 40 288.5 48 c 128,-1,25
 294 56 294 56 294 70 c 2,26,-1
 294 469 l 2,27,28
 294 483 294 483 288.5 491 c 128,-1,29
 283 499 283 499 270.5 502.5 c 128,-1,30
 258 506 258 506 248.5 506.5 c 128,-1,31
 239 507 239 507 221 507 c 1,32,-1
 221 539 l 1,33,-1
 469 539 l 2,34,35
 514 539 514 539 561.5 525 c 128,-1,36
 609 511 609 511 647 477 c 128,-1,37
 685 443 685 443 685 396 c 128,-1,38
 685 349 685 349 646.5 315 c 128,-1,39
 608 281 608 281 557 267 c 1,40,41
 629 236 629 236 640 171 c 1,42,-1
 656 91 l 2,43,44
 659 75 659 75 661 65.5 c 128,-1,45
 663 56 663 56 669 42.5 c 128,-1,46
 675 29 675 29 684.5 22 c 128,-1,47
 694 15 694 15 708 15 c 0,48,49
 730 15 730 15 742 35 c 128,-1,50
 754 55 754 55 754 78 c 0,51,52
 754 82 754 82 758 86 c 128,-1,53
 762 90 762 90 766 90 c 2,54,-1
 775 90 l 2,55,56
 786 90 786 90 786 76 c 0,57,58
 786 41 786 41 764 13.5 c 128,-1,59
 742 -14 742 -14 708 -14 c 0,60,61
 647 -14 647 -14 604.5 13 c 128,-1,62
 562 40 562 40 562 97 c 2,63,-1
 562 166 l 2,64,65
 562 203 562 203 534 229 c 128,-1,66
 506 255 506 255 468 255 c 2,67,-1
 370 255 l 1,68,-1
 370 70 l 2,69,70
 370 56 370 56 375.5 48 c 128,-1,71
 381 40 381 40 393.5 36.5 c 128,-1,72
 406 33 406 33 415 32.5 c 128,-1,73
 424 32 424 32 442 32 c 1,74,-1
 442 0 l 1,75,76
 424 0 424 0 387 1.5 c 128,-1,77
 350 3 350 3 332 3 c 128,-1,78
 314 3 314 3 277 1.5 c 128,-1,79
 240 0 240 0 221 0 c 1,20,-1
370 285 m 1,80,-1
 457 285 l 2,81,82
 524 285 524 285 558.5 308.5 c 128,-1,83
 593 332 593 332 593 396 c 0,84,85
 593 459 593 459 558.5 483 c 128,-1,86
 524 507 524 507 457 507 c 2,87,-1
 406 507 l 2,88,89
 383 507 383 507 376.5 500 c 128,-1,90
 370 493 370 493 370 469 c 2,91,-1
 370 285 l 1,80,-1
EndSplineSet
Validated: 19457
EndChar

StartChar: fork
Encoding: 8916 8916 111
Width: 701
Flags: W
HStem: 497 45<208.346 329 373 488.857>
VStem: 58 44<-22.9805 411.43> 329 44<-22.9951 497 542 755.995> 598 44<-22.9805 412.717>
LayerCount: 2
Fore
SplineSet
58 -3 m 1,0,-1
 58 348 l 2,1,2
 58 395 58 395 84 434 c 128,-1,3
 110 473 110 473 151.5 495.5 c 128,-1,4
 193 518 193 518 239 530 c 128,-1,5
 285 542 285 542 329 542 c 1,6,-1
 329 735 l 1,7,8
 333 756 333 756 351 756 c 128,-1,9
 369 756 369 756 373 735 c 1,10,-1
 373 542 l 1,11,12
 417 542 417 542 462.5 530 c 128,-1,13
 508 518 508 518 549 495.5 c 128,-1,14
 590 473 590 473 616 434 c 128,-1,15
 642 395 642 395 642 348 c 2,16,-1
 642 -3 l 1,17,18
 638 -23 638 -23 621 -23 c 0,19,20
 602 -23 602 -23 598 -3 c 1,21,-1
 598 344 l 2,22,23
 598 383 598 383 575.5 414 c 128,-1,24
 553 445 553 445 518.5 462 c 128,-1,25
 484 479 484 479 446.5 488 c 128,-1,26
 409 497 409 497 373 497 c 1,27,-1
 373 -3 l 1,28,29
 369 -23 369 -23 351 -23 c 128,-1,30
 333 -23 333 -23 329 -3 c 1,31,-1
 329 497 l 1,32,33
 279 497 279 497 229.5 482.5 c 128,-1,34
 180 468 180 468 141 431.5 c 128,-1,35
 102 395 102 395 102 344 c 2,36,-1
 102 -3 l 1,37,38
 98 -23 98 -23 81 -23 c 0,39,40
 62 -23 62 -23 58 -3 c 1,0,-1
EndSplineSet
Validated: 19457
EndChar

StartChar: doublebarwedge
Encoding: 8966 8966 112
Width: 643
Flags: W
HStem: 586 44<58.0051 583.995> 794 44<58.0051 583.995>
VStem: 58 41<-103.841 -93> 542 42<-103.96 -90>
LayerCount: 2
Fore
SplineSet
58 -82 m 0,0,1
 58 -77 58 -77 61 -71 c 2,2,-1
 303 411 l 2,3,4
 308 421 308 421 322 421 c 0,5,6
 335 421 335 421 342 408 c 2,7,-1
 583 -74 l 2,8,9
 584 -77 584 -77 584 -82 c 0,10,11
 584 -91 584 -91 577 -97.5 c 128,-1,12
 570 -104 570 -104 562 -104 c 0,13,14
 547 -104 547 -104 542 -90 c 1,15,-1
 322 350 l 1,16,-1
 99 -93 l 2,17,18
 94 -104 94 -104 81 -104 c 0,19,20
 72 -104 72 -104 65 -97.5 c 128,-1,21
 58 -91 58 -91 58 -82 c 0,0,1
79 586 m 1,22,23
 58 590 58 590 58 608 c 128,-1,24
 58 626 58 626 79 630 c 1,25,-1
 564 630 l 1,26,27
 584 626 584 626 584 608 c 128,-1,28
 584 590 584 590 564 586 c 1,29,-1
 79 586 l 1,22,23
79 794 m 1,30,31
 58 798 58 798 58 816 c 128,-1,32
 58 834 58 834 79 838 c 1,33,-1
 564 838 l 1,34,35
 584 834 584 834 584 816 c 128,-1,36
 584 798 584 798 564 794 c 1,37,-1
 79 794 l 1,30,31
EndSplineSet
Validated: 19457
EndChar

StartChar: curlyprecede
Encoding: 8926 8926 113
Width: 818
Flags: W
HStem: 0 21G<698.5 712.5> 287 44<88.0051 310.17> 451 44<95.735 296.375>
VStem: 568 44<683.145 773.781> 685 44<7.73499 96.5859 521.531 616.981>
LayerCount: 2
Fore
SplineSet
109 287 m 1,0,1
 88 291 88 291 88 309 c 128,-1,2
 88 327 88 327 109 331 c 1,3,4
 159 331 159 331 200.5 332.5 c 128,-1,5
 242 334 242 334 301.5 340 c 128,-1,6
 361 346 361 346 408 357 c 128,-1,7
 455 368 455 368 506.5 388 c 128,-1,8
 558 408 558 408 593.5 435.5 c 128,-1,9
 629 463 629 463 654.5 504.5 c 128,-1,10
 680 546 680 546 685 598 c 1,11,12
 689 617 689 617 708 617 c 0,13,14
 717 617 717 617 723 610 c 128,-1,15
 729 603 729 603 729 594 c 0,16,17
 707 369 707 369 389 309 c 1,18,19
 707 247 707 247 729 25 c 0,20,21
 729 15 729 15 723 7.5 c 128,-1,22
 717 0 717 0 708 0 c 0,23,24
 689 0 689 0 685 20 c 1,25,26
 657 287 657 287 109 287 c 1,0,1
88 473 m 0,27,28
 88 491 88 491 109 495 c 1,29,30
 181 495 181 495 252 507.5 c 128,-1,31
 323 520 323 520 394 548 c 128,-1,32
 465 576 465 576 512.5 631 c 128,-1,33
 560 686 560 686 568 762 c 1,34,35
 572 781 572 781 590 781 c 0,36,37
 600 781 600 781 606 774 c 128,-1,38
 612 767 612 767 612 758 c 0,39,40
 606 701 606 701 580.5 653 c 128,-1,41
 555 605 555 605 515.5 572.5 c 128,-1,42
 476 540 476 540 428 515.5 c 128,-1,43
 380 491 380 491 324.5 477.5 c 128,-1,44
 269 464 269 464 217 457.5 c 128,-1,45
 165 451 165 451 113 451 c 0,46,47
 103 451 103 451 95.5 457 c 128,-1,48
 88 463 88 463 88 473 c 0,27,28
EndSplineSet
Validated: 19457
EndChar

StartChar: curlyfollow
Encoding: 8927 8927 114
Width: 818
Flags: W
HStem: 0 21G<106 119.5> 287 44<508.1 728.995> 451 44<520.137 721.781>
VStem: 88 44<7.73499 96.5859 521.531 609.781> 205 44<684.27 773.781>
LayerCount: 2
Fore
SplineSet
111 0 m 0,0,1
 101 0 101 0 94.5 7.5 c 128,-1,2
 88 15 88 15 88 25 c 0,3,4
 110 247 110 247 428 309 c 1,5,6
 110 369 110 369 88 594 c 0,7,8
 88 603 88 603 94.5 610 c 128,-1,9
 101 617 101 617 111 617 c 0,10,11
 128 617 128 617 132 598 c 1,12,13
 137 546 137 546 162.5 504.5 c 128,-1,14
 188 463 188 463 223.5 435.5 c 128,-1,15
 259 408 259 408 310.5 388 c 128,-1,16
 362 368 362 368 409.5 357 c 128,-1,17
 457 346 457 346 517 340 c 128,-1,18
 577 334 577 334 618.5 333 c 128,-1,19
 660 332 660 332 710 331 c 1,20,21
 729 327 729 327 729 309 c 128,-1,22
 729 291 729 291 710 287 c 1,23,24
 160 287 160 287 132 20 c 1,25,26
 128 0 128 0 111 0 c 0,0,1
205 758 m 0,27,28
 205 767 205 767 211 774 c 128,-1,29
 217 781 217 781 227 781 c 0,30,31
 245 781 245 781 249 762 c 1,32,33
 255 701 255 701 289 653 c 128,-1,34
 323 605 323 605 370.5 576 c 128,-1,35
 418 547 418 547 479.5 528 c 128,-1,36
 541 509 541 509 597 502 c 128,-1,37
 653 495 653 495 710 495 c 1,38,39
 729 491 729 491 729 473 c 0,40,41
 729 463 729 463 722 457 c 128,-1,42
 715 451 715 451 706 451 c 0,43,44
 642 451 642 451 579.5 460 c 128,-1,45
 517 469 517 469 451 491 c 128,-1,46
 385 513 385 513 334.5 546.5 c 128,-1,47
 284 580 284 580 248 635 c 128,-1,48
 212 690 212 690 205 758 c 0,27,28
EndSplineSet
Validated: 19457
EndChar

StartChar: precedecurly
Encoding: 8828 8828 115
Width: 818
Flags: W
HStem: 0 21G<698.5 712.5> 123 44<88.0051 296.375> 287 44<88.0051 310.17>
VStem: 568 44<-156.781 -65.1445> 685 44<7.73499 96.5859 521.531 616.981>
LayerCount: 2
Fore
SplineSet
109 123 m 1,0,1
 88 127 88 127 88 145 c 0,2,3
 88 154 88 154 95.5 160.5 c 128,-1,4
 103 167 103 167 113 167 c 0,5,6
 165 167 165 167 217 160.5 c 128,-1,7
 269 154 269 154 324.5 140.5 c 128,-1,8
 380 127 380 127 428 102.5 c 128,-1,9
 476 78 476 78 515.5 45.5 c 128,-1,10
 555 13 555 13 580.5 -35 c 128,-1,11
 606 -83 606 -83 612 -140 c 1,12,13
 612 -150 612 -150 606 -157 c 128,-1,14
 600 -164 600 -164 590 -164 c 0,15,16
 572 -164 572 -164 568 -144 c 1,17,18
 560 -68 560 -68 512.5 -13 c 128,-1,19
 465 42 465 42 394 70 c 128,-1,20
 323 98 323 98 252 110.5 c 128,-1,21
 181 123 181 123 109 123 c 1,0,1
109 287 m 1,22,23
 88 291 88 291 88 309 c 128,-1,24
 88 327 88 327 109 331 c 1,25,26
 159 331 159 331 200.5 332.5 c 128,-1,27
 242 334 242 334 301.5 340 c 128,-1,28
 361 346 361 346 408 357 c 128,-1,29
 455 368 455 368 506.5 388 c 128,-1,30
 558 408 558 408 593.5 435.5 c 128,-1,31
 629 463 629 463 654.5 504.5 c 128,-1,32
 680 546 680 546 685 598 c 1,33,34
 689 617 689 617 708 617 c 0,35,36
 717 617 717 617 723 610 c 128,-1,37
 729 603 729 603 729 594 c 0,38,39
 707 369 707 369 389 309 c 1,40,41
 707 247 707 247 729 25 c 0,42,43
 729 15 729 15 723 7.5 c 128,-1,44
 717 0 717 0 708 0 c 0,45,46
 689 0 689 0 685 20 c 1,47,48
 657 287 657 287 109 287 c 1,22,23
EndSplineSet
Validated: 19457
EndChar

StartChar: eqless
Encoding: 8924 8924 116
Width: 799
VWidth: 1000
Flags: W
HStem: -154 45<692 705.297> 406 43<694 705.812> 609 43<86.0085 711.991>
LayerCount: 2
Fore
SplineSet
692 -109 m 2,0,1
 712 -119 712 -119 712 -132 c 0,2,3
 712 -142 712 -142 705.5 -148 c 128,-1,4
 699 -154 699 -154 691 -154 c 0,5,6
 685 -154 685 -154 674 -148 c 2,7,-1
 106 124 l 2,8,9
 86 134 86 134 86 148 c 0,10,11
 86 160 86 160 104 169 c 2,12,-1
 672 442 l 2,13,14
 685 449 685 449 690 449 c 0,15,16
 700 449 700 449 706 442.5 c 128,-1,17
 712 436 712 436 712 428 c 0,18,19
 712 414 712 414 694 406 c 2,20,-1
 157 147 l 1,21,-1
 692 -109 l 2,0,1
677 652 m 2,22,23
 712 652 712 652 712 631 c 0,24,25
 712 609 712 609 677 609 c 2,26,-1
 121 609 l 2,27,28
 86 609 86 609 86 631 c 0,29,30
 86 652 86 652 121 652 c 2,31,-1
 677 652 l 2,22,23
EndSplineSet
Validated: 19457
EndChar

StartChar: staroperator
Encoding: 8902 8902 117
Width: 625
VWidth: 1000
Flags: W
LayerCount: 2
Fore
SplineSet
153 58 m 2,0,1
 153 59 l 1,2,-1
 210 233 l 1,3,-1
 62 341 l 2,4,5
 59 342 59 342 59 347 c 0,6,7
 59 354 59 354 66 354 c 2,8,-1
 249 354 l 1,9,-1
 306 527 l 2,10,11
 308 533 308 533 313 533 c 0,12,13
 317 533 317 533 319 529 c 2,14,-1
 376 354 l 1,15,-1
 559 354 l 2,16,17
 566 354 566 354 566 347 c 0,18,19
 566 342 566 342 563 341 c 2,20,-1
 415 233 l 1,21,-1
 472 59 l 1,22,23
 472 58 l 2,24,25
 472 50 472 50 465 50 c 0,26,27
 462 50 462 50 461 51 c 2,28,-1
 313 158 l 1,29,-1
 165 52 l 2,30,31
 161 50 161 50 160 50 c 0,32,33
 153 50 153 50 153 58 c 2,0,1
EndSplineSet
Validated: 3073
EndChar

StartChar: maltesecross
Encoding: 10016 10016 118
Width: 876
Flags: W
HStem: 344 23<330.194 426 450 545.512>
VStem: 426 24<241.732 344 367 469.268>
LayerCount: 2
Fore
SplineSet
72 122 m 0,0,1
 68 122 68 122 64 125.5 c 128,-1,2
 60 129 60 129 60 133 c 2,3,-1
 60 578 l 2,4,5
 60 587 60 587 72 589 c 0,6,7
 76 589 76 589 81 584 c 1,8,9
 194 367 194 367 426 367 c 1,10,11
 426 599 426 599 210 713 c 1,12,13
 206 717 206 717 205 722 c 0,14,15
 205 726 205 726 208.5 729.5 c 128,-1,16
 212 733 212 733 216 733 c 2,17,-1
 659 733 l 2,18,19
 669 733 669 733 671 722 c 0,20,21
 671 718 671 718 666 713 c 1,22,23
 450 599 450 599 450 367 c 1,24,25
 681 367 681 367 796 584 c 1,26,27
 800 588 800 588 805 589 c 0,28,29
 809 589 809 589 812.5 585.5 c 128,-1,30
 816 582 816 582 816 578 c 2,31,-1
 816 133 l 2,32,33
 816 124 816 124 805 122 c 1,34,35
 798 122 798 122 796 127 c 0,36,37
 681 344 681 344 450 344 c 1,38,39
 450 112 450 112 666 -2 c 1,40,41
 670 -6 670 -6 671 -11 c 0,42,43
 671 -15 671 -15 667 -19 c 128,-1,44
 663 -23 663 -23 659 -23 c 2,45,-1
 216 -23 l 2,46,47
 207 -23 207 -23 205 -11 c 0,48,49
 205 -7 205 -7 210 -2 c 1,50,51
 426 112 426 112 426 344 c 1,52,53
 194 344 194 344 81 127 c 1,54,55
 76 123 76 123 72 122 c 0,0,1
EndSplineSet
Validated: 19457
EndChar

StartChar: lessdot
Encoding: 8918 8918 119
Width: 799
VWidth: 1000
Flags: W
HStem: -52 40<702 711.898> 183 133<498.627 590.889> 510 41<699 711.986>
VStem: 478 133<203.111 295.889>
LayerCount: 2
Fore
SplineSet
97 231 m 2,0,1
 86 236 86 236 86 250 c 0,2,3
 86 263 86 263 100 270 c 2,4,-1
 683 550 l 2,5,6
 685 551 685 551 691 551 c 0,7,8
 699 551 699 551 705.5 544.5 c 128,-1,9
 712 538 712 538 712 530 c 0,10,11
 712 516 712 516 699 510 c 2,12,-1
 157 250 l 1,13,-1
 702 -12 l 2,14,15
 712 -17 712 -17 712 -30 c 0,16,17
 712 -39 712 -39 705.5 -45.5 c 128,-1,18
 699 -52 699 -52 691 -52 c 0,19,20
 685 -52 685 -52 683 -50 c 2,21,-1
 97 231 l 2,0,1
478 250 m 0,22,23
 478 277 478 277 498 296.5 c 128,-1,24
 518 316 518 316 545 316 c 128,-1,25
 572 316 572 316 591.5 296.5 c 128,-1,26
 611 277 611 277 611 250 c 0,27,28
 611 222 611 222 591.5 202.5 c 128,-1,29
 572 183 572 183 545 183 c 128,-1,30
 518 183 518 183 498 202.5 c 128,-1,31
 478 222 478 222 478 250 c 0,22,23
EndSplineSet
Validated: 19457
EndChar

StartChar: greaterdot
Encoding: 8919 8919 120
Width: 799
VWidth: 1000
Flags: W
HStem: 183 133<207.627 299.889> 510 40<86.043 97>
VStem: 187 133<203.111 295.889>
LayerCount: 2
Fore
SplineSet
86 -31 m 0,0,1
 86 -18 86 -18 100 -11 c 2,2,-1
 641 249 l 1,3,-1
 97 510 l 2,4,5
 86 515 86 515 86 529 c 0,6,7
 86 537 86 537 92.5 543.5 c 128,-1,8
 99 550 99 550 108 550 c 0,9,10
 113 550 113 550 116 549 c 2,11,-1
 702 267 l 2,12,13
 712 262 712 262 712 249 c 0,14,15
 712 235 712 235 699 229 c 2,16,-1
 116 -51 l 2,17,18
 113 -53 113 -53 108 -53 c 0,19,20
 99 -53 99 -53 92.5 -46.5 c 128,-1,21
 86 -40 86 -40 86 -31 c 0,0,1
187 250 m 0,22,23
 187 277 187 277 207 296.5 c 128,-1,24
 227 316 227 316 254 316 c 128,-1,25
 281 316 281 316 300.5 296.5 c 128,-1,26
 320 277 320 277 320 250 c 0,27,28
 320 222 320 222 300.5 202.5 c 128,-1,29
 281 183 281 183 254 183 c 128,-1,30
 227 183 227 183 207 202.5 c 128,-1,31
 187 222 187 222 187 250 c 0,22,23
EndSplineSet
Validated: 19457
EndChar

StartChar: dividemultiply
Encoding: 8903 8903 121
Width: 799
VWidth: 1000
Flags: W
HStem: -53 156<345.721 452.024> 0 21G<168.5 177.5 621 630> 228 43<57.0049 347 451 740.995> 396 156<345.721 452.764>
VStem: 322 155<-27.824 77.824 420.446 527.554>
LayerCount: 2
Fore
SplineSet
322 25 m 128,-1,1
 322 57 322 57 345 80 c 128,-1,2
 368 103 368 103 399 103 c 128,-1,3
 430 103 430 103 453.5 79.5 c 128,-1,4
 477 56 477 56 477 25 c 128,-1,5
 477 -6 477 -6 453.5 -29.5 c 128,-1,6
 430 -53 430 -53 399 -53 c 128,-1,7
 368 -53 368 -53 345 -30 c 128,-1,0
 322 -7 322 -7 322 25 c 128,-1,1
151 22 m 128,-1,9
 151 31 151 31 157 37 c 2,10,-1
 347 228 l 1,11,-1
 77 228 l 1,12,13
 57 232 57 232 57 250 c 0,14,15
 57 267 57 267 77 271 c 1,16,-1
 347 271 l 1,17,-1
 157 463 l 2,18,19
 151 468 151 468 151 478 c 0,20,21
 151 486 151 486 157.5 492.5 c 128,-1,22
 164 499 164 499 173 499 c 128,-1,23
 182 499 182 499 188 493 c 2,24,-1
 399 280 l 1,25,-1
 610 493 l 2,26,27
 616 499 616 499 626 499 c 0,28,29
 634 499 634 499 640.5 492.5 c 128,-1,30
 647 486 647 486 647 478 c 0,31,32
 647 468 647 468 641 463 c 2,33,-1
 451 271 l 1,34,-1
 722 271 l 1,35,36
 741 267 741 267 741 250 c 0,37,38
 741 232 741 232 722 228 c 1,39,-1
 451 228 l 1,40,-1
 641 37 l 2,41,42
 647 31 647 31 647 22 c 128,-1,43
 647 13 647 13 640.5 6.5 c 128,-1,44
 634 0 634 0 626 0 c 0,45,46
 616 0 616 0 611 6 c 2,47,-1
 399 219 l 1,48,-1
 188 7 l 2,49,50
 182 0 182 0 173 0 c 128,-1,51
 164 0 164 0 157.5 6.5 c 128,-1,8
 151 13 151 13 151 22 c 128,-1,9
322 474 m 128,-1,53
 322 506 322 506 345 529 c 128,-1,54
 368 552 368 552 399 552 c 128,-1,55
 430 552 430 552 453.5 529 c 128,-1,56
 477 506 477 506 477 474 c 128,-1,57
 477 442 477 442 453.5 419 c 128,-1,58
 430 396 430 396 399 396 c 128,-1,59
 368 396 368 396 345 419 c 128,-1,52
 322 442 322 442 322 474 c 128,-1,53
EndSplineSet
Validated: 19457
EndChar

StartChar: lessdbleqlgreater
Encoding: 10891 10891 122
Width: 818
Flags: W
HStem: 182 44<88.0205 728.981> 329 44<88.0051 728.995>
LayerCount: 2
Fore
SplineSet
88 -274 m 0,0,1
 88 -259 88 -259 102 -254 c 1,2,-1
 644 -109 l 1,3,-1
 102 35 l 2,4,5
 88 39 88 39 88 55 c 0,6,7
 88 64 88 64 95 71 c 128,-1,8
 102 78 102 78 111 78 c 0,9,10
 113 78 113 78 119 76 c 2,11,-1
 716 -89 l 1,12,13
 729 -94 729 -94 729 -109 c 0,14,15
 729 -127 729 -127 716 -130 c 2,16,-1
 117 -295 l 2,17,18
 115 -296 115 -296 111 -296 c 0,19,20
 102 -296 102 -296 95 -289 c 128,-1,21
 88 -282 88 -282 88 -274 c 0,0,1
109 182 m 1,22,23
 88 186 88 186 88 203 c 0,24,25
 88 222 88 222 109 226 c 1,26,-1
 710 226 l 1,27,28
 729 222 729 222 729 203 c 0,29,30
 729 186 729 186 710 182 c 1,31,-1
 109 182 l 1,22,23
109 329 m 1,32,33
 88 333 88 333 88 351 c 128,-1,34
 88 369 88 369 109 373 c 1,35,-1
 710 373 l 1,36,37
 729 369 729 369 729 351 c 128,-1,38
 729 333 729 333 710 329 c 1,39,-1
 109 329 l 1,32,33
102 644 m 1,40,41
 88 649 88 649 88 664 c 0,42,43
 88 682 88 682 102 685 c 2,44,-1
 700 850 l 2,45,46
 702 851 702 851 708 851 c 0,47,48
 716 851 716 851 722.5 844 c 128,-1,49
 729 837 729 837 729 829 c 0,50,51
 729 814 729 814 716 809 c 1,52,-1
 173 664 l 1,53,-1
 716 520 l 2,54,55
 729 517 729 517 729 500 c 0,56,57
 729 491 729 491 722.5 484 c 128,-1,58
 716 477 716 477 708 477 c 0,59,60
 703 477 703 477 699 479 c 2,61,-1
 102 644 l 1,40,41
EndSplineSet
Validated: 19457
EndChar

StartChar: greaterdbleqlless
Encoding: 10892 10892 123
Width: 818
Flags: W
HStem: 182 44<88.0205 728.981> 329 44<88.0051 728.995>
LayerCount: 2
Fore
SplineSet
102 -130 m 2,0,1
 88 -127 88 -127 88 -109 c 0,2,3
 88 -94 88 -94 102 -89 c 1,4,-1
 700 77 l 2,5,6
 702 78 702 78 708 78 c 0,7,8
 716 78 716 78 722.5 71 c 128,-1,9
 729 64 729 64 729 56 c 0,10,11
 729 39 729 39 716 36 c 2,12,-1
 173 -109 l 1,13,-1
 716 -253 l 1,14,15
 729 -260 729 -260 729 -273 c 0,16,17
 729 -282 729 -282 722.5 -289 c 128,-1,18
 716 -296 716 -296 708 -296 c 0,19,20
 703 -296 703 -296 699 -294 c 2,21,-1
 102 -130 l 2,0,1
109 182 m 1,22,23
 88 186 88 186 88 203 c 0,24,25
 88 222 88 222 109 226 c 1,26,-1
 710 226 l 1,27,28
 729 222 729 222 729 203 c 0,29,30
 729 186 729 186 710 182 c 1,31,-1
 109 182 l 1,22,23
109 329 m 1,32,33
 88 333 88 333 88 351 c 128,-1,34
 88 369 88 369 109 373 c 1,35,-1
 710 373 l 1,36,37
 729 369 729 369 729 351 c 128,-1,38
 729 333 729 333 710 329 c 1,39,-1
 109 329 l 1,32,33
88 500 m 0,40,41
 88 517 88 517 102 520 c 2,42,-1
 644 665 l 1,43,-1
 102 809 l 1,44,45
 88 815 88 815 88 829 c 0,46,47
 88 838 88 838 95 845 c 128,-1,48
 102 852 102 852 111 852 c 0,49,50
 113 852 113 852 119 850 c 2,51,-1
 716 686 l 2,52,53
 729 683 729 683 729 665 c 0,54,55
 729 650 729 650 716 645 c 1,56,-1
 117 479 l 2,57,58
 115 478 115 478 111 478 c 0,59,60
 102 478 102 478 95 485 c 128,-1,61
 88 492 88 492 88 500 c 0,40,41
EndSplineSet
Validated: 19457
EndChar

StartChar: lessorapproxeql
Encoding: 10885 10885 124
Width: 818
Flags: W
HStem: -229 61<493.99 666.218> -83 61<151.696 323.01> 19 62<493.99 666.218> 166 61<151.696 323.01> 339 43<716 728.987> 791 42<716 728.96>
VStem: 58 31<-228.975 -148.236 19.0264 100.764> 728 31<-102.764 -22.0254 147.065 226.975>
LayerCount: 2
Fore
SplineSet
74 -229 m 0,0,1
 61 -229 61 -229 58 -203 c 1,2,-1
 58 -195 l 2,3,4
 58 -122 58 -122 109 -72 c 128,-1,5
 160 -22 160 -22 233 -22 c 0,6,7
 278 -22 278 -22 326 -45 c 128,-1,8
 374 -68 374 -68 409.5 -95 c 128,-1,9
 445 -122 445 -122 492.5 -145 c 128,-1,10
 540 -168 540 -168 584 -168 c 0,11,12
 639 -168 639 -168 683.5 -134.5 c 128,-1,13
 728 -101 728 -101 728 -48 c 1,14,15
 731 -22 731 -22 743 -22 c 0,16,17
 756 -22 756 -22 759 -48 c 1,18,-1
 759 -56 l 2,19,20
 759 -128 759 -128 707.5 -178.5 c 128,-1,21
 656 -229 656 -229 584 -229 c 0,22,23
 539 -229 539 -229 491 -206 c 128,-1,24
 443 -183 443 -183 407.5 -156 c 128,-1,25
 372 -129 372 -129 324.5 -106 c 128,-1,26
 277 -83 277 -83 233 -83 c 0,27,28
 179 -83 179 -83 134 -116.5 c 128,-1,29
 89 -150 89 -150 89 -203 c 1,30,31
 86 -229 86 -229 74 -229 c 0,0,1
74 19 m 0,32,33
 61 19 61 19 58 46 c 1,34,-1
 58 54 l 2,35,36
 58 127 58 127 109 177 c 128,-1,37
 160 227 160 227 233 227 c 0,38,39
 278 227 278 227 326 204 c 128,-1,40
 374 181 374 181 409.5 154 c 128,-1,41
 445 127 445 127 492.5 104 c 128,-1,42
 540 81 540 81 584 81 c 0,43,44
 639 81 639 81 683.5 114.5 c 128,-1,45
 728 148 728 148 728 201 c 1,46,47
 731 227 731 227 743 227 c 0,48,49
 756 227 756 227 759 201 c 1,50,-1
 759 192 l 2,51,52
 759 120 759 120 707.5 69.5 c 128,-1,53
 656 19 656 19 584 19 c 0,54,55
 539 19 539 19 491 42 c 128,-1,56
 443 65 443 65 407.5 92.5 c 128,-1,57
 372 120 372 120 324.5 143 c 128,-1,58
 277 166 277 166 233 166 c 0,59,60
 179 166 179 166 134 132.5 c 128,-1,61
 89 99 89 99 89 46 c 1,62,63
 86 19 86 19 74 19 c 0,32,33
102 566 m 2,64,65
 88 571 88 571 88 586 c 128,-1,66
 88 601 88 601 102 607 c 2,67,-1
 699 832 l 2,68,69
 701 833 701 833 708 833 c 0,70,71
 716 833 716 833 722.5 826 c 128,-1,72
 729 819 729 819 729 811 c 0,73,74
 729 796 729 796 716 791 c 2,75,-1
 166 586 l 1,76,-1
 716 382 l 1,77,78
 729 376 729 376 729 361 c 0,79,80
 729 352 729 352 722.5 345.5 c 128,-1,81
 716 339 716 339 708 339 c 0,82,83
 701 339 701 339 699 341 c 1,84,-1
 102 566 l 2,64,65
EndSplineSet
Validated: 19457
EndChar

StartChar: greaterorapproxeql
Encoding: 10886 10886 125
Width: 818
Flags: W
HStem: -229 61<493.99 666.218> -83 61<151.696 323.01> 19 62<493.99 666.218> 166 61<151.696 323.01> 339 43<88.0137 102> 791 42<88.0427 102>
VStem: 58 31<-228.975 -148.236 19.0264 100.764> 728 31<-102.764 -22.0254 147.065 226.975>
LayerCount: 2
Fore
SplineSet
74 -229 m 4,0,1
 61 -229 61 -229 58 -203 c 1,2,-1
 58 -195 l 2,3,4
 58 -122 58 -122 109 -72 c 128,-1,5
 160 -22 160 -22 233 -22 c 0,6,7
 278 -22 278 -22 326 -45 c 128,-1,8
 374 -68 374 -68 409.5 -95 c 128,-1,9
 445 -122 445 -122 492.5 -145 c 128,-1,10
 540 -168 540 -168 584 -168 c 0,11,12
 639 -168 639 -168 683.5 -134.5 c 128,-1,13
 728 -101 728 -101 728 -48 c 1,14,15
 731 -22 731 -22 743 -22 c 0,16,17
 756 -22 756 -22 759 -48 c 1,18,-1
 759 -56 l 2,19,20
 759 -128 759 -128 707.5 -178.5 c 128,-1,21
 656 -229 656 -229 584 -229 c 0,22,23
 539 -229 539 -229 491 -206 c 128,-1,24
 443 -183 443 -183 407.5 -156 c 128,-1,25
 372 -129 372 -129 324.5 -106 c 128,-1,26
 277 -83 277 -83 233 -83 c 0,27,28
 179 -83 179 -83 134 -116.5 c 128,-1,29
 89 -150 89 -150 89 -203 c 1,30,31
 86 -229 86 -229 74 -229 c 4,0,1
74 19 m 4,32,33
 61 19 61 19 58 46 c 1,34,-1
 58 54 l 2,35,36
 58 127 58 127 109 177 c 128,-1,37
 160 227 160 227 233 227 c 0,38,39
 278 227 278 227 326 204 c 128,-1,40
 374 181 374 181 409.5 154 c 128,-1,41
 445 127 445 127 492.5 104 c 128,-1,42
 540 81 540 81 584 81 c 0,43,44
 639 81 639 81 683.5 114.5 c 128,-1,45
 728 148 728 148 728 201 c 1,46,47
 731 227 731 227 743 227 c 0,48,49
 756 227 756 227 759 201 c 1,50,-1
 759 192 l 2,51,52
 759 120 759 120 707.5 69.5 c 128,-1,53
 656 19 656 19 584 19 c 0,54,55
 539 19 539 19 491 42 c 128,-1,56
 443 65 443 65 407.5 92.5 c 128,-1,57
 372 120 372 120 324.5 143 c 128,-1,58
 277 166 277 166 233 166 c 0,59,60
 179 166 179 166 134 132.5 c 128,-1,61
 89 99 89 99 89 46 c 1,62,63
 86 19 86 19 74 19 c 4,32,33
88 361 m 0,64,65
 88 376 88 376 102 382 c 2,66,-1
 651 586 l 1,67,-1
 102 791 l 2,68,69
 88 796 88 796 88 811 c 0,70,71
 88 819 88 819 95 826 c 128,-1,72
 102 833 102 833 111 833 c 0,73,74
 116 833 116 833 119 832 c 2,75,-1
 716 607 l 1,76,77
 729 600 729 600 729 586 c 0,78,79
 729 571 729 571 716 566 c 2,80,-1
 119 341 l 2,81,82
 116 339 116 339 111 339 c 0,83,84
 102 339 102 339 95 345.5 c 128,-1,85
 88 352 88 352 88 361 c 0,64,65
EndSplineSet
Validated: 19457
EndChar

StartChar: slteqlless
Encoding: 10901 10901 126
Width: 818
Flags: W
HStem: -158 41<719 728.841> 337 41<88.0671 99> 418 42<716 728.96> 627 41<719 728.922>
LayerCount: 2
Fore
SplineSet
99 132 m 2,0,1
 88 137 88 137 88 152 c 0,2,3
 88 165 88 165 102 172 c 2,4,-1
 699 459 l 2,5,6
 701 460 701 460 708 460 c 0,7,8
 716 460 716 460 722.5 453 c 128,-1,9
 729 446 729 446 729 438 c 0,10,11
 729 424 729 424 716 418 c 2,12,-1
 161 152 l 1,13,-1
 719 -117 l 2,14,15
 729 -122 729 -122 729 -135 c 0,16,17
 729 -144 729 -144 722.5 -151 c 128,-1,18
 716 -158 716 -158 708 -158 c 0,19,20
 701 -158 701 -158 699 -156 c 2,21,-1
 99 132 l 2,0,1
88 359 m 0,22,23
 88 373 88 373 99 378 c 2,24,-1
 699 667 l 2,25,26
 701 668 701 668 708 668 c 0,27,28
 716 668 716 668 722.5 661 c 128,-1,29
 729 654 729 654 729 646 c 0,30,31
 729 632 729 632 719 627 c 2,32,-1
 119 339 l 2,33,34
 116 337 116 337 111 337 c 0,35,36
 102 337 102 337 95 343.5 c 128,-1,37
 88 350 88 350 88 359 c 0,22,23
EndSplineSet
Validated: 19457
EndChar

StartChar: slteqlgreater
Encoding: 10902 10902 127
Width: 818
Flags: W
HStem: -159 43<88.0615 102> 337 43<716 728.987> 418 41<88.0837 99> 626 42<88.0427 102>
LayerCount: 2
Fore
SplineSet
88 -136 m 0,0,1
 88 -123 88 -123 102 -116 c 2,2,-1
 656 151 l 1,3,-1
 99 418 l 2,4,5
 88 423 88 423 88 437 c 0,6,7
 88 445 88 445 95 452 c 128,-1,8
 102 459 102 459 111 459 c 0,9,10
 116 459 116 459 119 458 c 2,11,-1
 719 169 l 2,12,13
 729 164 729 164 729 151 c 0,14,15
 729 136 729 136 716 130 c 2,16,-1
 119 -157 l 2,17,18
 116 -159 116 -159 111 -159 c 0,19,20
 102 -159 102 -159 95 -152 c 128,-1,21
 88 -145 88 -145 88 -136 c 0,0,1
102 626 m 1,22,23
 88 631 88 631 88 646 c 0,24,25
 88 654 88 654 95 661 c 128,-1,26
 102 668 102 668 111 668 c 0,27,28
 116 668 116 668 119 667 c 2,29,-1
 716 380 l 2,30,31
 729 373 729 373 729 359 c 0,32,33
 729 350 729 350 722.5 343.5 c 128,-1,34
 716 337 716 337 708 337 c 0,35,36
 701 337 701 337 699 339 c 2,37,-1
 102 626 l 1,22,23
EndSplineSet
Validated: 19457
EndChar

StartChar: notexistential
Encoding: 8708 8708 128
Width: 571
VWidth: 1000
Flags: W
HStem: 0 43<57.0049 184 237 470> 326 43<71.0049 258 312 470> 651 43<57.0049 333 386 470>
VStem: 150 42<-170.996 -124.939> 378 42<818.939 864.996> 470 43<43 326 369 651>
LayerCount: 2
Fore
SplineSet
150 -150 m 2,0,1
 150 -145 l 1,2,-1
 184 0 l 1,3,-1
 77 0 l 1,4,5
 57 4 57 4 57 22 c 0,6,7
 57 39 57 39 77 43 c 1,8,-1
 193 43 l 1,9,-1
 258 326 l 1,10,-1
 91 326 l 1,11,12
 71 330 71 330 71 347 c 128,-1,13
 71 364 71 364 91 369 c 1,14,-1
 268 369 l 1,15,-1
 333 651 l 1,16,-1
 77 651 l 1,17,18
 57 655 57 655 57 673 c 0,19,20
 57 690 57 690 77 694 c 1,21,-1
 342 694 l 1,22,-1
 378 850 l 2,23,24
 381 865 381 865 399 865 c 0,25,26
 407 865 407 865 413.5 859 c 128,-1,27
 420 853 420 853 420 844 c 2,28,29
 420 839 l 1,30,-1
 386 694 l 1,31,-1
 494 694 l 1,32,33
 513 690 513 690 513 675 c 2,34,-1
 513 20 l 1,35,36
 509 0 509 0 494 0 c 2,37,-1
 228 0 l 1,38,-1
 192 -156 l 2,39,40
 189 -171 189 -171 171 -171 c 0,41,42
 163 -171 163 -171 156.5 -165 c 128,-1,43
 150 -159 150 -159 150 -150 c 2,0,1
237 43 m 1,44,-1
 470 43 l 1,45,-1
 470 326 l 1,46,-1
 302 326 l 1,47,-1
 237 43 l 1,44,-1
312 369 m 1,48,-1
 470 369 l 1,49,-1
 470 651 l 1,50,-1
 377 651 l 1,51,-1
 312 369 l 1,48,-1
EndSplineSet
Validated: 19457
EndChar

StartChar: emptyset
Encoding: 8709 8709 129
Width: 799
VWidth: 1000
Flags: W
HStem: -1 43<295.599 500.734> 551 43<295.933 502.401>
VStem: 102 43<194.579 398.231> 653 44<193.362 399.461>
LayerCount: 2
Fore
SplineSet
79 -1 m 0,0,1
 70 -1 70 -1 63.5 5.5 c 128,-1,2
 57 12 57 12 57 21 c 128,-1,3
 57 30 57 30 63 36 c 2,4,-1
 160 119 l 1,5,6
 102 197 102 197 102 297 c 0,7,8
 102 419 102 419 189.5 506.5 c 128,-1,9
 277 594 277 594 400 594 c 0,10,11
 470 594 470 594 530 563 c 0,12,13
 547 555 547 555 558 548 c 128,-1,14
 569 541 569 541 586 526.5 c 128,-1,15
 603 512 603 512 610 507 c 1,16,-1
 704 588 l 2,17,18
 712 594 712 594 719 594 c 0,19,20
 728 594 728 594 734.5 587.5 c 128,-1,21
 741 581 741 581 741 573 c 0,22,23
 741 562 741 562 735 558 c 2,24,-1
 638 474 l 1,25,26
 697 395 697 395 697 297 c 0,27,28
 697 174 697 174 609.5 86.5 c 128,-1,29
 522 -1 522 -1 398 -1 c 0,30,31
 328 -1 328 -1 268 30 c 0,32,33
 251 38 251 38 240 45 c 128,-1,34
 229 52 229 52 212 66.5 c 128,-1,35
 195 81 195 81 188 86 c 1,36,-1
 94 5 l 2,37,38
 87 -1 87 -1 79 -1 c 0,0,1
221 115 m 1,39,40
 294 42 294 42 399 42 c 128,-1,41
 504 42 504 42 578.5 117 c 128,-1,42
 653 192 653 192 653 297 c 0,43,44
 653 379 653 379 605 446 c 1,45,-1
 221 115 l 1,39,40
193 147 m 1,46,-1
 577 478 l 1,47,48
 504 551 504 551 399 551 c 128,-1,49
 294 551 294 551 219.5 476 c 128,-1,50
 145 401 145 401 145 297 c 0,51,52
 145 214 145 214 193 147 c 1,46,-1
EndSplineSet
Validated: 19457
EndChar

StartChar: hslash
Encoding: 8463 8463 130
Width: 556
VWidth: 1000
Flags: W
HStem: -11 29<410.119 470.576> 413 29<298.945 397.736> 470 31<70.0156 106.223> 592 31<475.747 511.984> 648 35<135 197.947>
VStem: 339 69<18.2966 131.219> 413 72<236.481 402.758> 533 32<100 154.991>
LayerCount: 2
Fore
SplineSet
54 19 m 0,0,1
 54 26 54 26 55 30 c 2,2,-1
 171 494 l 1,3,-1
 90 470 l 1,4,5
 86 470 l 2,6,7
 70 470 70 470 70 486 c 0,8,9
 70 498 70 498 82 501 c 2,10,-1
 180 530 l 1,11,-1
 200 608 l 2,12,13
 200 611 200 611 200.5 615 c 128,-1,14
 201 619 201 619 201 621 c 0,15,16
 201 648 201 648 127 648 c 1,17,-1
 135 683 l 1,18,-1
 297 694 l 1,19,-1
 262 555 l 1,20,-1
 492 623 l 1,21,-1
 496 623 l 2,22,23
 512 623 512 623 512 607 c 0,24,25
 512 595 512 595 500 592 c 2,26,-1
 253 519 l 1,27,-1
 215 368 l 1,28,29
 279 442 279 442 364 442 c 0,30,31
 419 442 419 442 452 414 c 128,-1,32
 485 386 485 386 485 332 c 0,33,34
 485 320 485 320 483 305.5 c 128,-1,35
 481 291 481 291 478.5 278.5 c 128,-1,36
 476 266 476 266 470.5 248 c 128,-1,37
 465 230 465 230 461.5 218.5 c 128,-1,38
 458 207 458 207 451 187 c 128,-1,39
 444 167 444 167 441 158.5 c 128,-1,40
 438 150 438 150 430 130 c 128,-1,41
 422 110 422 110 421 106 c 0,42,43
 408 74 408 74 408 48 c 0,44,45
 408 18 408 18 429 18 c 0,46,47
 468 18 468 18 494.5 58 c 128,-1,48
 521 98 521 98 533 146 c 0,49,50
 535 155 535 155 543 155 c 2,51,-1
 555 155 l 2,52,53
 565 155 565 155 565 142 c 1,54,55
 550 83 550 83 515 36 c 128,-1,56
 480 -11 480 -11 428 -11 c 0,57,58
 391 -11 391 -11 365 12.5 c 128,-1,59
 339 36 339 36 339 73 c 0,60,61
 339 93 339 93 346 110 c 0,62,63
 413 283 413 283 413 347 c 0,64,65
 413 413 413 413 362 413 c 0,66,67
 261 413 261 413 195 286 c 1,68,-1
 129 23 l 1,69,70
 118 -11 118 -11 86 -11 c 0,71,72
 72 -11 72 -11 63 -2.5 c 128,-1,73
 54 6 54 6 54 19 c 0,0,1
EndSplineSet
Validated: 19457
EndChar

StartChar: Omegainv
Encoding: 8487 8487 131
Width: 742
VWidth: 1000
Flags: W
HStem: -22 29<290.495 450.749> 616 67<105.127 237 504 635.873>
VStem: 57 103<133.929 325.915> 581 103<133.929 327.89>
LayerCount: 2
Fore
SplineSet
57 228 m 0,0,1
 57 312 57 312 137 433 c 1,2,-1
 168 479 l 2,3,4
 223 561 223 561 237 616 c 1,5,-1
 175 616 l 2,6,7
 154 616 154 616 142 616 c 128,-1,8
 130 616 130 616 119.5 612 c 128,-1,9
 109 608 109 608 105 607 c 128,-1,10
 101 606 101 606 95.5 594.5 c 128,-1,11
 90 583 90 583 89.5 578 c 128,-1,12
 89 573 89 573 85 552 c 128,-1,13
 81 531 81 531 78 519 c 1,14,-1
 46 519 l 1,15,-1
 80 683 l 1,16,-1
 262 683 l 2,17,18
 273 683 273 683 273 670 c 0,19,20
 273 618 273 618 255.5 557 c 128,-1,21
 238 496 238 496 216.5 448.5 c 128,-1,22
 195 401 195 401 177.5 340.5 c 128,-1,23
 160 280 160 280 160 228 c 0,24,25
 160 134 160 134 218.5 70.5 c 128,-1,26
 277 7 277 7 371 7 c 0,27,28
 464 7 464 7 522.5 70.5 c 128,-1,29
 581 134 581 134 581 228 c 0,30,31
 581 293 581 293 552.5 371 c 128,-1,32
 524 449 524 449 496 527 c 128,-1,33
 468 605 468 605 468 670 c 0,34,35
 468 683 468 683 480 683 c 2,36,-1
 661 683 l 1,37,-1
 695 519 l 1,38,-1
 663 519 l 1,39,40
 660 531 660 531 656 552 c 128,-1,41
 652 573 652 573 651.5 578 c 128,-1,42
 651 583 651 583 645.5 594.5 c 128,-1,43
 640 606 640 606 636 607 c 128,-1,44
 632 608 632 608 621.5 612 c 128,-1,45
 611 616 611 616 599 616 c 128,-1,46
 587 616 587 616 566 616 c 2,47,-1
 504 616 l 1,48,49
 518 561 518 561 573 479 c 2,50,-1
 605 431 l 2,51,52
 684 313 684 313 684 228 c 0,53,54
 684 152 684 152 635 93 c 128,-1,55
 586 34 586 34 515.5 6 c 128,-1,56
 445 -22 445 -22 371 -22 c 0,57,58
 296 -22 296 -22 225.5 6 c 128,-1,59
 155 34 155 34 106 93 c 128,-1,60
 57 152 57 152 57 228 c 0,0,1
EndSplineSet
Validated: 19457
EndChar

StartChar: beth
Encoding: 8502 8502 132
Width: 685
VWidth: 1000
Flags: W
HStem: -22 131<69.5 584> 592 124<103.66 583.193>
VStem: 57 46<719.23 762.926> 584 43<109 587.539>
LayerCount: 2
Fore
SplineSet
11 -22 m 1,0,1
 -8 -16 -8 -16 -8 0 c 0,2,3
 -8 9 -8 9 -2 15 c 2,4,-1
 86 103 l 2,5,6
 89 107 89 107 99 109 c 1,7,-1
 584 109 l 1,8,-1
 584 563 l 2,9,10
 584 578 584 578 570 585 c 128,-1,11
 556 592 556 592 539 592 c 2,12,-1
 141 592 l 2,13,14
 117 592 117 592 100.5 601 c 128,-1,15
 84 610 84 610 75.5 621.5 c 128,-1,16
 67 633 67 633 62.5 654 c 128,-1,17
 58 675 58 675 57.5 689 c 128,-1,18
 57 703 57 703 57 727 c 2,19,-1
 57 744 l 1,20,21
 60 763 60 763 79 763 c 0,22,23
 88 763 88 763 94 755.5 c 128,-1,24
 100 748 100 748 103 739.5 c 128,-1,25
 106 731 106 731 117 723.5 c 128,-1,26
 128 716 128 716 145 716 c 2,27,-1
 543 716 l 2,28,29
 572 716 572 716 590.5 704.5 c 128,-1,30
 609 693 609 693 616.5 669.5 c 128,-1,31
 624 646 624 646 625.5 628.5 c 128,-1,32
 627 611 627 611 627 580 c 2,33,-1
 627 109 l 1,34,-1
 673 109 l 1,35,36
 692 105 692 105 692 87 c 0,37,38
 692 78 692 78 686 72 c 2,39,-1
 598 -16 l 2,40,41
 597 -17 597 -17 585 -22 c 1,42,-1
 11 -22 l 1,0,1
EndSplineSet
Validated: 19457
EndChar

StartChar: daleth
Encoding: 8504 8504 133
Width: 685
VWidth: 1000
Flags: W
HStem: 592 124<103.66 548>
VStem: 57 46<719.23 762.926> 548 81<-32.1018 338.77> 548 44<382.906 592>
LayerCount: 2
Fore
SplineSet
564 -27 m 0,0,1
 548 40 548 40 548 101 c 2,2,-1
 548 592 l 1,3,-1
 141 592 l 2,4,5
 117 592 117 592 100.5 601 c 128,-1,6
 84 610 84 610 75.5 621.5 c 128,-1,7
 67 633 67 633 62.5 654 c 128,-1,8
 58 675 58 675 57.5 689 c 128,-1,9
 57 703 57 703 57 727 c 2,10,-1
 57 744 l 1,11,12
 62 763 62 763 79 763 c 0,13,14
 88 763 88 763 94 755.5 c 128,-1,15
 100 748 100 748 103 739.5 c 128,-1,16
 106 731 106 731 117 723.5 c 128,-1,17
 128 716 128 716 145 716 c 2,18,-1
 572 716 l 2,19,20
 599 716 599 716 620.5 698.5 c 128,-1,21
 642 681 642 681 642 654 c 0,22,23
 642 609 642 609 592 594 c 1,24,25
 592 504 592 504 611 344 c 1,26,27
 629 176 629 176 629 91 c 0,28,29
 629 -44 629 -44 585 -44 c 0,30,31
 568 -44 568 -44 564 -27 c 0,0,1
EndSplineSet
Validated: 19457
EndChar

StartChar: gimel
Encoding: 8503 8503 134
Width: 456
VWidth: 1000
Flags: W
HStem: -22 131<69.5 286.031> 592 124<103.66 320>
VStem: 57 46<719.23 762.926> 320 81<-32.1018 39 109 338.77> 320 44<382.906 592>
LayerCount: 2
Fore
SplineSet
11 -22 m 1,0,1
 -8 -16 -8 -16 -8 0 c 0,2,3
 -8 8 -8 8 -2 16 c 1,4,-1
 86 103 l 2,5,6
 92 109 92 109 99 109 c 2,7,-1
 320 109 l 1,8,-1
 320 592 l 1,9,-1
 141 592 l 2,10,11
 117 592 117 592 100.5 601 c 128,-1,12
 84 610 84 610 75.5 621.5 c 128,-1,13
 67 633 67 633 62.5 654 c 128,-1,14
 58 675 58 675 57.5 689 c 128,-1,15
 57 703 57 703 57 727 c 2,16,-1
 57 744 l 1,17,18
 62 763 62 763 79 763 c 0,19,20
 88 763 88 763 94 755.5 c 128,-1,21
 100 748 100 748 103 739.5 c 128,-1,22
 106 731 106 731 117 723.5 c 128,-1,23
 128 716 128 716 145 716 c 2,24,-1
 344 716 l 2,25,26
 371 716 371 716 392.5 698.5 c 128,-1,27
 414 681 414 681 414 654 c 0,28,29
 414 609 414 609 364 594 c 1,30,31
 364 504 364 504 383 344 c 1,32,33
 401 176 401 176 401 91 c 0,34,35
 401 -44 401 -44 357 -44 c 0,36,37
 352 -44 352 -44 347.5 -41 c 128,-1,38
 343 -38 343 -38 339.5 -31.5 c 128,-1,39
 336 -25 336 -25 334 -18.5 c 128,-1,40
 332 -12 332 -12 330 -2.5 c 128,-1,41
 328 7 328 7 327 12.5 c 128,-1,42
 326 18 326 18 325 27.5 c 128,-1,43
 324 37 324 37 324 39 c 1,44,-1
 270 -16 l 2,45,46
 264 -22 264 -22 257 -22 c 2,47,-1
 11 -22 l 1,0,1
EndSplineSet
Validated: 19457
EndChar

StartChar: Finv
Encoding: 8498 8498 135
Width: 571
VWidth: 1000
Flags: W
HStem: 0 43<57.0049 470> 326 43<211.019 470>
VStem: 470 43<43 326 369 693.995>
LayerCount: 2
Fore
SplineSet
77 0 m 1,0,1
 57 4 57 4 57 22 c 0,2,3
 57 39 57 39 77 43 c 1,4,-1
 470 43 l 1,5,-1
 470 326 l 1,6,-1
 230 326 l 1,7,8
 211 330 211 330 211 347 c 0,9,10
 211 363 211 363 230 369 c 1,11,-1
 470 369 l 1,12,-1
 470 675 l 1,13,14
 474 694 474 694 492 694 c 0,15,16
 509 694 509 694 513 675 c 1,17,-1
 513 20 l 2,18,19
 513 4 513 4 494 0 c 1,20,-1
 77 0 l 1,0,1
EndSplineSet
Validated: 19457
EndChar

StartChar: Gmir
Encoding: 8513 8513 136
Width: 656
VWidth: 1000
Flags: W
HStem: -22 43<86.9213 364.064> 266 43<83 255.995> 662 43<133.329 364.346>
VStem: 40 43<33.8477 266> 549 43<221.291 461.68>
LayerCount: 2
Fore
SplineSet
40 46 m 2,0,-1
 40 290 l 1,1,2
 44 309 44 309 60 309 c 2,3,-1
 237 309 l 1,4,5
 256 305 256 305 256 288 c 0,6,7
 256 270 256 270 237 266 c 1,8,-1
 83 266 l 1,9,-1
 83 50 l 2,10,11
 83 21 83 21 254 21 c 0,12,13
 381 21 381 21 465 117 c 128,-1,14
 549 213 549 213 549 342 c 0,15,16
 549 469 549 469 465 565.5 c 128,-1,17
 381 662 381 662 256 662 c 0,18,19
 163 662 163 662 81 617 c 0,20,21
 75 614 75 614 70 614 c 0,22,23
 61 614 61 614 54.5 620.5 c 128,-1,24
 48 627 48 627 48 636 c 0,25,26
 48 648 48 648 59 654 c 0,27,28
 152 705 152 705 256 705 c 0,29,30
 399 705 399 705 495.5 596 c 128,-1,31
 592 487 592 487 592 342 c 0,32,33
 592 196 592 196 495.5 87 c 128,-1,34
 399 -22 399 -22 256 -22 c 0,35,36
 40 -22 40 -22 40 46 c 2,0,-1
EndSplineSet
Validated: 19457
EndChar

StartChar: subsetornotdbleql
Encoding: 10955 10955 137
Width: 799
VWidth: 1000
Flags: W
HStem: -163 43<86.0049 267 360 711.995> 40 43<86.0049 438 531 711.995> 280 43<280.33 711.995> 780 43<280.33 711.995>
VStem: 86 43<453.772 649.797>
LayerCount: 2
Fore
SplineSet
178 -276 m 0,0,1
 178 -268 178 -268 182 -264 c 2,2,-1
 267 -163 l 1,3,-1
 106 -163 l 1,4,5
 86 -159 86 -159 86 -142 c 0,6,7
 86 -124 86 -124 106 -120 c 1,8,-1
 303 -120 l 1,9,-1
 438 40 l 1,10,-1
 106 40 l 1,11,12
 86 44 86 44 86 61 c 0,13,14
 86 79 86 79 106 83 c 1,15,-1
 475 83 l 1,16,-1
 583 212 l 2,17,18
 589 218 589 218 599 218 c 0,19,20
 607 218 607 218 613.5 211.5 c 128,-1,21
 620 205 620 205 620 197 c 0,22,23
 620 188 620 188 616 184 c 2,24,-1
 531 83 l 1,25,-1
 693 83 l 1,26,27
 712 79 712 79 712 61 c 0,28,29
 712 44 712 44 693 40 c 1,30,-1
 495 40 l 1,31,-1
 360 -120 l 1,32,-1
 693 -120 l 1,33,34
 712 -124 712 -124 712 -142 c 0,35,36
 712 -159 712 -159 693 -163 c 1,37,-1
 323 -163 l 1,38,-1
 215 -291 l 2,39,40
 209 -298 209 -298 200 -298 c 128,-1,41
 191 -298 191 -298 184.5 -291.5 c 128,-1,42
 178 -285 178 -285 178 -276 c 0,0,1
86 552 m 128,-1,44
 86 675 86 675 176.5 749 c 128,-1,45
 267 823 267 823 397 823 c 2,46,-1
 693 823 l 1,47,48
 712 819 712 819 712 802 c 0,49,50
 712 784 712 784 693 780 c 1,51,-1
 401 780 l 2,52,53
 286 780 286 780 207.5 719 c 128,-1,54
 129 658 129 658 129 552 c 0,55,56
 129 445 129 445 207.5 384 c 128,-1,57
 286 323 286 323 401 323 c 2,58,-1
 693 323 l 1,59,60
 712 319 712 319 712 302 c 0,61,62
 712 284 712 284 693 280 c 1,63,-1
 397 280 l 2,64,65
 267 280 267 280 176.5 354.5 c 128,-1,43
 86 429 86 429 86 552 c 128,-1,44
EndSplineSet
Validated: 19457
EndChar

StartChar: supersetornotdbleql
Encoding: 10956 10956 138
Width: 799
VWidth: 1000
Flags: W
HStem: -163 43<86.0049 267 360 711.995> 40 43<86.0049 438 531 711.995> 280 43<86.0049 517.67> 780 43<86.0049 517.67>
VStem: 669 43<453.772 649.797>
LayerCount: 2
Fore
SplineSet
178 -276 m 0,0,1
 178 -268 178 -268 184 -261 c 2,2,-1
 267 -163 l 1,3,-1
 106 -163 l 1,4,5
 86 -159 86 -159 86 -142 c 0,6,7
 86 -124 86 -124 106 -120 c 1,8,-1
 303 -120 l 1,9,-1
 438 40 l 1,10,-1
 106 40 l 1,11,12
 86 44 86 44 86 61 c 0,13,14
 86 79 86 79 106 83 c 1,15,-1
 475 83 l 1,16,-1
 584 212 l 2,17,18
 588 218 588 218 599 218 c 0,19,20
 607 218 607 218 613.5 211.5 c 128,-1,21
 620 205 620 205 620 197 c 0,22,23
 620 188 620 188 614 182 c 2,24,-1
 531 83 l 1,25,-1
 693 83 l 1,26,27
 712 79 712 79 712 61 c 0,28,29
 712 44 712 44 693 40 c 1,30,-1
 495 40 l 1,31,-1
 360 -120 l 1,32,-1
 693 -120 l 1,33,34
 712 -124 712 -124 712 -142 c 0,35,36
 712 -159 712 -159 693 -163 c 1,37,-1
 323 -163 l 1,38,-1
 215 -292 l 2,39,40
 209 -298 209 -298 200 -298 c 128,-1,41
 191 -298 191 -298 184.5 -291.5 c 128,-1,42
 178 -285 178 -285 178 -276 c 0,0,1
106 280 m 1,43,44
 86 284 86 284 86 302 c 0,45,46
 86 319 86 319 106 323 c 1,47,-1
 397 323 l 2,48,49
 512 323 512 323 590.5 384 c 128,-1,50
 669 445 669 445 669 552 c 0,51,52
 669 658 669 658 590.5 719 c 128,-1,53
 512 780 512 780 397 780 c 2,54,-1
 106 780 l 1,55,56
 86 784 86 784 86 802 c 0,57,58
 86 819 86 819 106 823 c 1,59,-1
 401 823 l 2,60,61
 531 823 531 823 621.5 749 c 128,-1,62
 712 675 712 675 712 552 c 128,-1,63
 712 429 712 429 621.5 354.5 c 128,-1,64
 531 280 531 280 401 280 c 2,65,-1
 106 280 l 1,43,44
EndSplineSet
Validated: 19457
EndChar

StartChar: precneqq
Encoding: 10933 10933 139
Width: 799
VWidth: 1000
Flags: W
HStem: -192 43<86.0049 255 354 711.995> 11 43<86.0049 444 543 711.995> 451 43<86.0049 316.144>
VStem: 669 43<178.219 265.27 680.161 773.993>
LayerCount: 2
Fore
SplineSet
183 -277 m 128,-1,1
 183 -268 183 -268 189 -262 c 2,2,-1
 255 -192 l 1,3,-1
 106 -192 l 1,4,5
 86 -188 86 -188 86 -171 c 0,6,7
 86 -153 86 -153 106 -149 c 1,8,-1
 295 -149 l 1,9,-1
 444 11 l 1,10,-1
 106 11 l 1,11,12
 86 15 86 15 86 33 c 0,13,14
 86 50 86 50 106 54 c 1,15,-1
 484 54 l 1,16,-1
 578 155 l 2,17,18
 584 161 584 161 593 161 c 128,-1,19
 602 161 602 161 608.5 154.5 c 128,-1,20
 615 148 615 148 615 139 c 128,-1,21
 615 130 615 130 609 124 c 2,22,-1
 543 54 l 1,23,-1
 693 54 l 1,24,25
 712 50 712 50 712 33 c 0,26,27
 712 15 712 15 693 11 c 1,28,-1
 503 11 l 1,29,-1
 354 -149 l 1,30,-1
 693 -149 l 1,31,32
 712 -153 712 -153 712 -171 c 0,33,34
 712 -188 712 -188 693 -192 c 1,35,-1
 314 -192 l 1,36,-1
 220 -293 l 2,37,38
 214 -299 214 -299 205 -299 c 128,-1,39
 196 -299 196 -299 189.5 -292.5 c 128,-1,0
 183 -286 183 -286 183 -277 c 128,-1,1
106 451 m 1,40,41
 86 455 86 455 86 473 c 0,42,43
 86 490 86 490 106 494 c 1,44,45
 642 494 642 494 669 755 c 1,46,47
 673 774 673 774 691 774 c 0,48,49
 700 774 700 774 706 767 c 128,-1,50
 712 760 712 760 712 751 c 0,51,52
 690 531 690 531 380 473 c 1,53,54
 690 413 690 413 712 195 c 1,55,56
 712 185 712 185 706 178 c 128,-1,57
 700 171 700 171 691 171 c 0,58,59
 673 171 673 171 669 191 c 1,60,61
 642 451 642 451 106 451 c 1,40,41
EndSplineSet
Validated: 19457
EndChar

StartChar: succneqq
Encoding: 10934 10934 140
Width: 799
VWidth: 1000
Flags: W
HStem: -192 43<86.0049 255 354 711.995> 11 43<86.0049 444 543 711.995> 449.5 46<418.886 711.981>
VStem: 86 43<171.006 265.27 680.161 766.781>
LayerCount: 2
Fore
SplineSet
183 -277 m 128,-1,1
 183 -268 183 -268 189 -262 c 2,2,-1
 255 -192 l 1,3,-1
 106 -192 l 1,4,5
 86 -188 86 -188 86 -171 c 0,6,7
 86 -153 86 -153 106 -149 c 1,8,-1
 295 -149 l 1,9,-1
 444 11 l 1,10,-1
 106 11 l 1,11,12
 86 15 86 15 86 33 c 0,13,14
 86 50 86 50 106 54 c 1,15,-1
 484 54 l 1,16,-1
 578 154 l 2,17,18
 585 161 585 161 593 161 c 0,19,20
 602 161 602 161 608.5 154.5 c 128,-1,21
 615 148 615 148 615 139 c 128,-1,22
 615 130 615 130 609 124 c 2,23,-1
 543 54 l 1,24,-1
 693 54 l 1,25,26
 712 50 712 50 712 33 c 0,27,28
 712 15 712 15 693 11 c 1,29,-1
 503 11 l 1,30,-1
 354 -149 l 1,31,-1
 693 -149 l 1,32,33
 712 -153 712 -153 712 -171 c 0,34,35
 712 -188 712 -188 693 -192 c 1,36,-1
 314 -192 l 1,37,-1
 220 -292 l 2,38,39
 213 -299 213 -299 205 -299 c 0,40,41
 196 -299 196 -299 189.5 -292.5 c 128,-1,0
 183 -286 183 -286 183 -277 c 128,-1,1
108 171 m 0,42,43
 86 171 86 171 86 195 c 1,44,45
 108 413 108 413 418 473 c 1,46,47
 109 531 109 531 86 751 c 0,48,49
 86 760 86 760 92 767 c 128,-1,50
 98 774 98 774 108 774 c 0,51,52
 125 774 125 774 129 755 c 1,53,54
 134 704 134 704 159 663.5 c 128,-1,55
 184 623 184 623 218.5 596 c 128,-1,56
 253 569 253 569 303 549.5 c 128,-1,57
 353 530 353 530 399.5 519.5 c 128,-1,58
 446 509 446 509 504.5 503 c 128,-1,59
 563 497 563 497 603.5 495.5 c 128,-1,60
 644 494 644 494 693 494 c 1,61,62
 712 490 712 490 712 473 c 0,63,64
 712 455 712 455 693 451 c 1,65,66
 644 451 644 451 603.5 449.5 c 128,-1,67
 563 448 563 448 504.5 442 c 128,-1,68
 446 436 446 436 399.5 425.5 c 128,-1,69
 353 415 353 415 303 395.5 c 128,-1,70
 253 376 253 376 218.5 349.5 c 128,-1,71
 184 323 184 323 159 282 c 128,-1,72
 134 241 134 241 129 191 c 1,73,74
 125 171 125 171 108 171 c 0,42,43
EndSplineSet
Validated: 19457
EndChar

StartChar: precnapprox
Encoding: 10937 10937 141
Width: 799
VWidth: 1000
Flags: W
HStem: -252 61<481.967 650.547> -109 60<146.922 316.41> -9 61<481.965 651.078> 134 61<147.453 316.259> 522 43<86.0049 410.674>
VStem: 57 30<-251.994 -173.775 -8.99365 69.7737> 255 41<-295.987 -283> 502 41<226 238.987> 669 43<280.219 359.807 727.624 813.993> 711 30<-127.225 -49.0063 116.226 194.994>
LayerCount: 2
Fore
SplineSet
72 -252 m 128,-1,1
 60 -252 60 -252 57 -226 c 1,2,-1
 57 -218 l 2,3,4
 57 -147 57 -147 107 -98 c 128,-1,5
 157 -49 157 -49 228 -49 c 0,6,7
 284 -49 284 -49 347 -85 c 1,8,-1
 415 51 l 1,9,10
 411 53 411 53 391.5 66.5 c 128,-1,11
 372 80 372 80 365.5 84 c 128,-1,12
 359 88 359 88 341 98.5 c 128,-1,13
 323 109 323 109 313 113 c 128,-1,14
 303 117 303 117 287 123.5 c 128,-1,15
 271 130 271 130 257 132 c 128,-1,16
 243 134 243 134 228 134 c 0,17,18
 175 134 175 134 131 101.5 c 128,-1,19
 87 69 87 69 87 17 c 1,20,21
 84 -9 84 -9 72 -9 c 128,-1,22
 60 -9 60 -9 57 17 c 1,23,-1
 57 25 l 2,24,25
 57 97 57 97 107 146 c 128,-1,26
 157 195 157 195 228 195 c 0,27,28
 251 195 251 195 273.5 189.5 c 128,-1,29
 296 184 296 184 320 172 c 128,-1,30
 344 160 344 160 358.5 151.5 c 128,-1,31
 373 143 373 143 400.5 124 c 128,-1,32
 428 105 428 105 438 99 c 1,33,-1
 502 226 l 2,34,35
 508 239 508 239 522 239 c 0,36,37
 530 239 530 239 536.5 233 c 128,-1,38
 543 227 543 227 543 218 c 0,39,40
 543 212 543 212 542 210 c 2,41,-1
 476 77 l 1,42,43
 477 76 477 76 478 76 c 0,44,45
 528 52 528 52 570 52 c 0,46,47
 623 52 623 52 667 84.5 c 128,-1,48
 711 117 711 117 711 169 c 1,49,50
 714 195 714 195 726 195 c 128,-1,51
 738 195 738 195 741 169 c 1,52,-1
 741 161 l 2,53,54
 741 89 741 89 691 40 c 128,-1,55
 641 -9 641 -9 570 -9 c 0,56,57
 516 -9 516 -9 451 28 c 1,58,-1
 383 -108 l 1,59,60
 388 -111 388 -111 411 -126.5 c 128,-1,61
 434 -142 434 -142 442 -146.5 c 128,-1,62
 450 -151 450 -151 470.5 -162.5 c 128,-1,63
 491 -174 491 -174 503.5 -178.5 c 128,-1,64
 516 -183 516 -183 534.5 -187 c 128,-1,65
 553 -191 553 -191 570 -191 c 0,66,67
 623 -191 623 -191 667 -158.5 c 128,-1,68
 711 -126 711 -126 711 -75 c 1,69,70
 714 -49 714 -49 726 -49 c 128,-1,71
 738 -49 738 -49 741 -75 c 1,72,-1
 741 -83 l 2,73,74
 741 -154 741 -154 691 -203 c 128,-1,75
 641 -252 641 -252 570 -252 c 0,76,77
 547 -252 547 -252 524.5 -246.5 c 128,-1,78
 502 -241 502 -241 478 -229 c 128,-1,79
 454 -217 454 -217 439.5 -208.5 c 128,-1,80
 425 -200 425 -200 397.5 -181 c 128,-1,81
 370 -162 370 -162 360 -156 c 1,82,-1
 296 -283 l 2,83,84
 290 -296 290 -296 276 -296 c 0,85,86
 268 -296 268 -296 261.5 -290 c 128,-1,87
 255 -284 255 -284 255 -275 c 0,88,89
 255 -269 255 -269 256 -267 c 2,90,-1
 322 -134 l 1,91,92
 321 -133 321 -133 320 -133 c 0,93,94
 270 -109 270 -109 228 -109 c 0,95,96
 175 -109 175 -109 131 -141.5 c 128,-1,97
 87 -174 87 -174 87 -226 c 1,98,0
 84 -252 84 -252 72 -252 c 128,-1,1
106 522 m 1,99,100
 86 526 86 526 86 544 c 0,101,102
 86 561 86 561 106 565 c 1,103,104
 147 565 147 565 171.5 565.5 c 128,-1,105
 196 566 196 566 244.5 568 c 128,-1,106
 293 570 293 570 325 573.5 c 128,-1,107
 357 577 357 577 403.5 585 c 128,-1,108
 450 593 450 593 481.5 604.5 c 128,-1,109
 513 616 513 616 549 633.5 c 128,-1,110
 585 651 585 651 608 673 c 128,-1,111
 631 695 631 695 648 726.5 c 128,-1,112
 665 758 665 758 669 795 c 1,113,114
 673 814 673 814 691 814 c 0,115,116
 700 814 700 814 706 807 c 128,-1,117
 712 800 712 800 712 791 c 1,118,119
 689 594 689 594 423 544 c 1,120,121
 689 492 689 492 712 297 c 1,122,123
 712 287 712 287 706 280 c 128,-1,124
 700 273 700 273 691 273 c 0,125,126
 673 273 673 273 669 293 c 1,127,128
 665 330 665 330 648 361 c 128,-1,129
 631 392 631 392 608 414 c 128,-1,130
 585 436 585 436 549 454 c 128,-1,131
 513 472 513 472 481.5 483 c 128,-1,132
 450 494 450 494 403.5 502 c 128,-1,133
 357 510 357 510 325 513.5 c 128,-1,134
 293 517 293 517 244.5 519 c 128,-1,135
 196 521 196 521 171.5 521.5 c 128,-1,136
 147 522 147 522 106 522 c 1,99,100
EndSplineSet
Validated: 19457
EndChar

StartChar: succnapprox
Encoding: 10938 10938 142
Width: 799
VWidth: 1000
Flags: W
HStem: -252 61<481.967 650.547> -109 60<146.922 316.41> -9 61<481.965 651.078> 134 61<147.453 316.259> 522 43<387.326 711.995>
VStem: 57 30<-251.994 -173.775 -8.99365 69.7737> 86 43<273.006 359.238 727.624 806.781> 255 41<-295.987 -283> 502 41<226 238.987> 711 30<-127.225 -49.0063 116.226 194.994>
LayerCount: 2
Fore
SplineSet
72 -252 m 128,-1,1
 60 -252 60 -252 57 -226 c 1,2,-1
 57 -218 l 2,3,4
 57 -147 57 -147 107 -98 c 128,-1,5
 157 -49 157 -49 228 -49 c 0,6,7
 284 -49 284 -49 347 -85 c 1,8,-1
 415 51 l 1,9,10
 411 53 411 53 391.5 66.5 c 128,-1,11
 372 80 372 80 365.5 84 c 128,-1,12
 359 88 359 88 341 98.5 c 128,-1,13
 323 109 323 109 313 113 c 128,-1,14
 303 117 303 117 287 123.5 c 128,-1,15
 271 130 271 130 257 132 c 128,-1,16
 243 134 243 134 228 134 c 0,17,18
 175 134 175 134 131 101.5 c 128,-1,19
 87 69 87 69 87 17 c 1,20,21
 84 -9 84 -9 72 -9 c 128,-1,22
 60 -9 60 -9 57 17 c 1,23,-1
 57 25 l 2,24,25
 57 97 57 97 107 146 c 128,-1,26
 157 195 157 195 228 195 c 0,27,28
 251 195 251 195 273.5 189.5 c 128,-1,29
 296 184 296 184 320 172 c 128,-1,30
 344 160 344 160 358.5 151.5 c 128,-1,31
 373 143 373 143 400.5 124 c 128,-1,32
 428 105 428 105 438 99 c 1,33,-1
 502 226 l 2,34,35
 508 239 508 239 522 239 c 0,36,37
 530 239 530 239 536.5 233 c 128,-1,38
 543 227 543 227 543 218 c 0,39,40
 543 212 543 212 542 210 c 2,41,-1
 476 77 l 1,42,43
 477 76 477 76 478 76 c 0,44,45
 528 52 528 52 570 52 c 0,46,47
 623 52 623 52 667 84.5 c 128,-1,48
 711 117 711 117 711 169 c 1,49,50
 714 195 714 195 726 195 c 128,-1,51
 738 195 738 195 741 169 c 1,52,-1
 741 161 l 2,53,54
 741 89 741 89 691 40 c 128,-1,55
 641 -9 641 -9 570 -9 c 0,56,57
 516 -9 516 -9 451 28 c 1,58,-1
 383 -108 l 1,59,60
 388 -111 388 -111 411 -126.5 c 128,-1,61
 434 -142 434 -142 442 -146.5 c 128,-1,62
 450 -151 450 -151 470.5 -162.5 c 128,-1,63
 491 -174 491 -174 503.5 -178.5 c 128,-1,64
 516 -183 516 -183 534.5 -187 c 128,-1,65
 553 -191 553 -191 570 -191 c 0,66,67
 623 -191 623 -191 667 -158.5 c 128,-1,68
 711 -126 711 -126 711 -75 c 1,69,70
 714 -49 714 -49 726 -49 c 128,-1,71
 738 -49 738 -49 741 -75 c 1,72,-1
 741 -83 l 2,73,74
 741 -154 741 -154 691 -203 c 128,-1,75
 641 -252 641 -252 570 -252 c 0,76,77
 547 -252 547 -252 524.5 -246.5 c 128,-1,78
 502 -241 502 -241 478 -229 c 128,-1,79
 454 -217 454 -217 439.5 -208.5 c 128,-1,80
 425 -200 425 -200 397.5 -181 c 128,-1,81
 370 -162 370 -162 360 -156 c 1,82,-1
 296 -283 l 2,83,84
 290 -296 290 -296 276 -296 c 0,85,86
 268 -296 268 -296 261.5 -290 c 128,-1,87
 255 -284 255 -284 255 -275 c 0,88,89
 255 -269 255 -269 256 -267 c 2,90,-1
 322 -134 l 1,91,92
 321 -133 321 -133 320 -133 c 0,93,94
 270 -109 270 -109 228 -109 c 0,95,96
 175 -109 175 -109 131 -141.5 c 128,-1,97
 87 -174 87 -174 87 -226 c 1,98,0
 84 -252 84 -252 72 -252 c 128,-1,1
108 273 m 0,99,100
 86 273 86 273 86 297 c 1,101,102
 108 490 108 490 375 544 c 1,103,104
 109 594 109 594 86 791 c 1,105,106
 86 800 86 800 92 807 c 128,-1,107
 98 814 98 814 108 814 c 0,108,109
 125 814 125 814 129 795 c 1,110,111
 133 758 133 758 150 726.5 c 128,-1,112
 167 695 167 695 190 673 c 128,-1,113
 213 651 213 651 249 633.5 c 128,-1,114
 285 616 285 616 316.5 604.5 c 128,-1,115
 348 593 348 593 394.5 585 c 128,-1,116
 441 577 441 577 473.5 573.5 c 128,-1,117
 506 570 506 570 554.5 568 c 128,-1,118
 603 566 603 566 627 565.5 c 128,-1,119
 651 565 651 565 693 565 c 1,120,121
 712 561 712 561 712 544 c 0,122,123
 712 526 712 526 693 522 c 1,124,125
 651 522 651 522 627 521.5 c 128,-1,126
 603 521 603 521 554.5 519 c 128,-1,127
 506 517 506 517 473.5 513.5 c 128,-1,128
 441 510 441 510 394.5 502 c 128,-1,129
 348 494 348 494 316.5 483 c 128,-1,130
 285 472 285 472 249 454 c 128,-1,131
 213 436 213 436 190 414 c 128,-1,132
 167 392 167 392 150 361 c 128,-1,133
 133 330 133 330 129 293 c 1,134,135
 125 273 125 273 108 273 c 0,99,100
EndSplineSet
Validated: 19457
EndChar

StartChar: lessnotdbleql
Encoding: 8808 8808 143
Width: 799
VWidth: 1000
Flags: W
HStem: -192 43<86.0049 255 354 711.995> 11 43<86.0049 444 543 711.995> 171 40<702 711.898> 733 41<699 711.986>
LayerCount: 2
Fore
SplineSet
183 -277 m 128,-1,1
 183 -268 183 -268 189 -262 c 2,2,-1
 255 -192 l 1,3,-1
 106 -192 l 1,4,5
 86 -188 86 -188 86 -171 c 0,6,7
 86 -153 86 -153 106 -149 c 1,8,-1
 295 -149 l 1,9,-1
 444 11 l 1,10,-1
 106 11 l 1,11,12
 86 15 86 15 86 33 c 0,13,14
 86 50 86 50 106 54 c 1,15,-1
 484 54 l 1,16,-1
 578 155 l 2,17,18
 584 161 584 161 593 161 c 128,-1,19
 602 161 602 161 608.5 154.5 c 128,-1,20
 615 148 615 148 615 139 c 128,-1,21
 615 130 615 130 609 124 c 2,22,-1
 543 54 l 1,23,-1
 693 54 l 1,24,25
 712 50 712 50 712 33 c 0,26,27
 712 15 712 15 693 11 c 1,28,-1
 503 11 l 1,29,-1
 354 -149 l 1,30,-1
 693 -149 l 1,31,32
 712 -153 712 -153 712 -171 c 0,33,34
 712 -188 712 -188 693 -192 c 1,35,-1
 314 -192 l 1,36,-1
 220 -293 l 2,37,38
 214 -299 214 -299 205 -299 c 128,-1,39
 196 -299 196 -299 189.5 -292.5 c 128,-1,0
 183 -286 183 -286 183 -277 c 128,-1,1
97 454 m 2,40,41
 86 459 86 459 86 473 c 0,42,43
 86 486 86 486 100 493 c 2,44,-1
 683 773 l 2,45,46
 685 774 685 774 691 774 c 0,47,48
 699 774 699 774 705.5 767.5 c 128,-1,49
 712 761 712 761 712 753 c 0,50,51
 712 739 712 739 699 733 c 2,52,-1
 157 473 l 1,53,-1
 702 211 l 2,54,55
 712 206 712 206 712 193 c 0,56,57
 712 184 712 184 705.5 177.5 c 128,-1,58
 699 171 699 171 691 171 c 0,59,60
 685 171 685 171 683 173 c 2,61,-1
 97 454 l 2,40,41
EndSplineSet
Validated: 19457
EndChar

StartChar: greaternotdbleql
Encoding: 8809 8809 144
Width: 799
VWidth: 1000
Flags: W
HStem: -192 43<86.0049 255 354 711.995> 11 43<86.0049 444 543 711.995> 734 40<86.043 97>
LayerCount: 2
Fore
SplineSet
183 -277 m 128,-1,1
 183 -268 183 -268 189 -262 c 2,2,-1
 255 -192 l 1,3,-1
 106 -192 l 1,4,5
 86 -188 86 -188 86 -171 c 0,6,7
 86 -153 86 -153 106 -149 c 1,8,-1
 295 -149 l 1,9,-1
 444 11 l 1,10,-1
 106 11 l 1,11,12
 86 15 86 15 86 33 c 0,13,14
 86 50 86 50 106 54 c 1,15,-1
 484 54 l 1,16,-1
 578 154 l 2,17,18
 585 161 585 161 593 161 c 0,19,20
 602 161 602 161 608.5 154.5 c 128,-1,21
 615 148 615 148 615 139 c 128,-1,22
 615 130 615 130 609 124 c 2,23,-1
 543 54 l 1,24,-1
 693 54 l 1,25,26
 712 50 712 50 712 33 c 0,27,28
 712 15 712 15 693 11 c 1,29,-1
 503 11 l 1,30,-1
 354 -149 l 1,31,-1
 693 -149 l 1,32,33
 712 -153 712 -153 712 -171 c 0,34,35
 712 -188 712 -188 693 -192 c 1,36,-1
 314 -192 l 1,37,-1
 220 -292 l 2,38,39
 213 -299 213 -299 205 -299 c 0,40,41
 196 -299 196 -299 189.5 -292.5 c 128,-1,0
 183 -286 183 -286 183 -277 c 128,-1,1
86 193 m 0,42,43
 86 206 86 206 100 213 c 2,44,-1
 641 473 l 1,45,-1
 97 734 l 2,46,47
 86 739 86 739 86 753 c 0,48,49
 86 761 86 761 92.5 767.5 c 128,-1,50
 99 774 99 774 108 774 c 0,51,52
 113 774 113 774 116 773 c 2,53,-1
 702 491 l 2,54,55
 712 486 712 486 712 473 c 0,56,57
 712 459 712 459 699 453 c 2,58,-1
 116 173 l 2,59,60
 113 171 113 171 108 171 c 0,61,62
 99 171 99 171 92.5 177.5 c 128,-1,63
 86 184 86 184 86 193 c 0,42,43
EndSplineSet
Validated: 19457
EndChar

StartChar: notprecede
Encoding: 8832 8832 145
Width: 799
VWidth: 1000
Flags: W
HStem: 228 43<86.0049 318.323> 531 20G<682 695.5>
VStem: 150 40<-221.96 -212> 608 40<712 721.96> 669 43<-51.9932 39.4268 453.824 543.781>
LayerCount: 2
Fore
SplineSet
150 -201 m 0,0,1
 150 -195 150 -195 151 -193 c 2,2,-1
 355 210 l 1,3,4
 252 228 252 228 106 228 c 1,5,6
 86 232 86 232 86 250 c 0,7,8
 86 267 86 267 106 271 c 1,9,10
 280 271 280 271 399 297 c 1,11,-1
 608 712 l 1,12,13
 615 722 615 722 627 722 c 0,14,15
 635 722 635 722 641.5 715.5 c 128,-1,16
 648 709 648 709 648 701 c 0,17,18
 648 695 648 695 647 693 c 2,19,-1
 454 312 l 1,20,21
 653 372 653 372 669 531 c 1,22,23
 673 551 673 551 691 551 c 0,24,25
 700 551 700 551 706 544 c 128,-1,26
 712 537 712 537 712 527 c 1,27,28
 700 413 700 413 611 343 c 1,29,30
 585 321 585 321 545 301 c 0,31,32
 511 285 511 285 479 275 c 0,33,34
 471 272 471 272 431 260 c 0,35,36
 428 259 428 259 427 259 c 128,-1,37
 426 259 426 259 425.5 258 c 128,-1,38
 425 257 425 257 424.5 255.5 c 128,-1,39
 424 254 424 254 422.5 250 c 128,-1,40
 421 246 421 246 419 241 c 1,41,42
 690 176 690 176 712 -29 c 0,43,44
 712 -38 712 -38 706 -45 c 128,-1,45
 700 -52 700 -52 691 -52 c 0,46,47
 672 -52 672 -52 669 -33 c 0,48,49
 650 146 650 146 399 202 c 1,50,-1
 190 -212 l 1,51,52
 183 -222 183 -222 171 -222 c 0,53,54
 163 -222 163 -222 156.5 -215.5 c 128,-1,55
 150 -209 150 -209 150 -201 c 0,0,1
EndSplineSet
Validated: 19457
EndChar

StartChar: notfollow
Encoding: 8833 8833 146
Width: 799
VWidth: 1000
Flags: W
HStem: 228 43<483.123 711.995> 258 39<332.994 379> 531 20G<97 116.5>
VStem: 86 43<-44.7808 44.1641 458.621 550.994> 150 40<-221.96 -212> 608 40<712 721.96>
LayerCount: 2
Fore
SplineSet
150 -201 m 0,0,1
 150 -195 150 -195 151 -193 c 2,2,-1
 343 187 l 1,3,4
 145 125 145 125 129 -33 c 1,5,6
 126 -52 126 -52 108 -52 c 0,7,8
 98 -52 98 -52 92 -45 c 128,-1,9
 86 -38 86 -38 86 -29 c 0,10,11
 98 85 98 85 188 156 c 0,12,13
 218 180 218 180 254 198 c 0,14,15
 286 213 286 213 320 225 c 0,16,17
 328 228 328 228 344 232 c 128,-1,18
 360 236 360 236 368 239 c 0,19,20
 370 240 370 240 371 240 c 128,-1,21
 372 240 372 240 372.5 240.5 c 128,-1,22
 373 241 373 241 373 242 c 128,-1,23
 373 243 373 243 373.5 245 c 128,-1,24
 374 247 374 247 375.5 250.5 c 128,-1,25
 377 254 377 254 379 258 c 1,26,27
 107 320 107 320 86 527 c 1,28,29
 86 551 86 551 108 551 c 0,30,31
 125 551 125 551 129 531 c 1,32,33
 148 352 148 352 399 297 c 1,34,-1
 608 712 l 1,35,36
 615 722 615 722 627 722 c 0,37,38
 635 722 635 722 641.5 715.5 c 128,-1,39
 648 709 648 709 648 701 c 0,40,41
 648 695 648 695 647 693 c 2,42,-1
 443 289 l 1,43,44
 545 271 545 271 693 271 c 1,45,46
 712 267 712 267 712 250 c 0,47,48
 712 232 712 232 693 228 c 1,49,50
 518 228 518 228 399 202 c 1,51,-1
 190 -212 l 1,52,53
 183 -222 183 -222 171 -222 c 0,54,55
 163 -222 163 -222 156.5 -215.5 c 128,-1,56
 150 -209 150 -209 150 -201 c 0,0,1
EndSplineSet
Validated: 19457
EndChar

StartChar: followsim
Encoding: 8831 8831 147
Width: 818
Flags: W
HStem: -247 62<502.196 660.315> -69 62<157.34 314.804> 435 44<427.082 728.979>
VStem: 58 31<-246.974 -153.203> 88 44<155.735 244.9 669.845 758.781> 728 31<-101.277 -7.02637>
LayerCount: 2
Fore
SplineSet
74 -247 m 0,0,1
 61 -247 61 -247 58 -220 c 1,2,-1
 58 -212 l 2,3,4
 58 -132 58 -132 107 -69.5 c 128,-1,5
 156 -7 156 -7 233 -7 c 0,6,7
 272 -7 272 -7 310 -25.5 c 128,-1,8
 348 -44 348 -44 379 -70 c 128,-1,9
 410 -96 410 -96 441 -122 c 128,-1,10
 472 -148 472 -148 509 -166.5 c 128,-1,11
 546 -185 546 -185 584 -185 c 0,12,13
 645 -185 645 -185 686.5 -140 c 128,-1,14
 728 -95 728 -95 728 -34 c 1,15,16
 731 -7 731 -7 743 -7 c 0,17,18
 756 -7 756 -7 759 -34 c 1,19,-1
 759 -42 l 2,20,21
 759 -121 759 -121 710.5 -184 c 128,-1,22
 662 -247 662 -247 584 -247 c 0,23,24
 545 -247 545 -247 507 -228.5 c 128,-1,25
 469 -210 469 -210 438 -184 c 128,-1,26
 407 -158 407 -158 376 -132 c 128,-1,27
 345 -106 345 -106 308 -87.5 c 128,-1,28
 271 -69 271 -69 233 -69 c 0,29,30
 173 -69 173 -69 131 -114 c 128,-1,31
 89 -159 89 -159 89 -220 c 1,32,33
 86 -247 86 -247 74 -247 c 0,0,1
708 435 m 1,34,35
 658 435 658 435 617 433.5 c 128,-1,36
 576 432 576 432 516 426 c 128,-1,37
 456 420 456 420 409 409.5 c 128,-1,38
 362 399 362 399 310.5 379 c 128,-1,39
 259 359 259 359 223.5 331.5 c 128,-1,40
 188 304 188 304 162.5 262.5 c 128,-1,41
 137 221 137 221 132 169 c 1,42,43
 128 148 128 148 109 148 c 0,44,45
 100 148 100 148 94 155.5 c 128,-1,46
 88 163 88 163 88 173 c 0,47,48
 110 396 110 396 427 458 c 1,49,50
 110 518 110 518 88 742 c 0,51,52
 88 752 88 752 94 759 c 128,-1,53
 100 766 100 766 109 766 c 0,54,55
 128 766 128 766 132 746 c 1,56,57
 137 694 137 694 162.5 652 c 128,-1,58
 188 610 188 610 223.5 582.5 c 128,-1,59
 259 555 259 555 310.5 535 c 128,-1,60
 362 515 362 515 409 504.5 c 128,-1,61
 456 494 456 494 515.5 488 c 128,-1,62
 575 482 575 482 616.5 481 c 128,-1,63
 658 480 658 480 708 479 c 1,64,65
 729 475 729 475 729 458 c 0,66,67
 729 439 729 439 708 435 c 1,34,35
EndSplineSet
Validated: 19457
EndChar

StartChar: precedenotsim
Encoding: 8936 8936 148
Width: 799
VWidth: 1000
Flags: W
HStem: -151 60<492.559 644.336> 23 60<154.319 305.358> 485 43<86.0049 316.485>
VStem: 57 30<-150.994 -60.8906> 669 43<242.219 324.977 693.872 777.993> 711 30<-8.60938 82.9937>
LayerCount: 2
Fore
SplineSet
72 -151 m 128,-1,1
 60 -151 60 -151 57 -125 c 1,2,-1
 57 -117 l 2,3,4
 57 -39 57 -39 105 22 c 128,-1,5
 153 83 153 83 228 83 c 0,6,7
 300 83 300 83 394 3 c 1,8,-1
 503 200 l 1,9,10
 510 210 510 210 522 210 c 0,11,12
 530 210 530 210 536.5 204 c 128,-1,13
 543 198 543 198 543 189 c 0,14,15
 543 182 543 182 540 178 c 2,16,-1
 428 -26 l 1,17,18
 509 -91 509 -91 570 -91 c 0,19,20
 629 -91 629 -91 670 -47 c 128,-1,21
 711 -3 711 -3 711 57 c 1,22,23
 714 83 714 83 726 83 c 128,-1,24
 738 83 738 83 741 57 c 1,25,-1
 741 49 l 2,26,27
 741 -29 741 -29 693.5 -90 c 128,-1,28
 646 -151 646 -151 570 -151 c 0,29,30
 526 -151 526 -151 487.5 -130 c 128,-1,31
 449 -109 449 -109 403 -70 c 1,32,-1
 295 -267 l 1,33,34
 288 -277 288 -277 276 -277 c 0,35,36
 268 -277 268 -277 261.5 -271 c 128,-1,37
 255 -265 255 -265 255 -256 c 0,38,39
 255 -250 255 -250 258 -245 c 2,40,-1
 370 -42 l 1,41,42
 289 23 289 23 228 23 c 0,43,44
 170 23 170 23 128.5 -21.5 c 128,-1,45
 87 -66 87 -66 87 -125 c 1,46,0
 84 -151 84 -151 72 -151 c 128,-1,1
106 485 m 1,47,48
 86 489 86 489 86 507 c 0,49,50
 86 524 86 524 106 528 c 1,51,52
 643 528 643 528 669 759 c 0,53,54
 671 778 671 778 691 778 c 0,55,56
 700 778 700 778 706 771 c 128,-1,57
 712 764 712 764 712 755 c 0,58,59
 698 566 698 566 381 507 c 1,60,61
 446 494 446 494 497 477 c 128,-1,62
 548 460 548 460 597.5 431.5 c 128,-1,63
 647 403 647 403 676.5 359.5 c 128,-1,64
 706 316 706 316 712 259 c 1,65,66
 712 249 712 249 706 242 c 128,-1,67
 700 235 700 235 691 235 c 0,68,69
 671 235 671 235 669 255 c 0,70,71
 665 295 665 295 646.5 328 c 128,-1,72
 628 361 628 361 596.5 384 c 128,-1,73
 565 407 565 407 530 424.5 c 128,-1,74
 495 442 495 442 448 452.5 c 128,-1,75
 401 463 401 463 360.5 470 c 128,-1,76
 320 477 320 477 268.5 480 c 128,-1,77
 217 483 217 483 183 484 c 128,-1,78
 149 485 149 485 106 485 c 1,47,48
EndSplineSet
Validated: 19457
EndChar

StartChar: follownotsim
Encoding: 8937 8937 149
Width: 799
VWidth: 1000
Flags: W
HStem: -151 60<492.559 644.336> 23 60<154.319 305.358> 488 44<482.125 711.981>
VStem: 57 30<-150.994 -60.8906> 86 43<239.006 329 697.587 774.781> 711 30<-8.60938 82.9937>
LayerCount: 2
Fore
SplineSet
72 -151 m 128,-1,1
 60 -151 60 -151 57 -125 c 1,2,-1
 57 -117 l 2,3,4
 57 -39 57 -39 105 22 c 128,-1,5
 153 83 153 83 228 83 c 0,6,7
 300 83 300 83 394 3 c 1,8,-1
 503 200 l 1,9,10
 510 210 510 210 522 210 c 0,11,12
 530 210 530 210 536.5 204 c 128,-1,13
 543 198 543 198 543 189 c 0,14,15
 543 182 543 182 540 178 c 2,16,-1
 428 -26 l 1,17,18
 509 -91 509 -91 570 -91 c 0,19,20
 629 -91 629 -91 670 -47 c 128,-1,21
 711 -3 711 -3 711 57 c 1,22,23
 714 83 714 83 726 83 c 128,-1,24
 738 83 738 83 741 57 c 1,25,-1
 741 49 l 2,26,27
 741 -29 741 -29 693.5 -90 c 128,-1,28
 646 -151 646 -151 570 -151 c 0,29,30
 526 -151 526 -151 487.5 -130 c 128,-1,31
 449 -109 449 -109 403 -70 c 1,32,-1
 295 -267 l 1,33,34
 288 -277 288 -277 276 -277 c 0,35,36
 268 -277 268 -277 261.5 -271 c 128,-1,37
 255 -265 255 -265 255 -256 c 0,38,39
 255 -250 255 -250 258 -245 c 2,40,-1
 370 -42 l 1,41,42
 289 23 289 23 228 23 c 0,43,44
 170 23 170 23 128.5 -21.5 c 128,-1,45
 87 -66 87 -66 87 -125 c 1,46,0
 84 -151 84 -151 72 -151 c 128,-1,1
108 239 m 0,47,48
 86 239 86 239 86 263 c 1,49,50
 107 451 107 451 417 511 c 1,51,52
 104 569 104 569 86 759 c 0,53,54
 86 768 86 768 92 775 c 128,-1,55
 98 782 98 782 108 782 c 0,56,57
 116 782 116 782 122 776.5 c 128,-1,58
 128 771 128 771 129 763 c 0,59,60
 155 532 155 532 693 532 c 1,61,62
 712 528 712 528 712 511 c 0,63,64
 712 493 712 493 693 489 c 1,65,66
 650 489 650 489 615 488 c 128,-1,67
 580 487 580 487 529 484 c 128,-1,68
 478 481 478 481 437 474 c 128,-1,69
 396 467 396 467 349 456.5 c 128,-1,70
 302 446 302 446 267 428 c 128,-1,71
 232 410 232 410 201 387.5 c 128,-1,72
 170 365 170 365 151.5 332 c 128,-1,73
 133 299 133 299 129 259 c 0,74,75
 127 239 127 239 108 239 c 0,47,48
EndSplineSet
Validated: 19457
EndChar

StartChar: lessnotsim
Encoding: 8934 8934 150
Width: 799
VWidth: 1000
Flags: W
HStem: -151 60<492.559 644.336> 23 60<154.319 305.358> 235 40<702 711.898> 737 41<699 711.986>
VStem: 57 30<-150.994 -60.8906> 711 30<-8.60938 82.9937>
LayerCount: 2
Fore
SplineSet
72 -151 m 132,-1,1
 60 -151 60 -151 57 -125 c 1,2,-1
 57 -117 l 2,3,4
 57 -39 57 -39 105 22 c 128,-1,5
 153 83 153 83 228 83 c 0,6,7
 300 83 300 83 394 3 c 1,8,-1
 503 200 l 1,9,10
 510 210 510 210 522 210 c 0,11,12
 530 210 530 210 536.5 204 c 128,-1,13
 543 198 543 198 543 189 c 0,14,15
 543 182 543 182 540 178 c 2,16,-1
 428 -26 l 1,17,18
 509 -91 509 -91 570 -91 c 0,19,20
 629 -91 629 -91 670 -47 c 128,-1,21
 711 -3 711 -3 711 57 c 1,22,23
 714 83 714 83 726 83 c 128,-1,24
 738 83 738 83 741 57 c 1,25,-1
 741 49 l 2,26,27
 741 -29 741 -29 693.5 -90 c 128,-1,28
 646 -151 646 -151 570 -151 c 0,29,30
 526 -151 526 -151 487.5 -130 c 128,-1,31
 449 -109 449 -109 403 -70 c 1,32,-1
 295 -267 l 1,33,34
 288 -277 288 -277 276 -277 c 0,35,36
 268 -277 268 -277 261.5 -271 c 128,-1,37
 255 -265 255 -265 255 -256 c 0,38,39
 255 -250 255 -250 258 -245 c 2,40,-1
 370 -42 l 1,41,42
 289 23 289 23 228 23 c 0,43,44
 170 23 170 23 128.5 -21.5 c 128,-1,45
 87 -66 87 -66 87 -125 c 1,46,0
 84 -151 84 -151 72 -151 c 132,-1,1
97 488 m 2,47,48
 86 493 86 493 86 507 c 0,49,50
 86 520 86 520 100 527 c 2,51,-1
 683 777 l 2,52,53
 685 778 685 778 691 778 c 0,54,55
 699 778 699 778 705.5 771.5 c 128,-1,56
 712 765 712 765 712 757 c 0,57,58
 712 743 712 743 699 737 c 2,59,-1
 157 507 l 1,60,-1
 702 275 l 2,61,62
 712 270 712 270 712 257 c 0,63,64
 712 248 712 248 705.5 241.5 c 128,-1,65
 699 235 699 235 691 235 c 0,66,67
 685 235 685 235 683 237 c 1,68,-1
 97 488 l 2,47,48
EndSplineSet
Validated: 19457
EndChar

StartChar: greaternotsim
Encoding: 8935 8935 151
Width: 799
VWidth: 1000
Flags: W
HStem: -151 60<492.559 644.336> 23 60<154.319 305.358> 742 40<86.043 97>
VStem: 57 30<-150.994 -60.8906> 711 30<-8.60938 82.9937>
LayerCount: 2
Fore
SplineSet
72 -151 m 128,-1,1
 60 -151 60 -151 57 -125 c 1,2,-1
 57 -117 l 2,3,4
 57 -39 57 -39 105 22 c 128,-1,5
 153 83 153 83 228 83 c 0,6,7
 300 83 300 83 394 3 c 1,8,-1
 503 200 l 1,9,10
 510 210 510 210 522 210 c 0,11,12
 530 210 530 210 536.5 204 c 128,-1,13
 543 198 543 198 543 189 c 0,14,15
 543 182 543 182 540 178 c 2,16,-1
 428 -26 l 1,17,18
 509 -91 509 -91 570 -91 c 0,19,20
 629 -91 629 -91 670 -47 c 128,-1,21
 711 -3 711 -3 711 57 c 1,22,23
 714 83 714 83 726 83 c 128,-1,24
 738 83 738 83 741 57 c 1,25,-1
 741 49 l 2,26,27
 741 -29 741 -29 693.5 -90 c 128,-1,28
 646 -151 646 -151 570 -151 c 0,29,30
 526 -151 526 -151 487.5 -130 c 128,-1,31
 449 -109 449 -109 403 -70 c 1,32,-1
 295 -267 l 1,33,34
 288 -277 288 -277 276 -277 c 0,35,36
 268 -277 268 -277 261.5 -271 c 128,-1,37
 255 -265 255 -265 255 -256 c 0,38,39
 255 -250 255 -250 258 -245 c 2,40,-1
 370 -42 l 1,41,42
 289 23 289 23 228 23 c 0,43,44
 170 23 170 23 128.5 -21.5 c 128,-1,45
 87 -66 87 -66 87 -125 c 1,46,0
 84 -151 84 -151 72 -151 c 128,-1,1
86 261 m 0,47,48
 86 274 86 274 100 281 c 2,49,-1
 641 511 l 1,50,-1
 97 742 l 2,51,52
 86 747 86 747 86 761 c 0,53,54
 86 769 86 769 92.5 775.5 c 128,-1,55
 99 782 99 782 108 782 c 0,56,57
 113 782 113 782 116 781 c 2,58,-1
 702 529 l 2,59,60
 712 524 712 524 712 511 c 0,61,62
 712 497 712 497 699 491 c 2,63,-1
 116 241 l 2,64,65
 113 239 113 239 108 239 c 0,66,67
 99 239 99 239 92.5 245.5 c 128,-1,68
 86 252 86 252 86 261 c 0,47,48
EndSplineSet
Validated: 19457
EndChar

StartChar: notlesseql
Encoding: 8816 8816 152
Width: 799
VWidth: 1000
Flags: W
HStem: -154 43<86.0049 209 273 711.981> 49 40<702 711.975> 610 42<699 711.971>
VStem: 150 41<-322.986 -310> 607 41<810 822.986>
LayerCount: 2
Fore
SplineSet
150 -302 m 0,0,1
 150 -296 150 -296 151 -294 c 2,2,-1
 209 -154 l 1,3,-1
 106 -154 l 1,4,5
 86 -150 86 -150 86 -133 c 0,6,7
 86 -115 86 -115 106 -111 c 1,8,-1
 227 -111 l 1,9,-1
 358 206 l 1,10,-1
 97 332 l 2,11,12
 86 337 86 337 86 350 c 128,-1,13
 86 363 86 363 100 370 c 2,14,-1
 506 565 l 1,15,-1
 607 810 l 2,16,17
 612 823 612 823 627 823 c 0,18,19
 635 823 635 823 641.5 816.5 c 128,-1,20
 648 810 648 810 648 802 c 0,21,22
 648 796 648 796 647 794 c 2,23,-1
 564 593 l 1,24,-1
 683 650 l 2,25,26
 687 652 687 652 691 652 c 0,27,28
 699 652 699 652 705.5 645.5 c 128,-1,29
 712 639 712 639 712 630 c 0,30,31
 712 617 712 617 699 610 c 2,32,-1
 540 534 l 1,33,-1
 413 227 l 1,34,-1
 702 89 l 2,35,36
 712 84 712 84 712 70 c 0,37,38
 712 61 712 61 705.5 55 c 128,-1,39
 699 49 699 49 691 49 c 0,40,41
 685 49 685 49 683 50 c 2,42,-1
 397 188 l 1,43,-1
 273 -111 l 1,44,-1
 693 -111 l 1,45,46
 712 -117 712 -117 712 -133 c 0,47,48
 712 -150 712 -150 693 -154 c 1,49,-1
 255 -154 l 1,50,-1
 191 -310 l 2,51,52
 186 -323 186 -323 171 -323 c 0,53,54
 163 -323 163 -323 156.5 -316.5 c 128,-1,55
 150 -310 150 -310 150 -302 c 0,0,1
157 350 m 1,56,-1
 374 246 l 1,57,-1
 481 506 l 1,58,-1
 157 350 l 1,56,-1
EndSplineSet
Validated: 19457
EndChar

StartChar: notgreatereql
Encoding: 8817 8817 153
Width: 799
VWidth: 1000
Flags: W
HStem: -154 43<86.0049 209 273 711.995>
VStem: 150 41<-322.986 -310> 607 41<810 822.986>
LayerCount: 2
Fore
SplineSet
150 -302 m 0,0,1
 150 -296 150 -296 151 -294 c 2,2,-1
 209 -154 l 1,3,-1
 106 -154 l 1,4,5
 86 -150 86 -150 86 -133 c 128,-1,6
 86 -116 86 -116 106 -111 c 1,7,-1
 227 -111 l 1,8,-1
 337 157 l 1,9,-1
 116 50 l 2,10,11
 113 49 113 49 108 49 c 0,12,13
 99 49 99 49 92.5 55 c 128,-1,14
 86 61 86 61 86 70 c 0,15,16
 86 84 86 84 97 89 c 2,17,-1
 362 216 l 1,18,-1
 454 440 l 1,19,-1
 100 610 l 2,20,21
 86 617 86 617 86 630 c 0,22,23
 86 639 86 639 92.5 645.5 c 128,-1,24
 99 652 99 652 108 652 c 0,25,26
 110 652 110 652 116 650 c 2,27,-1
 471 480 l 1,28,-1
 607 810 l 2,29,30
 612 823 612 823 627 823 c 0,31,32
 635 823 635 823 641.5 816.5 c 128,-1,33
 648 810 648 810 648 802 c 0,34,35
 648 796 648 796 647 794 c 2,36,-1
 509 461 l 1,37,-1
 699 370 l 2,38,39
 712 363 712 363 712 350 c 128,-1,40
 712 337 712 337 702 332 c 2,41,-1
 395 185 l 1,42,-1
 273 -111 l 1,43,-1
 693 -111 l 1,44,45
 712 -115 712 -115 712 -133 c 0,46,47
 712 -150 712 -150 693 -154 c 1,48,-1
 255 -154 l 1,49,-1
 191 -310 l 2,50,51
 186 -323 186 -323 171 -323 c 0,52,53
 163 -323 163 -323 156.5 -316.5 c 128,-1,54
 150 -310 150 -310 150 -302 c 0,0,1
420 244 m 1,55,-1
 641 350 l 1,56,-1
 493 421 l 1,57,-1
 420 244 l 1,55,-1
EndSplineSet
Validated: 19457
EndChar

StartChar: notless
Encoding: 8814 8814 154
Width: 799
VWidth: 1000
Flags: W
HStem: -52 41<699 711.986> 511 40<702 711.96>
VStem: 150 40<-221.961 -212> 608 40<712 721.961>
LayerCount: 2
Fore
SplineSet
150 -201 m 0,0,1
 150 -195 150 -195 151 -193 c 2,2,-1
 313 127 l 1,3,-1
 100 230 l 1,4,5
 86 235 86 235 86 250 c 0,6,7
 86 263 86 263 97 268 c 2,8,-1
 476 450 l 1,9,-1
 608 712 l 1,10,11
 615 722 615 722 627 722 c 0,12,13
 635 722 635 722 641.5 716 c 128,-1,14
 648 710 648 710 648 701 c 0,15,16
 648 695 648 695 647 693 c 2,17,-1
 540 481 l 1,18,-1
 683 550 l 2,19,20
 685 551 685 551 691 551 c 0,21,22
 699 551 699 551 705.5 544.5 c 128,-1,23
 712 538 712 538 712 530 c 0,24,25
 712 516 712 516 702 511 c 2,26,-1
 508 418 l 1,27,-1
 371 147 l 1,28,-1
 699 -11 l 2,29,30
 712 -17 712 -17 712 -31 c 0,31,32
 712 -39 712 -39 705.5 -45.5 c 128,-1,33
 699 -52 699 -52 691 -52 c 0,34,35
 685 -52 685 -52 683 -51 c 2,36,-1
 352 108 l 1,37,-1
 190 -212 l 1,38,39
 183 -222 183 -222 171 -222 c 0,40,41
 163 -222 163 -222 156.5 -216 c 128,-1,42
 150 -210 150 -210 150 -201 c 0,0,1
157 250 m 1,43,-1
 332 165 l 1,44,-1
 444 387 l 1,45,-1
 157 250 l 1,43,-1
EndSplineSet
Validated: 19457
EndChar

StartChar: notgreater
Encoding: 8815 8815 155
Width: 799
VWidth: 1000
Flags: W
HStem: -52 41<86.0143 100> 511 40<86.043 97>
VStem: 150 40<-221.961 -212> 608 40<712 721.961>
LayerCount: 2
Fore
SplineSet
150 -201 m 0,0,1
 150 -194 150 -194 153 -190 c 2,2,-1
 258 18 l 1,3,-1
 116 -51 l 2,4,5
 113 -52 113 -52 108 -52 c 0,6,7
 99 -52 99 -52 92.5 -45.5 c 128,-1,8
 86 -39 86 -39 86 -31 c 0,9,10
 86 -16 86 -16 100 -11 c 1,11,-1
 289 81 l 1,12,-1
 427 352 l 1,13,-1
 97 511 l 2,14,15
 86 516 86 516 86 530 c 0,16,17
 86 538 86 538 92.5 544.5 c 128,-1,18
 99 551 99 551 108 551 c 0,19,20
 113 551 113 551 116 550 c 2,21,-1
 446 391 l 1,22,-1
 608 712 l 1,23,24
 615 722 615 722 627 722 c 0,25,26
 635 722 635 722 641.5 716 c 128,-1,27
 648 710 648 710 648 701 c 0,28,29
 648 694 648 694 645 690 c 2,30,-1
 485 372 l 1,31,-1
 702 268 l 2,32,33
 712 263 712 263 712 250 c 0,34,35
 712 236 712 236 699 230 c 2,36,-1
 321 48 l 1,37,-1
 190 -212 l 1,38,39
 183 -222 183 -222 171 -222 c 0,40,41
 163 -222 163 -222 156.5 -216 c 128,-1,42
 150 -210 150 -210 150 -201 c 0,0,1
353 111 m 1,43,-1
 641 250 l 1,44,-1
 465 334 l 1,45,-1
 353 111 l 1,43,-1
EndSplineSet
Validated: 19457
EndChar

StartChar: difference
Encoding: 8783 8783 156
Width: 818
Flags: W
HStem: 130 44<58.0051 758.995> 338 44<58.0205 261.715 555.306 758.98> 469 44<344.882 472.867>
LayerCount: 2
Fore
SplineSet
79 130 m 1,0,1
 58 134 58 134 58 152 c 0,2,3
 58 168 58 168 79 174 c 1,4,-1
 739 174 l 1,5,6
 759 168 759 168 759 152 c 0,7,8
 759 134 759 134 739 130 c 1,9,-1
 79 130 l 1,0,1
79 338 m 1,10,11
 58 342 58 342 58 359 c 128,-1,12
 58 376 58 376 79 382 c 1,13,-1
 257 382 l 1,14,15
 265 438 265 438 308.5 475.5 c 128,-1,16
 352 513 352 513 409 513 c 128,-1,17
 466 513 466 513 509 475.5 c 128,-1,18
 552 438 552 438 560 382 c 1,19,-1
 739 382 l 1,20,21
 759 376 759 376 759 359 c 128,-1,22
 759 342 759 342 739 338 c 1,23,-1
 538 338 l 2,24,25
 522 338 522 338 518 357 c 1,26,27
 518 402 518 402 486 435.5 c 128,-1,28
 454 469 454 469 409 469 c 128,-1,29
 364 469 364 469 331.5 435.5 c 128,-1,30
 299 402 299 402 299 357 c 0,31,32
 299 342 299 342 280 338 c 1,33,-1
 79 338 l 1,10,11
EndSplineSet
Validated: 19457
EndChar

StartChar: approx
Encoding: 8776 8776 157
Width: 799
VWidth: 1000
Flags: W
HStem: 48 80<474.238 656.036> 171 80<142.297 323.762> 291 80<474.238 656.036> 414 80<142.297 323.762>
VStem: 57 29.5<48.2075 114.154 291.208 357.154> 707 34<175.277 250.997 418.277 493.997>
LayerCount: 2
Fore
SplineSet
74 48 m 0,0,1
 57 48 57 48 57 82 c 2,2,-1
 57 95 l 2,3,4
 57 165 57 165 107.5 208 c 128,-1,5
 158 251 158 251 228 251 c 0,6,7
 271 251 271 251 318 232 c 128,-1,8
 365 213 365 213 400 189.5 c 128,-1,9
 435 166 435 166 481.5 147 c 128,-1,10
 528 128 528 128 570 128 c 0,11,12
 614 128 614 128 660.5 152.5 c 128,-1,13
 707 177 707 177 707 218 c 0,14,15
 707 227 707 227 711.5 239 c 128,-1,16
 716 251 716 251 724 251 c 0,17,18
 733 251 733 251 737 239.5 c 128,-1,19
 741 228 741 228 741 218 c 2,20,-1
 741 205 l 2,21,22
 741 134 741 134 691 91 c 128,-1,23
 641 48 641 48 570 48 c 0,24,25
 527 48 527 48 480 67 c 128,-1,26
 433 86 433 86 398 109.5 c 128,-1,27
 363 133 363 133 316.5 152 c 128,-1,28
 270 171 270 171 228 171 c 0,29,30
 184 171 184 171 137.5 146.5 c 128,-1,31
 91 122 91 122 91 82 c 0,32,33
 91 72 91 72 86.5 60 c 128,-1,34
 82 48 82 48 74 48 c 0,0,1
74 291 m 0,35,36
 57 291 57 291 57 325 c 2,37,-1
 57 338 l 2,38,39
 57 408 57 408 107.5 451 c 128,-1,40
 158 494 158 494 228 494 c 0,41,42
 271 494 271 494 318 475 c 128,-1,43
 365 456 365 456 400 432.5 c 128,-1,44
 435 409 435 409 481.5 390 c 128,-1,45
 528 371 528 371 570 371 c 0,46,47
 614 371 614 371 660.5 395.5 c 128,-1,48
 707 420 707 420 707 461 c 0,49,50
 707 470 707 470 711.5 482 c 128,-1,51
 716 494 716 494 724 494 c 0,52,53
 733 494 733 494 737 482.5 c 128,-1,54
 741 471 741 471 741 461 c 2,55,-1
 741 448 l 2,56,57
 741 377 741 377 691 334 c 128,-1,58
 641 291 641 291 570 291 c 0,59,60
 527 291 527 291 480 310 c 128,-1,61
 433 329 433 329 398 352.5 c 128,-1,62
 363 376 363 376 316.5 395 c 128,-1,63
 270 414 270 414 228 414 c 0,64,65
 184 414 184 414 137.5 389.5 c 128,-1,66
 91 365 91 365 91 325 c 0,67,68
 91 315 91 315 86.5 303 c 128,-1,69
 82 291 82 291 74 291 c 0,35,36
EndSplineSet
Validated: 19457
EndChar

StartChar: simeqq
Encoding: 8773 8773 158
Width: 799
VWidth: 1000
Flags: W
HStem: -5 43<57.0049 740.995> 198 43<57.0049 740.995> 393 60<482.704 650.365> 533 63<153.302 319.165>
VStem: 57 30<393.006 467.217> 711 30<517.775 595.994>
LayerCount: 2
Fore
SplineSet
487 412 m 0,0,1
 460 426 460 426 409 460 c 128,-1,2
 358 494 358 494 318 513.5 c 128,-1,3
 278 533 278 533 241 533 c 0,4,5
 186 533 186 533 136.5 501 c 128,-1,6
 87 469 87 469 87 419 c 1,7,8
 84 393 84 393 72 393 c 128,-1,9
 60 393 60 393 57 419 c 1,10,-1
 57 427 l 2,11,12
 57 498 57 498 107 547 c 128,-1,13
 157 596 157 596 228 596 c 0,14,15
 275 596 275 596 320.5 573 c 128,-1,16
 366 550 366 550 415.5 516 c 128,-1,17
 465 482 465 482 498 468 c 1,18,19
 537 453 537 453 570 453 c 0,20,21
 623 453 623 453 667 486 c 128,-1,22
 711 519 711 519 711 570 c 1,23,24
 714 596 714 596 726 596 c 128,-1,25
 738 596 738 596 741 570 c 1,26,-1
 741 562 l 2,27,28
 741 491 741 491 691 442 c 128,-1,29
 641 393 641 393 570 393 c 0,30,31
 554 393 554 393 527 399 c 128,-1,32
 500 405 500 405 487 412 c 0,0,1
77 241 m 9,33,-1
 722 241 l 1,34,35
 741 237 741 237 741 220 c 0,36,37
 741 202 741 202 722 198 c 1,38,-1
 77 198 l 1,39,40
 57 203 57 203 57 220 c 128,-1,41
 57 237 57 237 77 241 c 9,33,-1
77 38 m 1,42,-1
 722 38 l 1,43,44
 741 34 741 34 741 17 c 0,45,46
 741 -1 741 -1 722 -5 c 1,47,-1
 230 -5 l 1,48,-1
 77 -5 l 1,49,50
 57 0 57 0 57 17 c 128,-1,51
 57 34 57 34 77 38 c 1,42,-1
EndSplineSet
Validated: 19457
EndChar

StartChar: notsimdbleql
Encoding: 8775 8775 159
Width: 799
VWidth: 1000
Flags: W
HStem: -5 43<57.0049 230 303 740.995> 198 43<57.0049 345 419 740.995> 393 60<540.751 650.365> 536 60<147.635 315.909> 653 20G<620.5 631>
VStem: 57 30<393.006 471.225> 711 30<517.775 595.994>
LayerCount: 2
Fore
SplineSet
150 -151 m 0,0,1
 150 -144 150 -144 153 -140 c 2,2,-1
 230 -5 l 1,3,-1
 77 -5 l 1,4,5
 57 0 57 0 57 17 c 128,-1,6
 57 34 57 34 77 38 c 1,7,-1
 254 38 l 1,8,-1
 345 198 l 1,9,-1
 77 198 l 1,10,11
 57 203 57 203 57 220 c 128,-1,12
 57 237 57 237 77 241 c 1,13,-1
 369 241 l 1,14,-1
 470 419 l 1,15,16
 445 431 445 431 398 464 c 128,-1,17
 351 497 351 497 310.5 516.5 c 128,-1,18
 270 536 270 536 228 536 c 0,19,20
 175 536 175 536 131 503 c 128,-1,21
 87 470 87 470 87 419 c 1,22,23
 84 393 84 393 72 393 c 128,-1,24
 60 393 60 393 57 419 c 1,25,-1
 57 427 l 2,26,27
 57 498 57 498 107 547 c 128,-1,28
 157 596 157 596 228 596 c 0,29,30
 275 596 275 596 320.5 573 c 128,-1,31
 366 550 366 550 415.5 516 c 128,-1,32
 465 482 465 482 498 468 c 1,33,-1
 608 662 l 2,34,35
 614 673 614 673 627 673 c 0,36,37
 635 673 635 673 641.5 666.5 c 128,-1,38
 648 660 648 660 648 651 c 0,39,40
 648 644 648 644 645 640 c 2,41,-1
 540 455 l 1,42,43
 560 453 560 453 570 453 c 0,44,45
 623 453 623 453 667 486 c 128,-1,46
 711 519 711 519 711 570 c 1,47,48
 714 596 714 596 726 596 c 128,-1,49
 738 596 738 596 741 570 c 1,50,-1
 741 562 l 2,51,52
 741 491 741 491 691 442 c 128,-1,53
 641 393 641 393 570 393 c 0,54,55
 538 393 538 393 510 402 c 1,56,-1
 419 241 l 1,57,-1
 722 241 l 1,58,59
 741 237 741 237 741 220 c 0,60,61
 741 202 741 202 722 198 c 1,62,-1
 394 198 l 1,63,-1
 303 38 l 1,64,-1
 722 38 l 1,65,66
 741 34 741 34 741 17 c 0,67,68
 741 -1 741 -1 722 -5 c 1,69,-1
 279 -5 l 1,70,-1
 190 -162 l 2,71,72
 184 -173 184 -173 171 -173 c 0,73,74
 163 -173 163 -173 156.5 -166.5 c 128,-1,75
 150 -160 150 -160 150 -151 c 0,0,1
EndSplineSet
Validated: 19457
EndChar

StartChar: lessnotapprox
Encoding: 10889 10889 160
Width: 799
VWidth: 1000
Flags: W
HStem: -229 61<484.681 657.218> -83 61<142.696 312.667> 19 62<484.33 657.218> 166 61<142.696 313.626> 333 42<699 711.971> 773 41<699 711.986>
VStem: 49 31<-228.975 -148.236 19.0264 100.764> 267 49<-290.156 -273> 491 41<282 295.986> 719 31<-102.764 -22.0254 147.065 226.975>
LayerCount: 2
Fore
SplineSet
100 554 m 2,0,1
 86 559 86 559 86 574 c 0,2,3
 86 588 86 588 100 594 c 2,4,-1
 683 813 l 2,5,6
 685 814 685 814 691 814 c 0,7,8
 699 814 699 814 705.5 807.5 c 128,-1,9
 712 801 712 801 712 793 c 0,10,11
 712 778 712 778 699 773 c 2,12,-1
 162 574 l 1,13,-1
 699 375 l 1,14,15
 712 368 712 368 712 355 c 0,16,17
 712 346 712 346 705.5 339.5 c 128,-1,18
 699 333 699 333 691 333 c 0,19,20
 685 333 685 333 683 335 c 1,21,-1
 100 554 l 2,0,1
65 19 m 0,22,23
 52 19 52 19 49 46 c 1,24,-1
 49 54 l 2,25,26
 49 127 49 127 100 177 c 128,-1,27
 151 227 151 227 224 227 c 0,28,29
 243 227 243 227 263.5 222.5 c 128,-1,30
 284 218 284 218 298 213 c 128,-1,31
 312 208 312 208 334 196 c 128,-1,32
 356 184 356 184 365.5 178 c 128,-1,33
 375 172 375 172 399 155.5 c 128,-1,34
 423 139 423 139 430 135 c 1,35,-1
 491 282 l 2,36,37
 496 296 496 296 511 296 c 0,38,39
 519 296 519 296 525.5 289.5 c 128,-1,40
 532 283 532 283 532 274 c 0,41,42
 532 269 532 269 531 266 c 2,43,-1
 469 111 l 1,44,45
 524 81 524 81 575 81 c 0,46,47
 630 81 630 81 674.5 114.5 c 128,-1,48
 719 148 719 148 719 201 c 1,49,50
 722 227 722 227 734 227 c 0,51,52
 747 227 747 227 750 201 c 1,53,-1
 750 192 l 2,54,55
 750 120 750 120 698.5 69.5 c 128,-1,56
 647 19 647 19 575 19 c 0,57,58
 518 19 518 19 448 60 c 1,59,-1
 390 -88 l 1,60,61
 433 -117 433 -117 451 -128.5 c 128,-1,62
 469 -140 469 -140 505.5 -154 c 128,-1,63
 542 -168 542 -168 575 -168 c 0,64,65
 630 -168 630 -168 674.5 -134.5 c 128,-1,66
 719 -101 719 -101 719 -48 c 1,67,68
 722 -22 722 -22 734 -22 c 0,69,70
 747 -22 747 -22 750 -48 c 1,71,-1
 750 -56 l 2,72,73
 750 -128 750 -128 698.5 -178.5 c 128,-1,74
 647 -229 647 -229 575 -229 c 0,75,76
 556 -229 556 -229 536 -224.5 c 128,-1,77
 516 -220 516 -220 502 -215 c 128,-1,78
 488 -210 488 -210 466 -198 c 128,-1,79
 444 -186 444 -186 434.5 -180 c 128,-1,80
 425 -174 425 -174 401 -158 c 128,-1,81
 377 -142 377 -142 370 -137 c 1,82,-1
 316 -273 l 2,83,84
 314 -279 314 -279 304.5 -285 c 128,-1,85
 295 -291 295 -291 288 -291 c 0,86,87
 280 -291 280 -291 273.5 -284.5 c 128,-1,88
 267 -278 267 -278 267 -269 c 0,89,90
 267 -264 267 -264 268 -261 c 2,91,-1
 329 -113 l 1,92,93
 271 -83 271 -83 224 -83 c 0,94,95
 170 -83 170 -83 125 -116.5 c 128,-1,96
 80 -150 80 -150 80 -203 c 1,97,98
 77 -229 77 -229 65 -229 c 0,99,100
 52 -229 52 -229 49 -203 c 1,101,-1
 49 -195 l 2,102,103
 49 -122 49 -122 100 -72 c 128,-1,104
 151 -22 151 -22 224 -22 c 0,105,106
 283 -22 283 -22 349 -62 c 1,107,-1
 410 85 l 1,108,109
 329 139 329 139 293 153 c 0,110,111
 259 166 259 166 224 166 c 0,112,113
 170 166 170 166 125 132.5 c 128,-1,114
 80 99 80 99 80 46 c 1,115,116
 77 19 77 19 65 19 c 0,22,23
EndSplineSet
Validated: 19457
EndChar

